<?xml version="1.0" encoding="us-ascii" standalone="no"?><svg xmlns="http://www.w3.org/2000/svg" xmlns:xlink="http://www.w3.org/1999/xlink" contentStyleType="text/css" height="358px" preserveAspectRatio="none" style="width:754px;height:358px;background:#FFFFFF;" version="1.1" viewBox="0 0 754 358" width="754px" zoomAndPan="magnify"><defs/><g><text fill="#000000" font-family="sans-serif" font-size="14" font-weight="bold" lengthAdjust="spacing" textLength="137" x="301.5" y="24.5332">Complex DataTypes</text><!--class Organization--><g id="elem_Organization"><rect codeLine="3" fill="#F1F1F1" height="114.4375" id="Organization" rx="2.5" ry="2.5" style="stroke:#181818;stroke-width:0.5;" width="141" x="17.5" y="45.6094"/><ellipse cx="45.1" cy="61.6094" fill="#A9DCDF" rx="11" ry="11" style="stroke:#181818;stroke-width:1.0;"/><path d="M47.2875,63.375 L43.1469,63.375 L42.725,64.4063 L43.1469,64.4063 Q43.7563,64.4063 44.0219,64.6406 Q44.2875,64.875 44.2875,65.2656 Q44.2875,65.6406 44.0219,65.875 Q43.7563,66.1094 43.1469,66.1094 L40.85,66.1094 Q40.2406,66.1094 39.9906,65.875 Q39.725,65.6406 39.725,65.25 Q39.725,64.875 40.0063,64.6406 Q40.2719,64.3906 40.8969,64.4063 L43.5688,57.75 L42.4594,57.75 Q41.85,57.75 41.5844,57.5156 Q41.3188,57.2813 41.3188,56.8906 Q41.3188,56.5156 41.5844,56.2813 Q41.85,56.0469 42.4594,56.0469 L46.1313,56.0469 L49.5219,64.4063 Q50.1156,64.4063 50.3031,64.5469 Q50.6938,64.8125 50.6938,65.2656 Q50.6938,65.6406 50.4281,65.875 Q50.1781,66.1094 49.5688,66.1094 L47.2719,66.1094 Q46.6625,66.1094 46.3969,65.875 Q46.1313,65.6406 46.1313,65.25 Q46.1313,64.875 46.3969,64.6406 Q46.6625,64.4063 47.2719,64.4063 L47.6938,64.4063 L47.2875,63.375 Z M46.5688,61.6719 L45.2094,58.2969 L43.8344,61.6719 L46.5688,61.6719 Z " fill="#000000"/><text fill="#000000" font-family="sans-serif" font-size="14" font-style="italic" lengthAdjust="spacing" textLength="81" x="61.9" y="67.3379">Organization</text><line style="stroke:#181818;stroke-width:0.5;" x1="18.5" x2="157.5" y1="77.6094" y2="77.6094"/><text fill="#000000" font-family="sans-serif" font-size="14" lengthAdjust="spacing" textLength="73" x="23.5" y="96.1426">Legal entity</text><text fill="#000000" font-family="sans-serif" font-size="14" lengthAdjust="spacing" textLength="116" x="23.5" y="135.3613">name : String[1..1]</text><text fill="#000000" font-family="sans-serif" font-size="14" lengthAdjust="spacing" textLength="129" x="23.5" y="152.9707">address : String[0..*]</text><line style="stroke:#181818;stroke-width:1.0;" x1="18.5" x2="85.5" y1="112.0234" y2="112.0234"/><text fill="#000000" font-family="sans-serif" font-size="14" lengthAdjust="spacing" textLength="5" x="85.5" y="117.252">-</text><line style="stroke:#181818;stroke-width:1.0;" x1="90.5" x2="157.5" y1="112.0234" y2="112.0234"/></g><!--class Location--><g id="elem_Location"><rect codeLine="10" fill="#F1F1F1" height="114.4375" id="Location" rx="2.5" ry="2.5" style="stroke:#181818;stroke-width:0.5;" width="293" x="193.5" y="45.6094"/><ellipse cx="308.75" cy="61.6094" fill="#A9DCDF" rx="11" ry="11" style="stroke:#181818;stroke-width:1.0;"/><path d="M310.9375,63.375 L306.7969,63.375 L306.375,64.4063 L306.7969,64.4063 Q307.4063,64.4063 307.6719,64.6406 Q307.9375,64.875 307.9375,65.2656 Q307.9375,65.6406 307.6719,65.875 Q307.4063,66.1094 306.7969,66.1094 L304.5,66.1094 Q303.8906,66.1094 303.6406,65.875 Q303.375,65.6406 303.375,65.25 Q303.375,64.875 303.6563,64.6406 Q303.9219,64.3906 304.5469,64.4063 L307.2188,57.75 L306.1094,57.75 Q305.5,57.75 305.2344,57.5156 Q304.9688,57.2813 304.9688,56.8906 Q304.9688,56.5156 305.2344,56.2813 Q305.5,56.0469 306.1094,56.0469 L309.7813,56.0469 L313.1719,64.4063 Q313.7656,64.4063 313.9531,64.5469 Q314.3438,64.8125 314.3438,65.2656 Q314.3438,65.6406 314.0781,65.875 Q313.8281,66.1094 313.2188,66.1094 L310.9219,66.1094 Q310.3125,66.1094 310.0469,65.875 Q309.7813,65.6406 309.7813,65.25 Q309.7813,64.875 310.0469,64.6406 Q310.3125,64.4063 310.9219,64.4063 L311.3438,64.4063 L310.9375,63.375 Z M310.2188,61.6719 L308.8594,58.2969 L307.4844,61.6719 L310.2188,61.6719 Z " fill="#000000"/><text fill="#000000" font-family="sans-serif" font-size="14" font-style="italic" lengthAdjust="spacing" textLength="54" x="329.25" y="67.3379">Location</text><line style="stroke:#181818;stroke-width:0.5;" x1="194.5" x2="485.5" y1="77.6094" y2="77.6094"/><text fill="#000000" font-family="sans-serif" font-size="14" lengthAdjust="spacing" textLength="104" x="199.5" y="96.1426">physical location</text><text fill="#000000" font-family="sans-serif" font-size="14" lengthAdjust="spacing" textLength="281" x="199.5" y="135.3613">country : String[1..1] - Should be ISO 3166-1</text><text fill="#000000" font-family="sans-serif" font-size="14" lengthAdjust="spacing" textLength="238" x="199.5" y="152.9707">state : String[0..1] - Should be 3166-2</text><line style="stroke:#181818;stroke-width:1.0;" x1="194.5" x2="337.5" y1="112.0234" y2="112.0234"/><text fill="#000000" font-family="sans-serif" font-size="14" lengthAdjust="spacing" textLength="5" x="337.5" y="117.252">-</text><line style="stroke:#181818;stroke-width:1.0;" x1="342.5" x2="485.5" y1="112.0234" y2="112.0234"/></g><!--class Period--><g id="elem_Period"><rect codeLine="16" fill="#F1F1F1" height="114.4375" id="Period" rx="2.5" ry="2.5" style="stroke:#181818;stroke-width:0.5;" width="145" x="521.5" y="45.6094"/><ellipse cx="569.25" cy="61.6094" fill="#A9DCDF" rx="11" ry="11" style="stroke:#181818;stroke-width:1.0;"/><path d="M571.4375,63.375 L567.2969,63.375 L566.875,64.4063 L567.2969,64.4063 Q567.9063,64.4063 568.1719,64.6406 Q568.4375,64.875 568.4375,65.2656 Q568.4375,65.6406 568.1719,65.875 Q567.9063,66.1094 567.2969,66.1094 L565,66.1094 Q564.3906,66.1094 564.1406,65.875 Q563.875,65.6406 563.875,65.25 Q563.875,64.875 564.1563,64.6406 Q564.4219,64.3906 565.0469,64.4063 L567.7188,57.75 L566.6094,57.75 Q566,57.75 565.7344,57.5156 Q565.4688,57.2813 565.4688,56.8906 Q565.4688,56.5156 565.7344,56.2813 Q566,56.0469 566.6094,56.0469 L570.2813,56.0469 L573.6719,64.4063 Q574.2656,64.4063 574.4531,64.5469 Q574.8438,64.8125 574.8438,65.2656 Q574.8438,65.6406 574.5781,65.875 Q574.3281,66.1094 573.7188,66.1094 L571.4219,66.1094 Q570.8125,66.1094 570.5469,65.875 Q570.2813,65.6406 570.2813,65.25 Q570.2813,64.875 570.5469,64.6406 Q570.8125,64.4063 571.4219,64.4063 L571.8438,64.4063 L571.4375,63.375 Z M570.7188,61.6719 L569.3594,58.2969 L567.9844,61.6719 L570.7188,61.6719 Z " fill="#000000"/><text fill="#000000" font-family="sans-serif" font-size="14" font-style="italic" lengthAdjust="spacing" textLength="41" x="589.75" y="67.3379">Period</text><line style="stroke:#181818;stroke-width:0.5;" x1="522.5" x2="665.5" y1="77.6094" y2="77.6094"/><text fill="#000000" font-family="sans-serif" font-size="14" lengthAdjust="spacing" textLength="118" x="527.5" y="96.1426">period of date/time</text><text fill="#000000" font-family="sans-serif" font-size="14" lengthAdjust="spacing" textLength="133" x="527.5" y="135.3613">start : DateTime[0..1]</text><text fill="#000000" font-family="sans-serif" font-size="14" lengthAdjust="spacing" textLength="129" x="527.5" y="152.9707">end : DateTIme[0..1]</text><line style="stroke:#181818;stroke-width:1.0;" x1="522.5" x2="591.5" y1="112.0234" y2="112.0234"/><text fill="#000000" font-family="sans-serif" font-size="14" lengthAdjust="spacing" textLength="5" x="591.5" y="117.252">-</text><line style="stroke:#181818;stroke-width:1.0;" x1="596.5" x2="665.5" y1="112.0234" y2="112.0234"/></g><!--class Concept--><g id="elem_Concept"><rect codeLine="22" fill="#F1F1F1" height="118.4375" id="Concept" rx="2.5" ry="2.5" style="stroke:#181818;stroke-width:0.5;" width="162" x="7" y="226.6094"/><ellipse cx="57.25" cy="242.6094" fill="#A9DCDF" rx="11" ry="11" style="stroke:#181818;stroke-width:1.0;"/><path d="M59.4375,244.375 L55.2969,244.375 L54.875,245.4063 L55.2969,245.4063 Q55.9063,245.4063 56.1719,245.6406 Q56.4375,245.875 56.4375,246.2656 Q56.4375,246.6406 56.1719,246.875 Q55.9063,247.1094 55.2969,247.1094 L53,247.1094 Q52.3906,247.1094 52.1406,246.875 Q51.875,246.6406 51.875,246.25 Q51.875,245.875 52.1563,245.6406 Q52.4219,245.3906 53.0469,245.4063 L55.7188,238.75 L54.6094,238.75 Q54,238.75 53.7344,238.5156 Q53.4688,238.2813 53.4688,237.8906 Q53.4688,237.5156 53.7344,237.2813 Q54,237.0469 54.6094,237.0469 L58.2813,237.0469 L61.6719,245.4063 Q62.2656,245.4063 62.4531,245.5469 Q62.8438,245.8125 62.8438,246.2656 Q62.8438,246.6406 62.5781,246.875 Q62.3281,247.1094 61.7188,247.1094 L59.4219,247.1094 Q58.8125,247.1094 58.5469,246.875 Q58.2813,246.6406 58.2813,246.25 Q58.2813,245.875 58.5469,245.6406 Q58.8125,245.4063 59.4219,245.4063 L59.8438,245.4063 L59.4375,244.375 Z M58.7188,242.6719 L57.3594,239.2969 L55.9844,242.6719 L58.7188,242.6719 Z " fill="#000000"/><text fill="#000000" font-family="sans-serif" font-size="14" font-style="italic" lengthAdjust="spacing" textLength="53" x="77.75" y="248.3379">Concept</text><line style="stroke:#181818;stroke-width:0.5;" x1="8" x2="168" y1="258.6094" y2="258.6094"/><text fill="#000000" font-family="sans-serif" font-size="14" lengthAdjust="spacing" textLength="96" x="13" y="277.1426">Coded concept</text><line style="stroke:#181818;stroke-width:1.0;" x1="8" x2="168" y1="284.2188" y2="284.2188"/><text fill="#000000" font-family="sans-serif" font-size="14" lengthAdjust="spacing" textLength="112" x="13" y="302.752">code : String[0..1]</text><text fill="#000000" font-family="sans-serif" font-size="14" lengthAdjust="spacing" textLength="110" x="13" y="320.3613">system : URI[0..1]</text><text fill="#000000" font-family="sans-serif" font-size="14" lengthAdjust="spacing" textLength="150" x="13" y="337.9707">description : String[0..1]</text></g><!--class Classification--><g id="elem_Classification"><rect codeLine="30" fill="#F1F1F1" height="114.4375" id="Classification" rx="2.5" ry="2.5" style="stroke:#181818;stroke-width:0.5;" width="172" x="204" y="228.6094"/><ellipse cx="244.65" cy="244.6094" fill="#A9DCDF" rx="11" ry="11" style="stroke:#181818;stroke-width:1.0;"/><path d="M246.8375,246.375 L242.6969,246.375 L242.275,247.4063 L242.6969,247.4063 Q243.3063,247.4063 243.5719,247.6406 Q243.8375,247.875 243.8375,248.2656 Q243.8375,248.6406 243.5719,248.875 Q243.3063,249.1094 242.6969,249.1094 L240.4,249.1094 Q239.7906,249.1094 239.5406,248.875 Q239.275,248.6406 239.275,248.25 Q239.275,247.875 239.5563,247.6406 Q239.8219,247.3906 240.4469,247.4063 L243.1188,240.75 L242.0094,240.75 Q241.4,240.75 241.1344,240.5156 Q240.8688,240.2813 240.8688,239.8906 Q240.8688,239.5156 241.1344,239.2813 Q241.4,239.0469 242.0094,239.0469 L245.6813,239.0469 L249.0719,247.4063 Q249.6656,247.4063 249.8531,247.5469 Q250.2438,247.8125 250.2438,248.2656 Q250.2438,248.6406 249.9781,248.875 Q249.7281,249.1094 249.1188,249.1094 L246.8219,249.1094 Q246.2125,249.1094 245.9469,248.875 Q245.6813,248.6406 245.6813,248.25 Q245.6813,247.875 245.9469,247.6406 Q246.2125,247.4063 246.8219,247.4063 L247.2438,247.4063 L246.8375,246.375 Z M246.1188,244.6719 L244.7594,241.2969 L243.3844,244.6719 L246.1188,244.6719 Z " fill="#000000"/><text fill="#000000" font-family="sans-serif" font-size="14" font-style="italic" lengthAdjust="spacing" textLength="83" x="264.35" y="250.3379">Classification</text><line style="stroke:#181818;stroke-width:0.5;" x1="205" x2="375" y1="260.6094" y2="260.6094"/><text fill="#000000" font-family="sans-serif" font-size="14" lengthAdjust="spacing" textLength="157" x="210" y="279.1426">Sensitivity Classifications</text><text fill="#000000" font-family="sans-serif" font-size="14" lengthAdjust="spacing" textLength="160" x="210" y="318.3613">regulation : Concept[1..1]</text><text fill="#000000" font-family="sans-serif" font-size="14" lengthAdjust="spacing" textLength="157" x="210" y="335.9707">evaluated : boolean[1..1]</text><line style="stroke:#181818;stroke-width:1.0;" x1="205" x2="287.5" y1="295.0234" y2="295.0234"/><text fill="#000000" font-family="sans-serif" font-size="14" lengthAdjust="spacing" textLength="5" x="287.5" y="300.252">-</text><line style="stroke:#181818;stroke-width:1.0;" x1="292.5" x2="375" y1="295.0234" y2="295.0234"/></g><!--class PrivacyIndicators--><g id="elem_PrivacyIndicators"><rect codeLine="37" fill="#F1F1F1" height="132.0469" id="PrivacyIndicators" rx="2.5" ry="2.5" style="stroke:#181818;stroke-width:0.5;" width="336" x="411" y="219.6094"/><ellipse cx="521.25" cy="235.6094" fill="#A9DCDF" rx="11" ry="11" style="stroke:#181818;stroke-width:1.0;"/><path d="M523.4375,237.375 L519.2969,237.375 L518.875,238.4063 L519.2969,238.4063 Q519.9063,238.4063 520.1719,238.6406 Q520.4375,238.875 520.4375,239.2656 Q520.4375,239.6406 520.1719,239.875 Q519.9063,240.1094 519.2969,240.1094 L517,240.1094 Q516.3906,240.1094 516.1406,239.875 Q515.875,239.6406 515.875,239.25 Q515.875,238.875 516.1563,238.6406 Q516.4219,238.3906 517.0469,238.4063 L519.7188,231.75 L518.6094,231.75 Q518,231.75 517.7344,231.5156 Q517.4688,231.2813 517.4688,230.8906 Q517.4688,230.5156 517.7344,230.2813 Q518,230.0469 518.6094,230.0469 L522.2813,230.0469 L525.6719,238.4063 Q526.2656,238.4063 526.4531,238.5469 Q526.8438,238.8125 526.8438,239.2656 Q526.8438,239.6406 526.5781,239.875 Q526.3281,240.1094 525.7188,240.1094 L523.4219,240.1094 Q522.8125,240.1094 522.5469,239.875 Q522.2813,239.6406 522.2813,239.25 Q522.2813,238.875 522.5469,238.6406 Q522.8125,238.4063 523.4219,238.4063 L523.8438,238.4063 L523.4375,237.375 Z M522.7188,235.6719 L521.3594,232.2969 L519.9844,235.6719 L522.7188,235.6719 Z " fill="#000000"/><text fill="#000000" font-family="sans-serif" font-size="14" font-style="italic" lengthAdjust="spacing" textLength="107" x="541.75" y="241.3379">PrivacyIndicators</text><line style="stroke:#181818;stroke-width:0.5;" x1="412" x2="746" y1="251.6094" y2="251.6094"/><text fill="#000000" font-family="sans-serif" font-size="14" lengthAdjust="spacing" textLength="324" x="417" y="270.1426">Indicate the privacy tools used and results obtained</text><text fill="#000000" font-family="sans-serif" font-size="14" lengthAdjust="spacing" textLength="321" x="417" y="309.3613">tool : Concept[1..1] - from Privacy Enhancing Tools</text><text fill="#000000" font-family="sans-serif" font-size="14" lengthAdjust="spacing" textLength="153" x="417" y="326.9707">parameters : String[0..1]</text><text fill="#000000" font-family="sans-serif" font-size="14" lengthAdjust="spacing" textLength="116" x="417" y="344.5801">result : String[0..1]</text><line style="stroke:#181818;stroke-width:1.0;" x1="412" x2="576.5" y1="286.0234" y2="286.0234"/><text fill="#000000" font-family="sans-serif" font-size="14" lengthAdjust="spacing" textLength="5" x="576.5" y="291.252">-</text><line style="stroke:#181818;stroke-width:1.0;" x1="581.5" x2="746" y1="286.0234" y2="286.0234"/></g><!--SRC=[RP9DJyCm38Rl-nK-8sqma7RWMZXCchI9ZHFQmKsyDbAQL8axKH3_7VTZqqZ9eMfiny-RDsR3bY3pLMtf4rwGyT3M56Spp2C7L0pAOeom3GKwyuLil8Fl6SZQK84MoB7XjW_CkzN_EQm8dc7FmRZYOxbOB8zz7BKE9DskgOV5ukuu-vdWDbxTekgoZKO9pOxnXATyupYq2HBci2zzOpNa1Elz5fwMgzLysP-8Z4n_T2JrVUsZI4kKxIWOho-wXeq_WPPszsmgIfG99x1mn5awI7eWzIbo-f9ONnCJNkQTeff7OEOrQRdk4BkoHXDqUgD1GXkPAicylwrlmfgY2gRkNKvEJTyZwxxcPFwyofvSD6pEylv9GKnS25Gq5aVKUAERiQ0psaPywFp8lRU4RinEbUo2EQDgrqvtB1_YA6OC4719K0z5mD8iGXEbCuhRCdkDvGW-PpIETAAogqxroKoSWgykM7Xr9JebLi6XwprC0GQPTwOG_xD_W4ui_WK0]--></g></svg>