<?xml version="1.0" encoding="us-ascii" standalone="no"?><svg xmlns="http://www.w3.org/2000/svg" xmlns:xlink="http://www.w3.org/1999/xlink" contentStyleType="text/css" height="345px" preserveAspectRatio="none" style="width:485px;height:345px;background:#FFFFFF;" version="1.1" viewBox="0 0 485 345" width="485px" zoomAndPan="magnify"><defs/><g><text fill="#000000" font-family="sans-serif" font-size="14" font-weight="bold" lengthAdjust="spacing" textLength="149" x="161" y="24.5332">DataTypes - May 2024</text><!--class Organization--><g id="elem_Organization"><rect codeLine="3" fill="#F1F1F1" height="114.4375" id="Organization" rx="2.5" ry="2.5" style="stroke:#181818;stroke-width:0.5;" width="141" x="9" y="45.6094"/><ellipse cx="36.6" cy="61.6094" fill="#A9DCDF" rx="11" ry="11" style="stroke:#181818;stroke-width:1.0;"/><path d="M38.7875,63.375 L34.6469,63.375 L34.225,64.4063 L34.6469,64.4063 Q35.2563,64.4063 35.5219,64.6406 Q35.7875,64.875 35.7875,65.2656 Q35.7875,65.6406 35.5219,65.875 Q35.2563,66.1094 34.6469,66.1094 L32.35,66.1094 Q31.7406,66.1094 31.4906,65.875 Q31.225,65.6406 31.225,65.25 Q31.225,64.875 31.5063,64.6406 Q31.7719,64.3906 32.3969,64.4063 L35.0688,57.75 L33.9594,57.75 Q33.35,57.75 33.0844,57.5156 Q32.8188,57.2813 32.8188,56.8906 Q32.8188,56.5156 33.0844,56.2813 Q33.35,56.0469 33.9594,56.0469 L37.6313,56.0469 L41.0219,64.4063 Q41.6156,64.4063 41.8031,64.5469 Q42.1938,64.8125 42.1938,65.2656 Q42.1938,65.6406 41.9281,65.875 Q41.6781,66.1094 41.0688,66.1094 L38.7719,66.1094 Q38.1625,66.1094 37.8969,65.875 Q37.6313,65.6406 37.6313,65.25 Q37.6313,64.875 37.8969,64.6406 Q38.1625,64.4063 38.7719,64.4063 L39.1938,64.4063 L38.7875,63.375 Z M38.0688,61.6719 L36.7094,58.2969 L35.3344,61.6719 L38.0688,61.6719 Z " fill="#000000"/><text fill="#000000" font-family="sans-serif" font-size="14" font-style="italic" lengthAdjust="spacing" textLength="81" x="53.4" y="67.3379">Organization</text><line style="stroke:#181818;stroke-width:0.5;" x1="10" x2="149" y1="77.6094" y2="77.6094"/><text fill="#000000" font-family="sans-serif" font-size="14" lengthAdjust="spacing" textLength="73" x="15" y="96.1426">Legal entity</text><text fill="#000000" font-family="sans-serif" font-size="14" lengthAdjust="spacing" textLength="116" x="15" y="135.3613">name : String[1..1]</text><text fill="#000000" font-family="sans-serif" font-size="14" lengthAdjust="spacing" textLength="129" x="15" y="152.9707">address : String[0..*]</text><line style="stroke:#181818;stroke-width:1.0;" x1="10" x2="77" y1="112.0234" y2="112.0234"/><text fill="#000000" font-family="sans-serif" font-size="14" lengthAdjust="spacing" textLength="5" x="77" y="117.252">-</text><line style="stroke:#181818;stroke-width:1.0;" x1="82" x2="149" y1="112.0234" y2="112.0234"/></g><!--class Location--><g id="elem_Location"><rect codeLine="10" fill="#F1F1F1" height="114.4375" id="Location" rx="2.5" ry="2.5" style="stroke:#181818;stroke-width:0.5;" width="293" x="185" y="45.6094"/><ellipse cx="300.25" cy="61.6094" fill="#A9DCDF" rx="11" ry="11" style="stroke:#181818;stroke-width:1.0;"/><path d="M302.4375,63.375 L298.2969,63.375 L297.875,64.4063 L298.2969,64.4063 Q298.9063,64.4063 299.1719,64.6406 Q299.4375,64.875 299.4375,65.2656 Q299.4375,65.6406 299.1719,65.875 Q298.9063,66.1094 298.2969,66.1094 L296,66.1094 Q295.3906,66.1094 295.1406,65.875 Q294.875,65.6406 294.875,65.25 Q294.875,64.875 295.1563,64.6406 Q295.4219,64.3906 296.0469,64.4063 L298.7188,57.75 L297.6094,57.75 Q297,57.75 296.7344,57.5156 Q296.4688,57.2813 296.4688,56.8906 Q296.4688,56.5156 296.7344,56.2813 Q297,56.0469 297.6094,56.0469 L301.2813,56.0469 L304.6719,64.4063 Q305.2656,64.4063 305.4531,64.5469 Q305.8438,64.8125 305.8438,65.2656 Q305.8438,65.6406 305.5781,65.875 Q305.3281,66.1094 304.7188,66.1094 L302.4219,66.1094 Q301.8125,66.1094 301.5469,65.875 Q301.2813,65.6406 301.2813,65.25 Q301.2813,64.875 301.5469,64.6406 Q301.8125,64.4063 302.4219,64.4063 L302.8438,64.4063 L302.4375,63.375 Z M301.7188,61.6719 L300.3594,58.2969 L298.9844,61.6719 L301.7188,61.6719 Z " fill="#000000"/><text fill="#000000" font-family="sans-serif" font-size="14" font-style="italic" lengthAdjust="spacing" textLength="54" x="320.75" y="67.3379">Location</text><line style="stroke:#181818;stroke-width:0.5;" x1="186" x2="477" y1="77.6094" y2="77.6094"/><text fill="#000000" font-family="sans-serif" font-size="14" lengthAdjust="spacing" textLength="104" x="191" y="96.1426">physical location</text><text fill="#000000" font-family="sans-serif" font-size="14" lengthAdjust="spacing" textLength="281" x="191" y="135.3613">country : String[1..1] - Should be ISO 3166-1</text><text fill="#000000" font-family="sans-serif" font-size="14" lengthAdjust="spacing" textLength="238" x="191" y="152.9707">state : String[0..1] - Should be 3166-2</text><line style="stroke:#181818;stroke-width:1.0;" x1="186" x2="329" y1="112.0234" y2="112.0234"/><text fill="#000000" font-family="sans-serif" font-size="14" lengthAdjust="spacing" textLength="5" x="329" y="117.252">-</text><line style="stroke:#181818;stroke-width:1.0;" x1="334" x2="477" y1="112.0234" y2="112.0234"/></g><!--class Period--><g id="elem_Period"><rect codeLine="16" fill="#F1F1F1" height="114.4375" id="Period" rx="2.5" ry="2.5" style="stroke:#181818;stroke-width:0.5;" width="145" x="7" y="221.6094"/><ellipse cx="54.75" cy="237.6094" fill="#A9DCDF" rx="11" ry="11" style="stroke:#181818;stroke-width:1.0;"/><path d="M56.9375,239.375 L52.7969,239.375 L52.375,240.4063 L52.7969,240.4063 Q53.4063,240.4063 53.6719,240.6406 Q53.9375,240.875 53.9375,241.2656 Q53.9375,241.6406 53.6719,241.875 Q53.4063,242.1094 52.7969,242.1094 L50.5,242.1094 Q49.8906,242.1094 49.6406,241.875 Q49.375,241.6406 49.375,241.25 Q49.375,240.875 49.6563,240.6406 Q49.9219,240.3906 50.5469,240.4063 L53.2188,233.75 L52.1094,233.75 Q51.5,233.75 51.2344,233.5156 Q50.9688,233.2813 50.9688,232.8906 Q50.9688,232.5156 51.2344,232.2813 Q51.5,232.0469 52.1094,232.0469 L55.7813,232.0469 L59.1719,240.4063 Q59.7656,240.4063 59.9531,240.5469 Q60.3438,240.8125 60.3438,241.2656 Q60.3438,241.6406 60.0781,241.875 Q59.8281,242.1094 59.2188,242.1094 L56.9219,242.1094 Q56.3125,242.1094 56.0469,241.875 Q55.7813,241.6406 55.7813,241.25 Q55.7813,240.875 56.0469,240.6406 Q56.3125,240.4063 56.9219,240.4063 L57.3438,240.4063 L56.9375,239.375 Z M56.2188,237.6719 L54.8594,234.2969 L53.4844,237.6719 L56.2188,237.6719 Z " fill="#000000"/><text fill="#000000" font-family="sans-serif" font-size="14" font-style="italic" lengthAdjust="spacing" textLength="41" x="75.25" y="243.3379">Period</text><line style="stroke:#181818;stroke-width:0.5;" x1="8" x2="151" y1="253.6094" y2="253.6094"/><text fill="#000000" font-family="sans-serif" font-size="14" lengthAdjust="spacing" textLength="118" x="13" y="272.1426">period of date/time</text><text fill="#000000" font-family="sans-serif" font-size="14" lengthAdjust="spacing" textLength="133" x="13" y="311.3613">start : DateTime[0..1]</text><text fill="#000000" font-family="sans-serif" font-size="14" lengthAdjust="spacing" textLength="129" x="13" y="328.9707">end : DateTIme[0..1]</text><line style="stroke:#181818;stroke-width:1.0;" x1="8" x2="77" y1="288.0234" y2="288.0234"/><text fill="#000000" font-family="sans-serif" font-size="14" lengthAdjust="spacing" textLength="5" x="77" y="293.252">-</text><line style="stroke:#181818;stroke-width:1.0;" x1="82" x2="151" y1="288.0234" y2="288.0234"/></g><!--class Concept--><g id="elem_Concept"><rect codeLine="22" fill="#F1F1F1" height="118.4375" id="Concept" rx="2.5" ry="2.5" style="stroke:#181818;stroke-width:0.5;" width="162" x="187.5" y="219.6094"/><ellipse cx="237.75" cy="235.6094" fill="#A9DCDF" rx="11" ry="11" style="stroke:#181818;stroke-width:1.0;"/><path d="M239.9375,237.375 L235.7969,237.375 L235.375,238.4063 L235.7969,238.4063 Q236.4063,238.4063 236.6719,238.6406 Q236.9375,238.875 236.9375,239.2656 Q236.9375,239.6406 236.6719,239.875 Q236.4063,240.1094 235.7969,240.1094 L233.5,240.1094 Q232.8906,240.1094 232.6406,239.875 Q232.375,239.6406 232.375,239.25 Q232.375,238.875 232.6563,238.6406 Q232.9219,238.3906 233.5469,238.4063 L236.2188,231.75 L235.1094,231.75 Q234.5,231.75 234.2344,231.5156 Q233.9688,231.2813 233.9688,230.8906 Q233.9688,230.5156 234.2344,230.2813 Q234.5,230.0469 235.1094,230.0469 L238.7813,230.0469 L242.1719,238.4063 Q242.7656,238.4063 242.9531,238.5469 Q243.3438,238.8125 243.3438,239.2656 Q243.3438,239.6406 243.0781,239.875 Q242.8281,240.1094 242.2188,240.1094 L239.9219,240.1094 Q239.3125,240.1094 239.0469,239.875 Q238.7813,239.6406 238.7813,239.25 Q238.7813,238.875 239.0469,238.6406 Q239.3125,238.4063 239.9219,238.4063 L240.3438,238.4063 L239.9375,237.375 Z M239.2188,235.6719 L237.8594,232.2969 L236.4844,235.6719 L239.2188,235.6719 Z " fill="#000000"/><text fill="#000000" font-family="sans-serif" font-size="14" font-style="italic" lengthAdjust="spacing" textLength="53" x="258.25" y="241.3379">Concept</text><line style="stroke:#181818;stroke-width:0.5;" x1="188.5" x2="348.5" y1="251.6094" y2="251.6094"/><text fill="#000000" font-family="sans-serif" font-size="14" lengthAdjust="spacing" textLength="96" x="193.5" y="270.1426">Coded concept</text><line style="stroke:#181818;stroke-width:1.0;" x1="188.5" x2="348.5" y1="277.2188" y2="277.2188"/><text fill="#000000" font-family="sans-serif" font-size="14" lengthAdjust="spacing" textLength="112" x="193.5" y="295.752">code : String[0..1]</text><text fill="#000000" font-family="sans-serif" font-size="14" lengthAdjust="spacing" textLength="110" x="193.5" y="313.3613">system : URI[0..1]</text><text fill="#000000" font-family="sans-serif" font-size="14" lengthAdjust="spacing" textLength="150" x="193.5" y="330.9707">description : String[0..1]</text></g><!--SRC=[PP0nJyCm48Nt_8gRaHAQW3gmbYLIKH4j4-fmjQ-ffSIExEiGKFyxXvD6nRt9Vi_dxzsnuPRW5HbtGqy1SdZ30Qf5zPnbU0ZiKJ6e5aE0ZM_GcczauopyP22rfWPR8Ck6XoZaVnLF5Zk25zYoDxRvAekYt4STjVOalytMeYWUzjdb3hTswXRLduPWbD3QIKzuofqj-o51oZpRapkt6Wu4zNO3J-LocPUn8p0o_SkHl8zlAucM97idRvo-vXelxWXQldjaqr6IJ3YUXIDBfftO8obQPFNLg6VZZhToLb7F4t3bD6aPTzHcrhG4dKuqHXW2KoVEvqTz8siAofi-RZdfkcI_]--></g></svg>