<?xml version="1.0" encoding="us-ascii" standalone="no"?><svg xmlns="http://www.w3.org/2000/svg" xmlns:xlink="http://www.w3.org/1999/xlink" contentStyleType="text/css" height="504px" preserveAspectRatio="none" style="width:883px;height:504px;background:#FFFFFF;" version="1.1" viewBox="0 0 883 504" width="883px" zoomAndPan="magnify"><defs/><g><text fill="#000000" font-family="sans-serif" font-size="14" font-weight="bold" lengthAdjust="spacing" textLength="120" x="374.75" y="24.5332">Data Provenance</text><!--class Data--><g id="elem_Data"><rect codeLine="3" fill="#F1F1F1" height="48" id="Data" rx="2.5" ry="2.5" style="stroke:#181818;stroke-width:0.5;" width="62" x="263.5" y="72.1094"/><ellipse cx="278.5" cy="88.1094" fill="#ADD1B2" rx="11" ry="11" style="stroke:#181818;stroke-width:1.0;"/><path d="M277.3594,88.9063 L277.3594,91.4063 L281.6875,91.4063 L281.6875,90.4844 Q281.6875,89.875 281.9219,89.6094 Q282.1719,89.3438 282.5469,89.3438 Q282.9219,89.3438 283.1563,89.6094 Q283.3906,89.875 283.3906,90.4844 L283.3906,93.1094 L275.3906,93.1094 Q274.7656,93.1094 274.5,92.875 Q274.25,92.6406 274.25,92.25 Q274.25,91.875 274.5156,91.6406 Q274.7813,91.4063 275.3906,91.4063 L275.6563,91.4063 L275.6563,84.75 L275.3906,84.75 Q274.7656,84.75 274.5,84.5156 Q274.25,84.2813 274.25,83.8906 Q274.25,83.5156 274.5,83.2813 Q274.7656,83.0469 275.3906,83.0469 L283.0156,83.0469 L283.0156,85.6406 Q283.0156,86.25 282.7813,86.5156 Q282.5625,86.7656 282.1719,86.7656 Q281.7969,86.7656 281.5625,86.5156 Q281.3281,86.25 281.3281,85.6406 L281.3281,84.75 L277.3594,84.75 L277.3594,87.2031 L278.8438,87.2031 Q278.8438,86.5469 278.9688,86.3594 Q279.2344,85.9531 279.7031,85.9531 Q280.0781,85.9531 280.3125,86.2188 Q280.5469,86.4688 280.5469,87.0781 L280.5469,89.0469 Q280.5469,89.5938 280.4219,89.7813 Q280.1563,90.1719 279.7031,90.1719 Q279.2344,90.1719 278.9688,89.7656 Q278.8438,89.5781 278.8438,88.9063 L277.3594,88.9063 Z " fill="#000000"/><text fill="#000000" font-family="sans-serif" font-size="14" lengthAdjust="spacing" textLength="30" x="292.5" y="93.8379">Data</text><line style="stroke:#181818;stroke-width:0.5;" x1="264.5" x2="324.5" y1="104.1094" y2="104.1094"/><line style="stroke:#181818;stroke-width:0.5;" x1="264.5" x2="324.5" y1="112.1094" y2="112.1094"/></g><!--class Metadata--><g id="elem_Metadata"><rect codeLine="5" fill="#F1F1F1" height="100.8281" id="Metadata" rx="2.5" ry="2.5" style="stroke:#181818;stroke-width:0.5;" width="207" x="361" y="45.6094"/><ellipse cx="430.25" cy="61.6094" fill="#A9DCDF" rx="11" ry="11" style="stroke:#181818;stroke-width:1.0;"/><path d="M432.4375,63.375 L428.2969,63.375 L427.875,64.4063 L428.2969,64.4063 Q428.9063,64.4063 429.1719,64.6406 Q429.4375,64.875 429.4375,65.2656 Q429.4375,65.6406 429.1719,65.875 Q428.9063,66.1094 428.2969,66.1094 L426,66.1094 Q425.3906,66.1094 425.1406,65.875 Q424.875,65.6406 424.875,65.25 Q424.875,64.875 425.1563,64.6406 Q425.4219,64.3906 426.0469,64.4063 L428.7188,57.75 L427.6094,57.75 Q427,57.75 426.7344,57.5156 Q426.4688,57.2813 426.4688,56.8906 Q426.4688,56.5156 426.7344,56.2813 Q427,56.0469 427.6094,56.0469 L431.2813,56.0469 L434.6719,64.4063 Q435.2656,64.4063 435.4531,64.5469 Q435.8438,64.8125 435.8438,65.2656 Q435.8438,65.6406 435.5781,65.875 Q435.3281,66.1094 434.7188,66.1094 L432.4219,66.1094 Q431.8125,66.1094 431.5469,65.875 Q431.2813,65.6406 431.2813,65.25 Q431.2813,64.875 431.5469,64.6406 Q431.8125,64.4063 432.4219,64.4063 L432.8438,64.4063 L432.4375,63.375 Z M431.7188,61.6719 L430.3594,58.2969 L428.9844,61.6719 L431.7188,61.6719 Z " fill="#000000"/><text fill="#000000" font-family="sans-serif" font-size="14" font-style="italic" lengthAdjust="spacing" textLength="60" x="450.75" y="67.3379">Metadata</text><line style="stroke:#181818;stroke-width:0.5;" x1="362" x2="567" y1="77.6094" y2="77.6094"/><text fill="#000000" font-family="sans-serif" font-size="14" lengthAdjust="spacing" textLength="132" x="367" y="96.1426">source : Source[1..1]</text><text fill="#000000" font-family="sans-serif" font-size="14" lengthAdjust="spacing" textLength="195" x="367" y="113.752">provenance : Provenance[1..1]</text><text fill="#000000" font-family="sans-serif" font-size="14" lengthAdjust="spacing" textLength="91" x="367" y="131.3613">use : Use[1..1]</text><line style="stroke:#181818;stroke-width:0.5;" x1="362" x2="567" y1="138.4375" y2="138.4375"/></g><!--class Source--><g id="elem_Source"><rect codeLine="16" fill="#F1F1F1" height="171.2656" id="Source" rx="2.5" ry="2.5" style="stroke:#181818;stroke-width:0.5;" width="309" x="7" y="266.6094"/><ellipse cx="134.75" cy="282.6094" fill="#A9DCDF" rx="11" ry="11" style="stroke:#181818;stroke-width:1.0;"/><path d="M136.9375,284.375 L132.7969,284.375 L132.375,285.4063 L132.7969,285.4063 Q133.4063,285.4063 133.6719,285.6406 Q133.9375,285.875 133.9375,286.2656 Q133.9375,286.6406 133.6719,286.875 Q133.4063,287.1094 132.7969,287.1094 L130.5,287.1094 Q129.8906,287.1094 129.6406,286.875 Q129.375,286.6406 129.375,286.25 Q129.375,285.875 129.6563,285.6406 Q129.9219,285.3906 130.5469,285.4063 L133.2188,278.75 L132.1094,278.75 Q131.5,278.75 131.2344,278.5156 Q130.9688,278.2813 130.9688,277.8906 Q130.9688,277.5156 131.2344,277.2813 Q131.5,277.0469 132.1094,277.0469 L135.7813,277.0469 L139.1719,285.4063 Q139.7656,285.4063 139.9531,285.5469 Q140.3438,285.8125 140.3438,286.2656 Q140.3438,286.6406 140.0781,286.875 Q139.8281,287.1094 139.2188,287.1094 L136.9219,287.1094 Q136.3125,287.1094 136.0469,286.875 Q135.7813,286.6406 135.7813,286.25 Q135.7813,285.875 136.0469,285.6406 Q136.3125,285.4063 136.9219,285.4063 L137.3438,285.4063 L136.9375,284.375 Z M136.2188,282.6719 L134.8594,279.2969 L133.4844,282.6719 L136.2188,282.6719 Z " fill="#000000"/><text fill="#000000" font-family="sans-serif" font-size="14" font-style="italic" lengthAdjust="spacing" textLength="45" x="155.25" y="288.3379">Source</text><line style="stroke:#181818;stroke-width:0.5;" x1="8" x2="315" y1="298.6094" y2="298.6094"/><text fill="#000000" font-family="sans-serif" font-size="14" lengthAdjust="spacing" textLength="297" x="13" y="317.1426">Identifies the dataset and source of the dataset</text><line style="stroke:#181818;stroke-width:1.0;" x1="8" x2="315" y1="324.2188" y2="324.2188"/><text fill="#000000" font-family="sans-serif" font-size="14" lengthAdjust="spacing" textLength="127" x="13" y="342.752">version : String[1..1]</text><text fill="#000000" font-family="sans-serif" font-size="14" lengthAdjust="spacing" textLength="99" x="13" y="360.3613">title: String[1..1]</text><text fill="#000000" font-family="sans-serif" font-size="14" lengthAdjust="spacing" textLength="77" x="13" y="377.9707">id : URI[1..1]</text><text fill="#000000" font-family="sans-serif" font-size="14" lengthAdjust="spacing" textLength="120" x="13" y="395.5801">location : URL[0..1]</text><text fill="#000000" font-family="sans-serif" font-size="14" lengthAdjust="spacing" textLength="159" x="13" y="413.1895">issuer : Organization[1..*]</text><text fill="#000000" font-family="sans-serif" font-size="14" lengthAdjust="spacing" textLength="150" x="13" y="430.7988">description : String[1..1]</text></g><!--class Provenance--><g id="elem_Provenance"><rect codeLine="27" fill="#F1F1F1" height="202.4844" id="Provenance" rx="2.5" ry="2.5" style="stroke:#181818;stroke-width:0.5;" width="226" x="351.5" y="251.1094"/><ellipse cx="422.75" cy="267.1094" fill="#A9DCDF" rx="11" ry="11" style="stroke:#181818;stroke-width:1.0;"/><path d="M424.9375,268.875 L420.7969,268.875 L420.375,269.9063 L420.7969,269.9063 Q421.4063,269.9063 421.6719,270.1406 Q421.9375,270.375 421.9375,270.7656 Q421.9375,271.1406 421.6719,271.375 Q421.4063,271.6094 420.7969,271.6094 L418.5,271.6094 Q417.8906,271.6094 417.6406,271.375 Q417.375,271.1406 417.375,270.75 Q417.375,270.375 417.6563,270.1406 Q417.9219,269.8906 418.5469,269.9063 L421.2188,263.25 L420.1094,263.25 Q419.5,263.25 419.2344,263.0156 Q418.9688,262.7813 418.9688,262.3906 Q418.9688,262.0156 419.2344,261.7813 Q419.5,261.5469 420.1094,261.5469 L423.7813,261.5469 L427.1719,269.9063 Q427.7656,269.9063 427.9531,270.0469 Q428.3438,270.3125 428.3438,270.7656 Q428.3438,271.1406 428.0781,271.375 Q427.8281,271.6094 427.2188,271.6094 L424.9219,271.6094 Q424.3125,271.6094 424.0469,271.375 Q423.7813,271.1406 423.7813,270.75 Q423.7813,270.375 424.0469,270.1406 Q424.3125,269.9063 424.9219,269.9063 L425.3438,269.9063 L424.9375,268.875 Z M424.2188,267.1719 L422.8594,263.7969 L421.4844,267.1719 L424.2188,267.1719 Z " fill="#000000"/><text fill="#000000" font-family="sans-serif" font-size="14" font-style="italic" lengthAdjust="spacing" textLength="75" x="443.25" y="272.8379">Provenance</text><line style="stroke:#181818;stroke-width:0.5;" x1="352.5" x2="576.5" y1="283.1094" y2="283.1094"/><text fill="#000000" font-family="sans-serif" font-size="14" lengthAdjust="spacing" textLength="195" x="357.5" y="301.6426">The provenance of the dataset</text><text fill="#000000" font-family="sans-serif" font-size="14" lengthAdjust="spacing" textLength="114" x="357.5" y="340.8613">source : URL[0..1]</text><text fill="#000000" font-family="sans-serif" font-size="14" lengthAdjust="spacing" textLength="159" x="357.5" y="358.4707">origin : Organization[0..1]</text><text fill="#000000" font-family="sans-serif" font-size="14" lengthAdjust="spacing" textLength="125" x="357.5" y="376.0801">date : DateTime[1..]</text><text fill="#000000" font-family="sans-serif" font-size="14" lengthAdjust="spacing" textLength="192" x="357.5" y="393.6895">previous-date : DateTime[0..1]</text><text fill="#000000" font-family="sans-serif" font-size="14" lengthAdjust="spacing" textLength="198" x="357.5" y="411.2988">generation-period : Period[0..1]</text><text fill="#000000" font-family="sans-serif" font-size="14" lengthAdjust="spacing" textLength="214" x="357.5" y="428.9082">generation-method : Concept[1..*]</text><text fill="#000000" font-family="sans-serif" font-size="14" lengthAdjust="spacing" textLength="118" x="357.5" y="446.5176">format : String[0..*]</text><line style="stroke:#181818;stroke-width:1.0;" x1="352.5" x2="462" y1="317.5234" y2="317.5234"/><text fill="#000000" font-family="sans-serif" font-size="14" lengthAdjust="spacing" textLength="5" x="462" y="322.752">-</text><line style="stroke:#181818;stroke-width:1.0;" x1="467" x2="576.5" y1="317.5234" y2="317.5234"/></g><!--class Use--><g id="elem_Use"><rect codeLine="39" fill="#F1F1F1" height="290.5313" id="Use" rx="2.5" ry="2.5" style="stroke:#181818;stroke-width:0.5;" width="264" x="612.5" y="206.6094"/><ellipse cx="727.75" cy="222.6094" fill="#A9DCDF" rx="11" ry="11" style="stroke:#181818;stroke-width:1.0;"/><path d="M729.9375,224.375 L725.7969,224.375 L725.375,225.4063 L725.7969,225.4063 Q726.4063,225.4063 726.6719,225.6406 Q726.9375,225.875 726.9375,226.2656 Q726.9375,226.6406 726.6719,226.875 Q726.4063,227.1094 725.7969,227.1094 L723.5,227.1094 Q722.8906,227.1094 722.6406,226.875 Q722.375,226.6406 722.375,226.25 Q722.375,225.875 722.6563,225.6406 Q722.9219,225.3906 723.5469,225.4063 L726.2188,218.75 L725.1094,218.75 Q724.5,218.75 724.2344,218.5156 Q723.9688,218.2813 723.9688,217.8906 Q723.9688,217.5156 724.2344,217.2813 Q724.5,217.0469 725.1094,217.0469 L728.7813,217.0469 L732.1719,225.4063 Q732.7656,225.4063 732.9531,225.5469 Q733.3438,225.8125 733.3438,226.2656 Q733.3438,226.6406 733.0781,226.875 Q732.8281,227.1094 732.2188,227.1094 L729.9219,227.1094 Q729.3125,227.1094 729.0469,226.875 Q728.7813,226.6406 728.7813,226.25 Q728.7813,225.875 729.0469,225.6406 Q729.3125,225.4063 729.9219,225.4063 L730.3438,225.4063 L729.9375,224.375 Z M729.2188,222.6719 L727.8594,219.2969 L726.4844,222.6719 L729.2188,222.6719 Z " fill="#000000"/><text fill="#000000" font-family="sans-serif" font-size="14" font-style="italic" lengthAdjust="spacing" textLength="25" x="748.25" y="228.3379">Use</text><line style="stroke:#181818;stroke-width:0.5;" x1="613.5" x2="875.5" y1="238.6094" y2="238.6094"/><text fill="#000000" font-family="sans-serif" font-size="14" lengthAdjust="spacing" textLength="177" x="618.5" y="257.1426">Legal, Use, and Restrictions</text><text fill="#000000" font-family="sans-serif" font-size="14" lengthAdjust="spacing" textLength="207" x="618.5" y="296.3613">classification : Classification[1..1]</text><text fill="#000000" font-family="sans-serif" font-size="14" lengthAdjust="spacing" textLength="125" x="618.5" y="313.9707">consents : URL[0..*]</text><text fill="#000000" font-family="sans-serif" font-size="14" lengthAdjust="spacing" textLength="252" x="618.5" y="331.5801">privacy-indicators : PrivacyIndicator[0..*]</text><text fill="#000000" font-family="sans-serif" font-size="14" lengthAdjust="spacing" textLength="222" x="618.5" y="349.1895">processing-included : Location[0..*]</text><text fill="#000000" font-family="sans-serif" font-size="14" lengthAdjust="spacing" textLength="225" x="618.5" y="366.7988">processing-excluded : Location[0..*]</text><text fill="#000000" font-family="sans-serif" font-size="14" lengthAdjust="spacing" textLength="195" x="618.5" y="384.4082">storage-allowed : Location[0..*]</text><text fill="#000000" font-family="sans-serif" font-size="14" lengthAdjust="spacing" textLength="208" x="618.5" y="402.0176">storage-forbidden : Location[0..*]</text><text fill="#000000" font-family="sans-serif" font-size="14" lengthAdjust="spacing" textLength="125" x="618.5" y="419.627">license : String[0..1]</text><text fill="#000000" font-family="sans-serif" font-size="14" lengthAdjust="spacing" textLength="206" x="618.5" y="437.2363">intended-purpose : Concept[0..*]</text><text fill="#000000" font-family="sans-serif" font-size="14" lengthAdjust="spacing" textLength="136" x="618.5" y="454.8457">copyright : String[0..*]</text><text fill="#000000" font-family="sans-serif" font-size="14" lengthAdjust="spacing" textLength="118" x="618.5" y="472.4551">patent : String[0..*]</text><text fill="#000000" font-family="sans-serif" font-size="14" lengthAdjust="spacing" textLength="142" x="618.5" y="490.0645">trademark : String[0..*]</text><line style="stroke:#181818;stroke-width:1.0;" x1="613.5" x2="739.5" y1="273.0234" y2="273.0234"/><text fill="#000000" font-family="sans-serif" font-size="14" lengthAdjust="spacing" textLength="10" x="739.5" y="278.252">--</text><line style="stroke:#181818;stroke-width:1.0;" x1="749.5" x2="875.5" y1="273.0234" y2="273.0234"/></g><!--reverse link Metadata to Source--><g id="link_Metadata_Source"><path codeLine="11" d="M395.9218,154.3741 C373.4718,173.1341 356.9,186.9994 333.5,206.6094 C310.48,225.8994 285.75,246.6594 262.42,266.2494 " fill="none" id="Metadata-backto-Source" style="stroke:#181818;stroke-width:1.0;"/><polygon fill="#181818" points="405.13,146.6794,397.961,147.4573,395.9218,154.3741,403.0908,153.5961,405.13,146.6794" style="stroke:#181818;stroke-width:1.0;"/></g><!--reverse link Metadata to Provenance--><g id="link_Metadata_Provenance"><path codeLine="12" d="M464.5,158.6894 C464.5,188.3594 464.5,215.1394 464.5,250.9394 " fill="none" id="Metadata-backto-Provenance" style="stroke:#181818;stroke-width:1.0;"/><polygon fill="#181818" points="464.5,146.6894,460.5,152.6894,464.5,158.6894,468.5,152.6894,464.5,146.6894" style="stroke:#181818;stroke-width:1.0;"/></g><!--reverse link Metadata to Use--><g id="link_Metadata_Use"><path codeLine="13" d="M534.8617,154.2738 C557.1617,172.7438 573.14,186.4794 595.5,206.6094 C600.99,211.5494 606.55,216.6294 612.15,221.7894 " fill="none" id="Metadata-backto-Use" style="stroke:#181818;stroke-width:1.0;"/><polygon fill="#181818" points="525.62,146.6194,527.6894,153.5272,534.8617,154.2738,532.7923,147.366,525.62,146.6194" style="stroke:#181818;stroke-width:1.0;"/></g><!--reverse link Data to Metadata--><g id="link_Data_Metadata"><path codeLine="14" d="M331.71,96.1094 C343.46,96.1094 349.2,96.1094 360.95,96.1094 " fill="none" id="Data-backto-Metadata" style="stroke:#181818;stroke-width:1.0;"/><polygon fill="#181818" points="325.71,96.1094,334.71,100.1094,330.71,96.1094,334.71,92.1094,325.71,96.1094" style="stroke:#181818;stroke-width:1.0;"/></g><!--SRC=[XLF1RXiX4BtlLt2sGfHSSyWblLXorSXDJb4F1CRhKJ6iODQfM-NVEx1UWsEQxWdDUs_WlPab90lYYo8b7eFVWrDEGzU18wH3hdUTUeqKb2QXhOfHV0LI9Wd-T8A_wCUWGTo9x_dmSdjzVViZ8yEf8QEbUyKOOuAUurnxxxfJzuKq_it9Orjn2PIE3P1xLbLfOKFolktdUC7aPccIzGr25BG5aTGHI2XdPgD-KoDP9FdBXps4YDwbC2YWwokhb89krD6a1DRBgcIzLZIrULwlNcuADyOH0fU_XLuv_9rPIRYOS0DH1noeyOJt2zjLV9Fr9tPLZUmVFkNvqCyVw0Fsw3u-iE3SB8bu3F24kpprULLWZtwCyYEZQ7jm4793EK10dt9xp8SsQGUqpQG7ptO6gdBQ-B1JL2AwoSXbH6c9fcnMq2jxbGfNUHVMm4JKwQ9OefcooLfUeTCG7yuArQ0rgtdTOibnCSU1UwKF4fr9AXzY_eDoSJdNplXU0z_XUfPeEnf8nbV7FMeJuTTdnCWNg1waijQ__O_4URwYuJ-dJREemUK_lUGzRxGZSFm8EOnXy9apZwlejHyEl5ZRYubbHxmfhedm90tiLFZP6FHV]--></g></svg>