<?xml version="1.0" encoding="us-ascii" standalone="no"?><svg xmlns="http://www.w3.org/2000/svg" xmlns:xlink="http://www.w3.org/1999/xlink" contentStyleType="text/css" height="1161px" preserveAspectRatio="none" style="width:6162px;height:1161px;background:#FFFFFF;" version="1.1" viewBox="0 0 6162 1161" width="6162px" zoomAndPan="magnify"><defs/><g><text fill="#000000" font-family="sans-serif" font-size="14" font-weight="bold" lengthAdjust="spacing" textLength="218" x="2965.25" y="24.5332">Data Provenance - August 2023</text><!--class Data--><g id="elem_Data"><rect codeLine="3" fill="#F1F1F1" height="48" id="Data" rx="2.5" ry="2.5" style="stroke:#181818;stroke-width:0.5;" width="62" x="2056.5" y="124.6094"/><ellipse cx="2071.5" cy="140.6094" fill="#ADD1B2" rx="11" ry="11" style="stroke:#181818;stroke-width:1.0;"/><path d="M2070.3594,141.4063 L2070.3594,143.9063 L2074.6875,143.9063 L2074.6875,142.9844 Q2074.6875,142.375 2074.9219,142.1094 Q2075.1719,141.8438 2075.5469,141.8438 Q2075.9219,141.8438 2076.1563,142.1094 Q2076.3906,142.375 2076.3906,142.9844 L2076.3906,145.6094 L2068.3906,145.6094 Q2067.7656,145.6094 2067.5,145.375 Q2067.25,145.1406 2067.25,144.75 Q2067.25,144.375 2067.5156,144.1406 Q2067.7813,143.9063 2068.3906,143.9063 L2068.6563,143.9063 L2068.6563,137.25 L2068.3906,137.25 Q2067.7656,137.25 2067.5,137.0156 Q2067.25,136.7813 2067.25,136.3906 Q2067.25,136.0156 2067.5,135.7813 Q2067.7656,135.5469 2068.3906,135.5469 L2076.0156,135.5469 L2076.0156,138.1406 Q2076.0156,138.75 2075.7813,139.0156 Q2075.5625,139.2656 2075.1719,139.2656 Q2074.7969,139.2656 2074.5625,139.0156 Q2074.3281,138.75 2074.3281,138.1406 L2074.3281,137.25 L2070.3594,137.25 L2070.3594,139.7031 L2071.8438,139.7031 Q2071.8438,139.0469 2071.9688,138.8594 Q2072.2344,138.4531 2072.7031,138.4531 Q2073.0781,138.4531 2073.3125,138.7188 Q2073.5469,138.9688 2073.5469,139.5781 L2073.5469,141.5469 Q2073.5469,142.0938 2073.4219,142.2813 Q2073.1563,142.6719 2072.7031,142.6719 Q2072.2344,142.6719 2071.9688,142.2656 Q2071.8438,142.0781 2071.8438,141.4063 L2070.3594,141.4063 Z " fill="#000000"/><text fill="#000000" font-family="sans-serif" font-size="14" lengthAdjust="spacing" textLength="30" x="2085.5" y="146.3379">Data</text><line style="stroke:#181818;stroke-width:0.5;" x1="2057.5" x2="2117.5" y1="156.6094" y2="156.6094"/><line style="stroke:#181818;stroke-width:0.5;" x1="2057.5" x2="2117.5" y1="164.6094" y2="164.6094"/></g><!--class Metadata--><g id="elem_Metadata"><rect codeLine="5" fill="#F1F1F1" height="206.4844" id="Metadata" rx="2.5" ry="2.5" style="stroke:#181818;stroke-width:0.5;" width="1461" x="2154" y="45.6094"/><ellipse cx="2850.25" cy="61.6094" fill="#A9DCDF" rx="11" ry="11" style="stroke:#181818;stroke-width:1.0;"/><path d="M2852.4375,63.375 L2848.2969,63.375 L2847.875,64.4063 L2848.2969,64.4063 Q2848.9063,64.4063 2849.1719,64.6406 Q2849.4375,64.875 2849.4375,65.2656 Q2849.4375,65.6406 2849.1719,65.875 Q2848.9063,66.1094 2848.2969,66.1094 L2846,66.1094 Q2845.3906,66.1094 2845.1406,65.875 Q2844.875,65.6406 2844.875,65.25 Q2844.875,64.875 2845.1563,64.6406 Q2845.4219,64.3906 2846.0469,64.4063 L2848.7188,57.75 L2847.6094,57.75 Q2847,57.75 2846.7344,57.5156 Q2846.4688,57.2813 2846.4688,56.8906 Q2846.4688,56.5156 2846.7344,56.2813 Q2847,56.0469 2847.6094,56.0469 L2851.2813,56.0469 L2854.6719,64.4063 Q2855.2656,64.4063 2855.4531,64.5469 Q2855.8438,64.8125 2855.8438,65.2656 Q2855.8438,65.6406 2855.5781,65.875 Q2855.3281,66.1094 2854.7188,66.1094 L2852.4219,66.1094 Q2851.8125,66.1094 2851.5469,65.875 Q2851.2813,65.6406 2851.2813,65.25 Q2851.2813,64.875 2851.5469,64.6406 Q2851.8125,64.4063 2852.4219,64.4063 L2852.8438,64.4063 L2852.4375,63.375 Z M2851.7188,61.6719 L2850.3594,58.2969 L2848.9844,61.6719 L2851.7188,61.6719 Z " fill="#000000"/><text fill="#000000" font-family="sans-serif" font-size="14" font-style="italic" lengthAdjust="spacing" textLength="60" x="2870.75" y="67.3379">Metadata</text><line style="stroke:#181818;stroke-width:0.5;" x1="2155" x2="3614" y1="77.6094" y2="77.6094"/><text fill="#000000" font-family="sans-serif" font-size="14" lengthAdjust="spacing" textLength="612" x="2160" y="96.1426">identifier : String[1..1] - A unique label identifying the provenance metadata of the current dataset</text><text fill="#000000" font-family="sans-serif" font-size="14" lengthAdjust="spacing" textLength="750" x="2160" y="113.752">lineage : WhereFrom[0..*] - Identifiers of pointers of metadata representing the data which comprise the current dataset</text><text fill="#000000" font-family="sans-serif" font-size="14" lengthAdjust="spacing" textLength="1449" x="2160" y="131.3613">legalRights : LegalRights[0..*] - Identifies the legal or regulatory framework applicable to the current dataset, along with the required data attributions, associated copyright or trademark, and localization and processing requirements</text><text fill="#000000" font-family="sans-serif" font-size="14" lengthAdjust="spacing" textLength="1022" x="2160" y="148.9707">privacyProtection : PrivacyProtection[0..*] - Identifies any types of sensitive data associated with the current dataset and any privacy enhancing techniques applied</text><text fill="#000000" font-family="sans-serif" font-size="14" lengthAdjust="spacing" textLength="556" x="2160" y="166.5801">generationData : dateTime[1..1] - Timestamp marking the creation of the current dataset</text><text fill="#000000" font-family="sans-serif" font-size="14" lengthAdjust="spacing" textLength="1341" x="2160" y="184.1895">dataType : DataType[1..*] - Identifies the data type contained in the current set, and provides insights into how the data is organized, its potential use cases, and the challenges associated with handling and using it</text><text fill="#000000" font-family="sans-serif" font-size="14" lengthAdjust="spacing" textLength="1138" x="2160" y="201.7988">intendedUseAndRestrictions : UseAndRestrictions[0..*] - Identifies the intended use of the data and which downstream audiences should not be allowed access to the current dataset</text><line style="stroke:#181818;stroke-width:0.5;" x1="2155" x2="3614" y1="208.875" y2="208.875"/><text fill="#000000" font-family="sans-serif" font-size="14" lengthAdjust="spacing" textLength="666" x="2160" y="227.4082">source : Source[1..1] Identifies the origin (person, organization, system, device, etc) of the current dataset</text><text fill="#000000" font-family="sans-serif" font-size="14" lengthAdjust="spacing" textLength="851" x="2160" y="245.0176">generationMethod : GenerationMethod[1..*] - Identifies how the data was produced (data mining, machine-generated, IoT sensors, etc.)</text></g><!--class WhereFrom--><g id="elem_WhereFrom"><rect codeLine="26" fill="#F1F1F1" height="118.4375" id="WhereFrom" rx="2.5" ry="2.5" style="stroke:#181818;stroke-width:0.5;" width="587" x="7" y="373.6094"/><ellipse cx="258.25" cy="389.6094" fill="#A9DCDF" rx="11" ry="11" style="stroke:#181818;stroke-width:1.0;"/><path d="M260.4375,391.375 L256.2969,391.375 L255.875,392.4063 L256.2969,392.4063 Q256.9063,392.4063 257.1719,392.6406 Q257.4375,392.875 257.4375,393.2656 Q257.4375,393.6406 257.1719,393.875 Q256.9063,394.1094 256.2969,394.1094 L254,394.1094 Q253.3906,394.1094 253.1406,393.875 Q252.875,393.6406 252.875,393.25 Q252.875,392.875 253.1563,392.6406 Q253.4219,392.3906 254.0469,392.4063 L256.7188,385.75 L255.6094,385.75 Q255,385.75 254.7344,385.5156 Q254.4688,385.2813 254.4688,384.8906 Q254.4688,384.5156 254.7344,384.2813 Q255,384.0469 255.6094,384.0469 L259.2813,384.0469 L262.6719,392.4063 Q263.2656,392.4063 263.4531,392.5469 Q263.8438,392.8125 263.8438,393.2656 Q263.8438,393.6406 263.5781,393.875 Q263.3281,394.1094 262.7188,394.1094 L260.4219,394.1094 Q259.8125,394.1094 259.5469,393.875 Q259.2813,393.6406 259.2813,393.25 Q259.2813,392.875 259.5469,392.6406 Q259.8125,392.4063 260.4219,392.4063 L260.8438,392.4063 L260.4375,391.375 Z M259.7188,389.6719 L258.3594,386.2969 L256.9844,389.6719 L259.7188,389.6719 Z " fill="#000000"/><text fill="#000000" font-family="sans-serif" font-size="14" font-style="italic" lengthAdjust="spacing" textLength="76" x="278.75" y="395.3379">WhereFrom</text><line style="stroke:#181818;stroke-width:0.5;" x1="8" x2="593" y1="405.6094" y2="405.6094"/><text fill="#000000" font-family="sans-serif" font-size="14" lengthAdjust="spacing" textLength="575" x="13" y="424.1426">Identifiers of pointers of metadata representing the data which comprise the current dataset</text><line style="stroke:#181818;stroke-width:1.0;" x1="8" x2="593" y1="431.2188" y2="431.2188"/><text fill="#000000" font-family="sans-serif" font-size="14" lengthAdjust="spacing" textLength="455" x="13" y="449.752">uniqueId : String[0..1] - Universal Provenance Metadata Unique Identifier</text><text fill="#000000" font-family="sans-serif" font-size="14" lengthAdjust="spacing" textLength="267" x="13" y="467.3613">blockId : String[0..1] - Blockchain ledger ID</text><text fill="#000000" font-family="sans-serif" font-size="14" lengthAdjust="spacing" textLength="191" x="13" y="484.9707">otherId : String[0..1] - Other ID</text></g><!--class Source--><g id="elem_Source"><rect codeLine="34" fill="#F1F1F1" height="224.0938" id="Source" rx="2.5" ry="2.5" style="stroke:#181818;stroke-width:0.5;" width="542" x="629.5" y="320.6094"/><ellipse cx="873.75" cy="336.6094" fill="#A9DCDF" rx="11" ry="11" style="stroke:#181818;stroke-width:1.0;"/><path d="M875.9375,338.375 L871.7969,338.375 L871.375,339.4063 L871.7969,339.4063 Q872.4063,339.4063 872.6719,339.6406 Q872.9375,339.875 872.9375,340.2656 Q872.9375,340.6406 872.6719,340.875 Q872.4063,341.1094 871.7969,341.1094 L869.5,341.1094 Q868.8906,341.1094 868.6406,340.875 Q868.375,340.6406 868.375,340.25 Q868.375,339.875 868.6563,339.6406 Q868.9219,339.3906 869.5469,339.4063 L872.2188,332.75 L871.1094,332.75 Q870.5,332.75 870.2344,332.5156 Q869.9688,332.2813 869.9688,331.8906 Q869.9688,331.5156 870.2344,331.2813 Q870.5,331.0469 871.1094,331.0469 L874.7813,331.0469 L878.1719,339.4063 Q878.7656,339.4063 878.9531,339.5469 Q879.3438,339.8125 879.3438,340.2656 Q879.3438,340.6406 879.0781,340.875 Q878.8281,341.1094 878.2188,341.1094 L875.9219,341.1094 Q875.3125,341.1094 875.0469,340.875 Q874.7813,340.6406 874.7813,340.25 Q874.7813,339.875 875.0469,339.6406 Q875.3125,339.4063 875.9219,339.4063 L876.3438,339.4063 L875.9375,338.375 Z M875.2188,336.6719 L873.8594,333.2969 L872.4844,336.6719 L875.2188,336.6719 Z " fill="#000000"/><text fill="#000000" font-family="sans-serif" font-size="14" font-style="italic" lengthAdjust="spacing" textLength="45" x="894.25" y="342.3379">Source</text><line style="stroke:#181818;stroke-width:0.5;" x1="630.5" x2="1170.5" y1="352.6094" y2="352.6094"/><text fill="#000000" font-family="sans-serif" font-size="14" lengthAdjust="spacing" textLength="530" x="635.5" y="371.1426">Identifies the origin (person, organization, system, device, etc) of the current dataset</text><line style="stroke:#181818;stroke-width:1.0;" x1="630.5" x2="1170.5" y1="378.2188" y2="378.2188"/><text fill="#000000" font-family="sans-serif" font-size="14" lengthAdjust="spacing" textLength="222" x="635.5" y="396.752">userName : String[0..1] - Username</text><text fill="#000000" font-family="sans-serif" font-size="14" lengthAdjust="spacing" textLength="326" x="635.5" y="414.3613">organizationName : String[0..1] - Organization name</text><text fill="#000000" font-family="sans-serif" font-size="14" lengthAdjust="spacing" textLength="241" x="635.5" y="431.9707">software : String[0..1] - Software name</text><text fill="#000000" font-family="sans-serif" font-size="14" lengthAdjust="spacing" textLength="223" x="635.5" y="449.5801">system : String[0..1] - System name</text><text fill="#000000" font-family="sans-serif" font-size="14" lengthAdjust="spacing" textLength="239" x="635.5" y="467.1895">machine : String[0..1] - Machine name</text><text fill="#000000" font-family="sans-serif" font-size="14" lengthAdjust="spacing" textLength="290" x="635.5" y="484.7988">sensor : String[0..1] - Sensor/IoT device name</text><text fill="#000000" font-family="sans-serif" font-size="14" lengthAdjust="spacing" textLength="170" x="635.5" y="502.4082">file : String[0..1] - Filename</text><text fill="#000000" font-family="sans-serif" font-size="14" lengthAdjust="spacing" textLength="282" x="635.5" y="520.0176">ip : String[0..1] - Network name or IP address</text><text fill="#000000" font-family="sans-serif" font-size="14" lengthAdjust="spacing" textLength="160" x="635.5" y="537.627">other : String[0..1] - other</text></g><!--class LegalRights--><g id="elem_LegalRights"><rect codeLine="48" fill="#F1F1F1" height="136.0469" id="LegalRights" rx="2.5" ry="2.5" style="stroke:#181818;stroke-width:0.5;" width="1262" x="1206.5" y="364.6094"/><ellipse cx="1795.75" cy="380.6094" fill="#A9DCDF" rx="11" ry="11" style="stroke:#181818;stroke-width:1.0;"/><path d="M1797.9375,382.375 L1793.7969,382.375 L1793.375,383.4063 L1793.7969,383.4063 Q1794.4063,383.4063 1794.6719,383.6406 Q1794.9375,383.875 1794.9375,384.2656 Q1794.9375,384.6406 1794.6719,384.875 Q1794.4063,385.1094 1793.7969,385.1094 L1791.5,385.1094 Q1790.8906,385.1094 1790.6406,384.875 Q1790.375,384.6406 1790.375,384.25 Q1790.375,383.875 1790.6563,383.6406 Q1790.9219,383.3906 1791.5469,383.4063 L1794.2188,376.75 L1793.1094,376.75 Q1792.5,376.75 1792.2344,376.5156 Q1791.9688,376.2813 1791.9688,375.8906 Q1791.9688,375.5156 1792.2344,375.2813 Q1792.5,375.0469 1793.1094,375.0469 L1796.7813,375.0469 L1800.1719,383.4063 Q1800.7656,383.4063 1800.9531,383.5469 Q1801.3438,383.8125 1801.3438,384.2656 Q1801.3438,384.6406 1801.0781,384.875 Q1800.8281,385.1094 1800.2188,385.1094 L1797.9219,385.1094 Q1797.3125,385.1094 1797.0469,384.875 Q1796.7813,384.6406 1796.7813,384.25 Q1796.7813,383.875 1797.0469,383.6406 Q1797.3125,383.4063 1797.9219,383.4063 L1798.3438,383.4063 L1797.9375,382.375 Z M1797.2188,380.6719 L1795.8594,377.2969 L1794.4844,380.6719 L1797.2188,380.6719 Z " fill="#000000"/><text fill="#000000" font-family="sans-serif" font-size="14" font-style="italic" lengthAdjust="spacing" textLength="75" x="1816.25" y="386.3379">LegalRights</text><line style="stroke:#181818;stroke-width:0.5;" x1="1207.5" x2="2467.5" y1="396.6094" y2="396.6094"/><text fill="#000000" font-family="sans-serif" font-size="14" lengthAdjust="spacing" textLength="1250" x="1212.5" y="415.1426">Identifies the legal or regulatory framework applicable to the current dataset, along with the required data attributions, associated copyright or trademark, and localization and processing requirements</text><line style="stroke:#181818;stroke-width:1.0;" x1="1207.5" x2="2467.5" y1="422.2188" y2="422.2188"/><text fill="#000000" font-family="sans-serif" font-size="14" lengthAdjust="spacing" textLength="300" x="1212.5" y="440.752">attributionRights : String[0..1] - Attribution rights</text><text fill="#000000" font-family="sans-serif" font-size="14" lengthAdjust="spacing" textLength="305" x="1212.5" y="458.3613">ipRights : String[0..1] - Copyrights or trademarks</text><text fill="#000000" font-family="sans-serif" font-size="14" lengthAdjust="spacing" textLength="519" x="1212.5" y="475.9707">locationRestriction : String[0..1] - Required data storage or processing geolocation</text><text fill="#000000" font-family="sans-serif" font-size="14" lengthAdjust="spacing" textLength="414" x="1212.5" y="493.5801">laws : LawsAndRegulations[0..1] - Applicable laws and regulations</text></g><!--class PrivacyProtection--><g id="elem_PrivacyProtection"><rect codeLine="90" fill="#F1F1F1" height="118.4375" id="PrivacyProtection" rx="2.5" ry="2.5" style="stroke:#181818;stroke-width:0.5;" width="761" x="2504" y="373.6094"/><ellipse cx="2825.75" cy="389.6094" fill="#A9DCDF" rx="11" ry="11" style="stroke:#181818;stroke-width:1.0;"/><path d="M2827.9375,391.375 L2823.7969,391.375 L2823.375,392.4063 L2823.7969,392.4063 Q2824.4063,392.4063 2824.6719,392.6406 Q2824.9375,392.875 2824.9375,393.2656 Q2824.9375,393.6406 2824.6719,393.875 Q2824.4063,394.1094 2823.7969,394.1094 L2821.5,394.1094 Q2820.8906,394.1094 2820.6406,393.875 Q2820.375,393.6406 2820.375,393.25 Q2820.375,392.875 2820.6563,392.6406 Q2820.9219,392.3906 2821.5469,392.4063 L2824.2188,385.75 L2823.1094,385.75 Q2822.5,385.75 2822.2344,385.5156 Q2821.9688,385.2813 2821.9688,384.8906 Q2821.9688,384.5156 2822.2344,384.2813 Q2822.5,384.0469 2823.1094,384.0469 L2826.7813,384.0469 L2830.1719,392.4063 Q2830.7656,392.4063 2830.9531,392.5469 Q2831.3438,392.8125 2831.3438,393.2656 Q2831.3438,393.6406 2831.0781,393.875 Q2830.8281,394.1094 2830.2188,394.1094 L2827.9219,394.1094 Q2827.3125,394.1094 2827.0469,393.875 Q2826.7813,393.6406 2826.7813,393.25 Q2826.7813,392.875 2827.0469,392.6406 Q2827.3125,392.4063 2827.9219,392.4063 L2828.3438,392.4063 L2827.9375,391.375 Z M2827.2188,389.6719 L2825.8594,386.2969 L2824.4844,389.6719 L2827.2188,389.6719 Z " fill="#000000"/><text fill="#000000" font-family="sans-serif" font-size="14" font-style="italic" lengthAdjust="spacing" textLength="109" x="2846.25" y="395.3379">PrivacyProtection</text><line style="stroke:#181818;stroke-width:0.5;" x1="2505" x2="3264" y1="405.6094" y2="405.6094"/><text fill="#000000" font-family="sans-serif" font-size="14" lengthAdjust="spacing" textLength="749" x="2510" y="424.1426">Identifies any types of sensitive data associated with the current dataset and any privacy enhancing techniques applied</text><line style="stroke:#181818;stroke-width:1.0;" x1="2505" x2="3264" y1="431.2188" y2="431.2188"/><text fill="#000000" font-family="sans-serif" font-size="14" lengthAdjust="spacing" textLength="391" x="2510" y="449.752">protectedDataClassification : ProtectedDataClassification[0..1]</text><text fill="#000000" font-family="sans-serif" font-size="14" lengthAdjust="spacing" textLength="229" x="2510" y="467.3613">appliedPrivacy : AppliedPrivacy[0..1]</text><text fill="#000000" font-family="sans-serif" font-size="14" lengthAdjust="spacing" textLength="160" x="2510" y="484.9707">otherPrivacy : String[0..1]</text></g><!--class DataType--><g id="elem_DataType"><rect codeLine="114" fill="#F1F1F1" height="136.0469" id="DataType" rx="2.5" ry="2.5" style="stroke:#181818;stroke-width:0.5;" width="1177" x="3300" y="364.6094"/><ellipse cx="3853.25" cy="380.6094" fill="#A9DCDF" rx="11" ry="11" style="stroke:#181818;stroke-width:1.0;"/><path d="M3855.4375,382.375 L3851.2969,382.375 L3850.875,383.4063 L3851.2969,383.4063 Q3851.9063,383.4063 3852.1719,383.6406 Q3852.4375,383.875 3852.4375,384.2656 Q3852.4375,384.6406 3852.1719,384.875 Q3851.9063,385.1094 3851.2969,385.1094 L3849,385.1094 Q3848.3906,385.1094 3848.1406,384.875 Q3847.875,384.6406 3847.875,384.25 Q3847.875,383.875 3848.1563,383.6406 Q3848.4219,383.3906 3849.0469,383.4063 L3851.7188,376.75 L3850.6094,376.75 Q3850,376.75 3849.7344,376.5156 Q3849.4688,376.2813 3849.4688,375.8906 Q3849.4688,375.5156 3849.7344,375.2813 Q3850,375.0469 3850.6094,375.0469 L3854.2813,375.0469 L3857.6719,383.4063 Q3858.2656,383.4063 3858.4531,383.5469 Q3858.8438,383.8125 3858.8438,384.2656 Q3858.8438,384.6406 3858.5781,384.875 Q3858.3281,385.1094 3857.7188,385.1094 L3855.4219,385.1094 Q3854.8125,385.1094 3854.5469,384.875 Q3854.2813,384.6406 3854.2813,384.25 Q3854.2813,383.875 3854.5469,383.6406 Q3854.8125,383.4063 3855.4219,383.4063 L3855.8438,383.4063 L3855.4375,382.375 Z M3854.7188,380.6719 L3853.3594,377.2969 L3851.9844,380.6719 L3854.7188,380.6719 Z " fill="#000000"/><text fill="#000000" font-family="sans-serif" font-size="14" font-style="italic" lengthAdjust="spacing" textLength="62" x="3873.75" y="386.3379">DataType</text><line style="stroke:#181818;stroke-width:0.5;" x1="3301" x2="4476" y1="396.6094" y2="396.6094"/><text fill="#000000" font-family="sans-serif" font-size="14" lengthAdjust="spacing" textLength="1165" x="3306" y="415.1426">Identifies the data type contained in the current set, and provides insights into how the data is organized, its potential use cases, and the challenges associated with handling and using it</text><line style="stroke:#181818;stroke-width:1.0;" x1="3301" x2="4476" y1="422.2188" y2="422.2188"/><text fill="#000000" font-family="sans-serif" font-size="14" lengthAdjust="spacing" textLength="539" x="3306" y="440.752">structuredMediaType : MediaType[0..1] http://www.iana.org/assignments/media-types/</text><text fill="#000000" font-family="sans-serif" font-size="14" lengthAdjust="spacing" textLength="476" x="3306" y="458.3613">structuredOther : String[0..1] - structured types not defined by Media-Types</text><text fill="#000000" font-family="sans-serif" font-size="14" lengthAdjust="spacing" textLength="557" x="3306" y="475.9707">unStructuredMediaType : MediaType[0..1] http://www.iana.org/assignments/media-types/</text><text fill="#000000" font-family="sans-serif" font-size="14" lengthAdjust="spacing" textLength="510" x="3306" y="493.5801">unStructuredOther : String[0..1] - unstructured types not defined by Media-Types</text></g><!--class GenerationMethod--><g id="elem_GenerationMethod"><rect codeLine="125" fill="#F1F1F1" height="241.7031" id="GenerationMethod" rx="2.5" ry="2.5" style="stroke:#181818;stroke-width:0.5;" width="576" x="4512.5" y="311.6094"/><ellipse cx="4736.75" cy="327.6094" fill="#A9DCDF" rx="11" ry="11" style="stroke:#181818;stroke-width:1.0;"/><path d="M4738.9375,329.375 L4734.7969,329.375 L4734.375,330.4063 L4734.7969,330.4063 Q4735.4063,330.4063 4735.6719,330.6406 Q4735.9375,330.875 4735.9375,331.2656 Q4735.9375,331.6406 4735.6719,331.875 Q4735.4063,332.1094 4734.7969,332.1094 L4732.5,332.1094 Q4731.8906,332.1094 4731.6406,331.875 Q4731.375,331.6406 4731.375,331.25 Q4731.375,330.875 4731.6563,330.6406 Q4731.9219,330.3906 4732.5469,330.4063 L4735.2188,323.75 L4734.1094,323.75 Q4733.5,323.75 4733.2344,323.5156 Q4732.9688,323.2813 4732.9688,322.8906 Q4732.9688,322.5156 4733.2344,322.2813 Q4733.5,322.0469 4734.1094,322.0469 L4737.7813,322.0469 L4741.1719,330.4063 Q4741.7656,330.4063 4741.9531,330.5469 Q4742.3438,330.8125 4742.3438,331.2656 Q4742.3438,331.6406 4742.0781,331.875 Q4741.8281,332.1094 4741.2188,332.1094 L4738.9219,332.1094 Q4738.3125,332.1094 4738.0469,331.875 Q4737.7813,331.6406 4737.7813,331.25 Q4737.7813,330.875 4738.0469,330.6406 Q4738.3125,330.4063 4738.9219,330.4063 L4739.3438,330.4063 L4738.9375,329.375 Z M4738.2188,327.6719 L4736.8594,324.2969 L4735.4844,327.6719 L4738.2188,327.6719 Z " fill="#000000"/><text fill="#000000" font-family="sans-serif" font-size="14" font-style="italic" lengthAdjust="spacing" textLength="119" x="4757.25" y="333.3379">GenerationMethod</text><line style="stroke:#181818;stroke-width:0.5;" x1="4513.5" x2="5087.5" y1="343.6094" y2="343.6094"/><text fill="#000000" font-family="sans-serif" font-size="14" lengthAdjust="spacing" textLength="564" x="4518.5" y="362.1426">Identifies how the data was produced (data mining, machine-generated, IoT sensors, etc.)</text><line style="stroke:#181818;stroke-width:1.0;" x1="4513.5" x2="5087.5" y1="369.2188" y2="369.2188"/><text fill="#000000" font-family="sans-serif" font-size="14" lengthAdjust="spacing" textLength="98" x="4518.5" y="387.752">web : Web[0..1]</text><text fill="#000000" font-family="sans-serif" font-size="14" lengthAdjust="spacing" textLength="119" x="4518.5" y="405.3613">feeds : Feeds[0..1]</text><text fill="#000000" font-family="sans-serif" font-size="14" lengthAdjust="spacing" textLength="188" x="4518.5" y="422.9707">syndication : Syndication[0..1]</text><text fill="#000000" font-family="sans-serif" font-size="14" lengthAdjust="spacing" textLength="184" x="4518.5" y="440.5801">dataMining : DataMining[0..1]</text><text fill="#000000" font-family="sans-serif" font-size="14" lengthAdjust="spacing" textLength="286" x="4518.5" y="458.1895">machineGenerated : MachineGenerated[0..1]</text><text fill="#000000" font-family="sans-serif" font-size="14" lengthAdjust="spacing" textLength="132" x="4518.5" y="475.7988">sensor : Sensor[0..1]</text><text fill="#000000" font-family="sans-serif" font-size="14" lengthAdjust="spacing" textLength="194" x="4518.5" y="493.4082">socialMedia : SocialMedia[0..1]</text><text fill="#000000" font-family="sans-serif" font-size="14" lengthAdjust="spacing" textLength="237" x="4518.5" y="511.0176">userGenerated : UserGenerated[0..1]</text><text fill="#000000" font-family="sans-serif" font-size="14" lengthAdjust="spacing" textLength="303" x="4518.5" y="528.627">primaryUserSourced : PrimaryUserSourced[0..1]</text><text fill="#000000" font-family="sans-serif" font-size="14" lengthAdjust="spacing" textLength="281" x="4518.5" y="546.2363">other : String[0..1] - Other method not coded</text></g><!--class UseAndRestrictions--><g id="elem_UseAndRestrictions"><rect codeLine="221" fill="#F1F1F1" height="153.6563" id="UseAndRestrictions" rx="2.5" ry="2.5" style="stroke:#181818;stroke-width:0.5;" width="496" x="5547.5" y="355.6094"/><ellipse cx="5729.25" cy="371.6094" fill="#A9DCDF" rx="11" ry="11" style="stroke:#181818;stroke-width:1.0;"/><path d="M5731.4375,373.375 L5727.2969,373.375 L5726.875,374.4063 L5727.2969,374.4063 Q5727.9063,374.4063 5728.1719,374.6406 Q5728.4375,374.875 5728.4375,375.2656 Q5728.4375,375.6406 5728.1719,375.875 Q5727.9063,376.1094 5727.2969,376.1094 L5725,376.1094 Q5724.3906,376.1094 5724.1406,375.875 Q5723.875,375.6406 5723.875,375.25 Q5723.875,374.875 5724.1563,374.6406 Q5724.4219,374.3906 5725.0469,374.4063 L5727.7188,367.75 L5726.6094,367.75 Q5726,367.75 5725.7344,367.5156 Q5725.4688,367.2813 5725.4688,366.8906 Q5725.4688,366.5156 5725.7344,366.2813 Q5726,366.0469 5726.6094,366.0469 L5730.2813,366.0469 L5733.6719,374.4063 Q5734.2656,374.4063 5734.4531,374.5469 Q5734.8438,374.8125 5734.8438,375.2656 Q5734.8438,375.6406 5734.5781,375.875 Q5734.3281,376.1094 5733.7188,376.1094 L5731.4219,376.1094 Q5730.8125,376.1094 5730.5469,375.875 Q5730.2813,375.6406 5730.2813,375.25 Q5730.2813,374.875 5730.5469,374.6406 Q5730.8125,374.4063 5731.4219,374.4063 L5731.8438,374.4063 L5731.4375,373.375 Z M5730.7188,371.6719 L5729.3594,368.2969 L5727.9844,371.6719 L5730.7188,371.6719 Z " fill="#000000"/><text fill="#000000" font-family="sans-serif" font-size="14" font-style="italic" lengthAdjust="spacing" textLength="124" x="5749.75" y="377.3379">UseAndRestrictions</text><line style="stroke:#181818;stroke-width:0.5;" x1="5548.5" x2="6042.5" y1="387.6094" y2="387.6094"/><text fill="#000000" font-family="sans-serif" font-size="14" lengthAdjust="spacing" textLength="385" x="5553.5" y="406.1426">Identifies the intended use of the data and which downstream</text><text fill="#000000" font-family="sans-serif" font-size="14" lengthAdjust="spacing" textLength="394" x="5553.5" y="423.752">audiences should not be allowed access to the current dataset</text><line style="stroke:#181818;stroke-width:1.0;" x1="5548.5" x2="6042.5" y1="430.8281" y2="430.8281"/><text fill="#000000" font-family="sans-serif" font-size="14" lengthAdjust="spacing" textLength="202" x="5553.5" y="449.3613">intendedUse : IntendedUse[0..1]</text><text fill="#000000" font-family="sans-serif" font-size="14" lengthAdjust="spacing" textLength="396" x="5553.5" y="466.9707">otherIntendedUse : String[0..1] - Other Intended Use not coded</text><text fill="#000000" font-family="sans-serif" font-size="14" lengthAdjust="spacing" textLength="285" x="5553.5" y="484.5801">restrictedAudience : RestrictedAudience[0..1]</text><text fill="#000000" font-family="sans-serif" font-size="14" lengthAdjust="spacing" textLength="484" x="5553.5" y="502.1895">otherRestrictedAudience : String[0..1] - Other Restricted Audience not coded</text></g><!--class LawsAndRegulations--><g id="elem_LawsAndRegulations"><rect codeLine="59" fill="#F1F1F1" height="541.0625" id="LawsAndRegulations" rx="2.5" ry="2.5" style="stroke:#181818;stroke-width:0.5;" width="554" x="1560.5" y="613.6094"/><ellipse cx="1767.25" cy="629.6094" fill="#EB937F" rx="11" ry="11" style="stroke:#181818;stroke-width:1.0;"/><path d="M1766.1094,630.4063 L1766.1094,632.9063 L1770.4375,632.9063 L1770.4375,631.9844 Q1770.4375,631.375 1770.6719,631.1094 Q1770.9219,630.8438 1771.2969,630.8438 Q1771.6719,630.8438 1771.9063,631.1094 Q1772.1406,631.375 1772.1406,631.9844 L1772.1406,634.6094 L1764.1406,634.6094 Q1763.5156,634.6094 1763.25,634.375 Q1763,634.1406 1763,633.75 Q1763,633.375 1763.2656,633.1406 Q1763.5313,632.9063 1764.1406,632.9063 L1764.4063,632.9063 L1764.4063,626.25 L1764.1406,626.25 Q1763.5156,626.25 1763.25,626.0156 Q1763,625.7813 1763,625.3906 Q1763,625.0156 1763.25,624.7813 Q1763.5156,624.5469 1764.1406,624.5469 L1771.7656,624.5469 L1771.7656,627.1406 Q1771.7656,627.75 1771.5313,628.0156 Q1771.3125,628.2656 1770.9219,628.2656 Q1770.5469,628.2656 1770.3125,628.0156 Q1770.0781,627.75 1770.0781,627.1406 L1770.0781,626.25 L1766.1094,626.25 L1766.1094,628.7031 L1767.5938,628.7031 Q1767.5938,628.0469 1767.7188,627.8594 Q1767.9844,627.4531 1768.4531,627.4531 Q1768.8281,627.4531 1769.0625,627.7188 Q1769.2969,627.9688 1769.2969,628.5781 L1769.2969,630.5469 Q1769.2969,631.0938 1769.1719,631.2813 Q1768.9063,631.6719 1768.4531,631.6719 Q1767.9844,631.6719 1767.7188,631.2656 Q1767.5938,631.0781 1767.5938,630.4063 L1766.1094,630.4063 Z " fill="#000000"/><text fill="#000000" font-family="sans-serif" font-size="14" lengthAdjust="spacing" textLength="132" x="1787.75" y="635.3379">LawsAndRegulations</text><line style="stroke:#181818;stroke-width:0.5;" x1="1561.5" x2="2113.5" y1="645.6094" y2="645.6094"/><line style="stroke:#181818;stroke-width:0.5;" x1="1561.5" x2="2113.5" y1="653.6094" y2="653.6094"/><text fill="#000000" font-family="sans-serif" font-size="14" lengthAdjust="spacing" textLength="342" x="1566.5" y="672.1426">1() : Children&#8217;s Online Privacy Protection Act (COPPA)</text><text fill="#000000" font-family="sans-serif" font-size="14" lengthAdjust="spacing" textLength="332" x="1566.5" y="689.752">2() : Argentina: Personal Data Protection Act (PDPA)</text><text fill="#000000" font-family="sans-serif" font-size="14" lengthAdjust="spacing" textLength="324" x="1566.5" y="707.3613">3() : Bahrain: Personal Data Protection Law (PDPL)</text><text fill="#000000" font-family="sans-serif" font-size="14" lengthAdjust="spacing" textLength="389" x="1566.5" y="724.9707">4() : Brazil: Lei Geral de Prote&#231;&#227;o de Dados Pessoais (LGPD)</text><text fill="#000000" font-family="sans-serif" font-size="14" lengthAdjust="spacing" textLength="285" x="1566.5" y="742.5801">5() : California Consumer Privacy Act (CCPA)</text><text fill="#000000" font-family="sans-serif" font-size="14" lengthAdjust="spacing" textLength="402" x="1566.5" y="760.1895">6() : California Online Privacy Protection Act of 2003 (CalOPPA)</text><text fill="#000000" font-family="sans-serif" font-size="14" lengthAdjust="spacing" textLength="542" x="1566.5" y="777.7988">7() : Canada: Personal Information Protection and Electronic Documents Act (PIPEDA)</text><text fill="#000000" font-family="sans-serif" font-size="14" lengthAdjust="spacing" textLength="420" x="1566.5" y="795.4082">8() : China Next Generation Artificial Intelligence Development Plan</text><text fill="#000000" font-family="sans-serif" font-size="14" lengthAdjust="spacing" textLength="523" x="1566.5" y="813.0176">9() : China: Shanghai Regulations on Promoting the Development of the AI Industry</text><text fill="#000000" font-family="sans-serif" font-size="14" lengthAdjust="spacing" textLength="231" x="1566.5" y="830.627">10() : Colorado Privacy Act (ColoPA)</text><text fill="#000000" font-family="sans-serif" font-size="14" lengthAdjust="spacing" textLength="273" x="1566.5" y="848.2363">11() : Connecticut Data Privacy Act (CDPA)</text><text fill="#000000" font-family="sans-serif" font-size="14" lengthAdjust="spacing" textLength="427" x="1566.5" y="865.8457">12() : European Union: General Data Protection Regulation (GDPR)</text><text fill="#000000" font-family="sans-serif" font-size="14" lengthAdjust="spacing" textLength="241" x="1566.5" y="883.4551">13() : Gramm-Leach-Bliley Act (GLBA)</text><text fill="#000000" font-family="sans-serif" font-size="14" lengthAdjust="spacing" textLength="406" x="1566.5" y="901.0645">14() : Health Insurance Portability and Accountability Act (HIPAA)</text><text fill="#000000" font-family="sans-serif" font-size="14" lengthAdjust="spacing" textLength="372" x="1566.5" y="918.6738">15() : Israel: Privacy Protection (Data Security) Regulations</text><text fill="#000000" font-family="sans-serif" font-size="14" lengthAdjust="spacing" textLength="410" x="1566.5" y="936.2832">16() : Japan: Act on the Protection of Personal Information (APPI)</text><text fill="#000000" font-family="sans-serif" font-size="14" lengthAdjust="spacing" textLength="208" x="1566.5" y="953.8926">17() : Kenya: Data Protection Act</text><text fill="#000000" font-family="sans-serif" font-size="14" lengthAdjust="spacing" textLength="307" x="1566.5" y="971.502">18() : Mauritius: Data Protection Act, 2017 (DPA)</text><text fill="#000000" font-family="sans-serif" font-size="14" lengthAdjust="spacing" textLength="233" x="1566.5" y="989.1113">19() : New Zealand: Privacy Act 2020</text><text fill="#000000" font-family="sans-serif" font-size="14" lengthAdjust="spacing" textLength="308" x="1566.5" y="1006.7207">20() : Nigeria Data Protection Regulation (NDPR)</text><text fill="#000000" font-family="sans-serif" font-size="14" lengthAdjust="spacing" textLength="204" x="1566.5" y="1024.3301">21() : Qatar: Law No. 13 of 2016</text><text fill="#000000" font-family="sans-serif" font-size="14" lengthAdjust="spacing" textLength="416" x="1566.5" y="1041.9395">22() : South Africa: Protection of Personal Information Act (POPIA)</text><text fill="#000000" font-family="sans-serif" font-size="14" lengthAdjust="spacing" textLength="391" x="1566.5" y="1059.5488">23() : South Korea: Personal Information Protection Act (PIPA)</text><text fill="#000000" font-family="sans-serif" font-size="14" lengthAdjust="spacing" textLength="374" x="1566.5" y="1077.1582">24() : Turkey: Law on Protection of Personal Data No. 6698</text><text fill="#000000" font-family="sans-serif" font-size="14" lengthAdjust="spacing" textLength="335" x="1566.5" y="1094.7676">25() : Uganda: Data Protection and Privacy Act, 2019</text><text fill="#000000" font-family="sans-serif" font-size="14" lengthAdjust="spacing" textLength="221" x="1566.5" y="1112.377">26() : Uruguay: Data Protection Act</text><text fill="#000000" font-family="sans-serif" font-size="14" lengthAdjust="spacing" textLength="261" x="1566.5" y="1129.9863">27() : Utah Consumer Privacy Act (UCPA)</text><text fill="#000000" font-family="sans-serif" font-size="14" lengthAdjust="spacing" textLength="341" x="1566.5" y="1147.5957">28() : Virginia Consumer Data Protection Act (VCDPA)</text></g><!--class ProtectedDataClassification--><g id="elem_ProtectedDataClassification"><rect codeLine="101" fill="#F1F1F1" height="118.4375" id="ProtectedDataClassification" rx="2.5" ry="2.5" style="stroke:#181818;stroke-width:0.5;" width="410" x="2475.5" y="825.1094"/><ellipse cx="2589.25" cy="841.1094" fill="#EB937F" rx="11" ry="11" style="stroke:#181818;stroke-width:1.0;"/><path d="M2588.1094,841.9063 L2588.1094,844.4063 L2592.4375,844.4063 L2592.4375,843.4844 Q2592.4375,842.875 2592.6719,842.6094 Q2592.9219,842.3438 2593.2969,842.3438 Q2593.6719,842.3438 2593.9063,842.6094 Q2594.1406,842.875 2594.1406,843.4844 L2594.1406,846.1094 L2586.1406,846.1094 Q2585.5156,846.1094 2585.25,845.875 Q2585,845.6406 2585,845.25 Q2585,844.875 2585.2656,844.6406 Q2585.5313,844.4063 2586.1406,844.4063 L2586.4063,844.4063 L2586.4063,837.75 L2586.1406,837.75 Q2585.5156,837.75 2585.25,837.5156 Q2585,837.2813 2585,836.8906 Q2585,836.5156 2585.25,836.2813 Q2585.5156,836.0469 2586.1406,836.0469 L2593.7656,836.0469 L2593.7656,838.6406 Q2593.7656,839.25 2593.5313,839.5156 Q2593.3125,839.7656 2592.9219,839.7656 Q2592.5469,839.7656 2592.3125,839.5156 Q2592.0781,839.25 2592.0781,838.6406 L2592.0781,837.75 L2588.1094,837.75 L2588.1094,840.2031 L2589.5938,840.2031 Q2589.5938,839.5469 2589.7188,839.3594 Q2589.9844,838.9531 2590.4531,838.9531 Q2590.8281,838.9531 2591.0625,839.2188 Q2591.2969,839.4688 2591.2969,840.0781 L2591.2969,842.0469 Q2591.2969,842.5938 2591.1719,842.7813 Q2590.9063,843.1719 2590.4531,843.1719 Q2589.9844,843.1719 2589.7188,842.7656 Q2589.5938,842.5781 2589.5938,841.9063 L2588.1094,841.9063 Z " fill="#000000"/><text fill="#000000" font-family="sans-serif" font-size="14" lengthAdjust="spacing" textLength="174" x="2609.75" y="846.8379">ProtectedDataClassification</text><line style="stroke:#181818;stroke-width:0.5;" x1="2476.5" x2="2884.5" y1="857.1094" y2="857.1094"/><line style="stroke:#181818;stroke-width:0.5;" x1="2476.5" x2="2884.5" y1="865.1094" y2="865.1094"/><text fill="#000000" font-family="sans-serif" font-size="14" lengthAdjust="spacing" textLength="244" x="2481.5" y="883.6426">1() : Protected Health Information (PHI)</text><text fill="#000000" font-family="sans-serif" font-size="14" lengthAdjust="spacing" textLength="271" x="2481.5" y="901.252">2() : Personally Identifiable Information (PII)</text><text fill="#000000" font-family="sans-serif" font-size="14" lengthAdjust="spacing" textLength="398" x="2481.5" y="918.8613">3() : Health Insurance Portability and Accountability Act (HIPAA)</text><text fill="#000000" font-family="sans-serif" font-size="14" lengthAdjust="spacing" textLength="221" x="2481.5" y="936.4707">4() : Personal Financial Information</text></g><!--class AppliedPrivacy--><g id="elem_AppliedPrivacy"><rect codeLine="108" fill="#F1F1F1" height="100.8281" id="AppliedPrivacy" rx="2.5" ry="2.5" style="stroke:#181818;stroke-width:0.5;" width="336" x="2920.5" y="833.6094"/><ellipse cx="3037.75" cy="849.6094" fill="#EB937F" rx="11" ry="11" style="stroke:#181818;stroke-width:1.0;"/><path d="M3036.6094,850.4063 L3036.6094,852.9063 L3040.9375,852.9063 L3040.9375,851.9844 Q3040.9375,851.375 3041.1719,851.1094 Q3041.4219,850.8438 3041.7969,850.8438 Q3042.1719,850.8438 3042.4063,851.1094 Q3042.6406,851.375 3042.6406,851.9844 L3042.6406,854.6094 L3034.6406,854.6094 Q3034.0156,854.6094 3033.75,854.375 Q3033.5,854.1406 3033.5,853.75 Q3033.5,853.375 3033.7656,853.1406 Q3034.0313,852.9063 3034.6406,852.9063 L3034.9063,852.9063 L3034.9063,846.25 L3034.6406,846.25 Q3034.0156,846.25 3033.75,846.0156 Q3033.5,845.7813 3033.5,845.3906 Q3033.5,845.0156 3033.75,844.7813 Q3034.0156,844.5469 3034.6406,844.5469 L3042.2656,844.5469 L3042.2656,847.1406 Q3042.2656,847.75 3042.0313,848.0156 Q3041.8125,848.2656 3041.4219,848.2656 Q3041.0469,848.2656 3040.8125,848.0156 Q3040.5781,847.75 3040.5781,847.1406 L3040.5781,846.25 L3036.6094,846.25 L3036.6094,848.7031 L3038.0938,848.7031 Q3038.0938,848.0469 3038.2188,847.8594 Q3038.4844,847.4531 3038.9531,847.4531 Q3039.3281,847.4531 3039.5625,847.7188 Q3039.7969,847.9688 3039.7969,848.5781 L3039.7969,850.5469 Q3039.7969,851.0938 3039.6719,851.2813 Q3039.4063,851.6719 3038.9531,851.6719 Q3038.4844,851.6719 3038.2188,851.2656 Q3038.0938,851.0781 3038.0938,850.4063 L3036.6094,850.4063 Z " fill="#000000"/><text fill="#000000" font-family="sans-serif" font-size="14" lengthAdjust="spacing" textLength="93" x="3058.25" y="855.3379">AppliedPrivacy</text><line style="stroke:#181818;stroke-width:0.5;" x1="2921.5" x2="3255.5" y1="865.6094" y2="865.6094"/><line style="stroke:#181818;stroke-width:0.5;" x1="2921.5" x2="3255.5" y1="873.6094" y2="873.6094"/><text fill="#000000" font-family="sans-serif" font-size="14" lengthAdjust="spacing" textLength="202" x="2926.5" y="892.1426">1() : Data generation (synthetic)</text><text fill="#000000" font-family="sans-serif" font-size="14" lengthAdjust="spacing" textLength="154" x="2926.5" y="909.752">2() : Data anonymization</text><text fill="#000000" font-family="sans-serif" font-size="14" lengthAdjust="spacing" textLength="324" x="2926.5" y="927.3613">3() : Data transformation (homomorphic encryption)</text></g><!--class Web--><g id="elem_Web"><rect codeLine="151" fill="#F1F1F1" height="136.0469" id="Web" rx="2.5" ry="2.5" style="stroke:#181818;stroke-width:0.5;" width="118" x="3803.5" y="816.1094"/><ellipse cx="3844.15" cy="832.1094" fill="#EB937F" rx="11" ry="11" style="stroke:#181818;stroke-width:1.0;"/><path d="M3843.0094,832.9063 L3843.0094,835.4063 L3847.3375,835.4063 L3847.3375,834.4844 Q3847.3375,833.875 3847.5719,833.6094 Q3847.8219,833.3438 3848.1969,833.3438 Q3848.5719,833.3438 3848.8063,833.6094 Q3849.0406,833.875 3849.0406,834.4844 L3849.0406,837.1094 L3841.0406,837.1094 Q3840.4156,837.1094 3840.15,836.875 Q3839.9,836.6406 3839.9,836.25 Q3839.9,835.875 3840.1656,835.6406 Q3840.4313,835.4063 3841.0406,835.4063 L3841.3063,835.4063 L3841.3063,828.75 L3841.0406,828.75 Q3840.4156,828.75 3840.15,828.5156 Q3839.9,828.2813 3839.9,827.8906 Q3839.9,827.5156 3840.15,827.2813 Q3840.4156,827.0469 3841.0406,827.0469 L3848.6656,827.0469 L3848.6656,829.6406 Q3848.6656,830.25 3848.4313,830.5156 Q3848.2125,830.7656 3847.8219,830.7656 Q3847.4469,830.7656 3847.2125,830.5156 Q3846.9781,830.25 3846.9781,829.6406 L3846.9781,828.75 L3843.0094,828.75 L3843.0094,831.2031 L3844.4938,831.2031 Q3844.4938,830.5469 3844.6188,830.3594 Q3844.8844,829.9531 3845.3531,829.9531 Q3845.7281,829.9531 3845.9625,830.2188 Q3846.1969,830.4688 3846.1969,831.0781 L3846.1969,833.0469 Q3846.1969,833.5938 3846.0719,833.7813 Q3845.8063,834.1719 3845.3531,834.1719 Q3844.8844,834.1719 3844.6188,833.7656 Q3844.4938,833.5781 3844.4938,832.9063 L3843.0094,832.9063 Z " fill="#000000"/><text fill="#000000" font-family="sans-serif" font-size="14" lengthAdjust="spacing" textLength="29" x="3863.85" y="837.8379">Web</text><line style="stroke:#181818;stroke-width:0.5;" x1="3804.5" x2="3920.5" y1="848.1094" y2="848.1094"/><line style="stroke:#181818;stroke-width:0.5;" x1="3804.5" x2="3920.5" y1="856.1094" y2="856.1094"/><text fill="#000000" font-family="sans-serif" font-size="14" lengthAdjust="spacing" textLength="72" x="3809.5" y="874.6426">1() : Texual</text><text fill="#000000" font-family="sans-serif" font-size="14" lengthAdjust="spacing" textLength="96" x="3809.5" y="892.252">2() : Structured</text><text fill="#000000" font-family="sans-serif" font-size="14" lengthAdjust="spacing" textLength="89" x="3809.5" y="909.8613">3() : Metadata</text><text fill="#000000" font-family="sans-serif" font-size="14" lengthAdjust="spacing" textLength="106" x="3809.5" y="927.4707">4() : SocialMedia</text><text fill="#000000" font-family="sans-serif" font-size="14" lengthAdjust="spacing" textLength="63" x="3809.5" y="945.0801">5() : News</text></g><!--class Feeds--><g id="elem_Feeds"><rect codeLine="158" fill="#F1F1F1" height="136.0469" id="Feeds" rx="2.5" ry="2.5" style="stroke:#181818;stroke-width:0.5;" width="211" x="3957" y="816.1094"/><ellipse cx="4038.25" cy="832.1094" fill="#EB937F" rx="11" ry="11" style="stroke:#181818;stroke-width:1.0;"/><path d="M4037.1094,832.9063 L4037.1094,835.4063 L4041.4375,835.4063 L4041.4375,834.4844 Q4041.4375,833.875 4041.6719,833.6094 Q4041.9219,833.3438 4042.2969,833.3438 Q4042.6719,833.3438 4042.9063,833.6094 Q4043.1406,833.875 4043.1406,834.4844 L4043.1406,837.1094 L4035.1406,837.1094 Q4034.5156,837.1094 4034.25,836.875 Q4034,836.6406 4034,836.25 Q4034,835.875 4034.2656,835.6406 Q4034.5313,835.4063 4035.1406,835.4063 L4035.4063,835.4063 L4035.4063,828.75 L4035.1406,828.75 Q4034.5156,828.75 4034.25,828.5156 Q4034,828.2813 4034,827.8906 Q4034,827.5156 4034.25,827.2813 Q4034.5156,827.0469 4035.1406,827.0469 L4042.7656,827.0469 L4042.7656,829.6406 Q4042.7656,830.25 4042.5313,830.5156 Q4042.3125,830.7656 4041.9219,830.7656 Q4041.5469,830.7656 4041.3125,830.5156 Q4041.0781,830.25 4041.0781,829.6406 L4041.0781,828.75 L4037.1094,828.75 L4037.1094,831.2031 L4038.5938,831.2031 Q4038.5938,830.5469 4038.7188,830.3594 Q4038.9844,829.9531 4039.4531,829.9531 Q4039.8281,829.9531 4040.0625,830.2188 Q4040.2969,830.4688 4040.2969,831.0781 L4040.2969,833.0469 Q4040.2969,833.5938 4040.1719,833.7813 Q4039.9063,834.1719 4039.4531,834.1719 Q4038.9844,834.1719 4038.7188,833.7656 Q4038.5938,833.5781 4038.5938,832.9063 L4037.1094,832.9063 Z " fill="#000000"/><text fill="#000000" font-family="sans-serif" font-size="14" lengthAdjust="spacing" textLength="40" x="4058.75" y="837.8379">Feeds</text><line style="stroke:#181818;stroke-width:0.5;" x1="3958" x2="4167" y1="848.1094" y2="848.1094"/><line style="stroke:#181818;stroke-width:0.5;" x1="3958" x2="4167" y1="856.1094" y2="856.1094"/><text fill="#000000" font-family="sans-serif" font-size="14" lengthAdjust="spacing" textLength="58" x="3963" y="874.6426">1() : RSS</text><text fill="#000000" font-family="sans-serif" font-size="14" lengthAdjust="spacing" textLength="51" x="3963" y="892.252">2() : API</text><text fill="#000000" font-family="sans-serif" font-size="14" lengthAdjust="spacing" textLength="174" x="3963" y="909.8613">3() : RealTimeDatabaseInfo</text><text fill="#000000" font-family="sans-serif" font-size="14" lengthAdjust="spacing" textLength="199" x="3963" y="927.4707">4() : IntervalTimedDatabaseInfo</text><text fill="#000000" font-family="sans-serif" font-size="14" lengthAdjust="spacing" textLength="109" x="3963" y="945.0801">5() : FileFeedInfo</text></g><!--class Syndication--><g id="elem_Syndication"><rect codeLine="165" fill="#F1F1F1" height="118.4375" id="Syndication" rx="2.5" ry="2.5" style="stroke:#181818;stroke-width:0.5;" width="140" x="4203.5" y="825.1094"/><ellipse cx="4234.25" cy="841.1094" fill="#EB937F" rx="11" ry="11" style="stroke:#181818;stroke-width:1.0;"/><path d="M4233.1094,841.9063 L4233.1094,844.4063 L4237.4375,844.4063 L4237.4375,843.4844 Q4237.4375,842.875 4237.6719,842.6094 Q4237.9219,842.3438 4238.2969,842.3438 Q4238.6719,842.3438 4238.9063,842.6094 Q4239.1406,842.875 4239.1406,843.4844 L4239.1406,846.1094 L4231.1406,846.1094 Q4230.5156,846.1094 4230.25,845.875 Q4230,845.6406 4230,845.25 Q4230,844.875 4230.2656,844.6406 Q4230.5313,844.4063 4231.1406,844.4063 L4231.4063,844.4063 L4231.4063,837.75 L4231.1406,837.75 Q4230.5156,837.75 4230.25,837.5156 Q4230,837.2813 4230,836.8906 Q4230,836.5156 4230.25,836.2813 Q4230.5156,836.0469 4231.1406,836.0469 L4238.7656,836.0469 L4238.7656,838.6406 Q4238.7656,839.25 4238.5313,839.5156 Q4238.3125,839.7656 4237.9219,839.7656 Q4237.5469,839.7656 4237.3125,839.5156 Q4237.0781,839.25 4237.0781,838.6406 L4237.0781,837.75 L4233.1094,837.75 L4233.1094,840.2031 L4234.5938,840.2031 Q4234.5938,839.5469 4234.7188,839.3594 Q4234.9844,838.9531 4235.4531,838.9531 Q4235.8281,838.9531 4236.0625,839.2188 Q4236.2969,839.4688 4236.2969,840.0781 L4236.2969,842.0469 Q4236.2969,842.5938 4236.1719,842.7813 Q4235.9063,843.1719 4235.4531,843.1719 Q4234.9844,843.1719 4234.7188,842.7656 Q4234.5938,842.5781 4234.5938,841.9063 L4233.1094,841.9063 Z " fill="#000000"/><text fill="#000000" font-family="sans-serif" font-size="14" lengthAdjust="spacing" textLength="73" x="4251.75" y="846.8379">Syndication</text><line style="stroke:#181818;stroke-width:0.5;" x1="4204.5" x2="4342.5" y1="857.1094" y2="857.1094"/><line style="stroke:#181818;stroke-width:0.5;" x1="4204.5" x2="4342.5" y1="865.1094" y2="865.1094"/><text fill="#000000" font-family="sans-serif" font-size="14" lengthAdjust="spacing" textLength="96" x="4209.5" y="883.6426">1() : NewsFeed</text><text fill="#000000" font-family="sans-serif" font-size="14" lengthAdjust="spacing" textLength="120" x="4209.5" y="901.252">2() : FinancialFeed</text><text fill="#000000" font-family="sans-serif" font-size="14" lengthAdjust="spacing" textLength="106" x="4209.5" y="918.8613">3() : SocialMedia</text><text fill="#000000" font-family="sans-serif" font-size="14" lengthAdjust="spacing" textLength="128" x="4209.5" y="936.4707">4() : ProductCatalog</text></g><!--class DataMining--><g id="elem_DataMining"><rect codeLine="171" fill="#F1F1F1" height="153.6563" id="DataMining" rx="2.5" ry="2.5" style="stroke:#181818;stroke-width:0.5;" width="160" x="4378.5" y="807.1094"/><ellipse cx="4419.15" cy="823.1094" fill="#EB937F" rx="11" ry="11" style="stroke:#181818;stroke-width:1.0;"/><path d="M4418.0094,823.9063 L4418.0094,826.4063 L4422.3375,826.4063 L4422.3375,825.4844 Q4422.3375,824.875 4422.5719,824.6094 Q4422.8219,824.3438 4423.1969,824.3438 Q4423.5719,824.3438 4423.8063,824.6094 Q4424.0406,824.875 4424.0406,825.4844 L4424.0406,828.1094 L4416.0406,828.1094 Q4415.4156,828.1094 4415.15,827.875 Q4414.9,827.6406 4414.9,827.25 Q4414.9,826.875 4415.1656,826.6406 Q4415.4313,826.4063 4416.0406,826.4063 L4416.3063,826.4063 L4416.3063,819.75 L4416.0406,819.75 Q4415.4156,819.75 4415.15,819.5156 Q4414.9,819.2813 4414.9,818.8906 Q4414.9,818.5156 4415.15,818.2813 Q4415.4156,818.0469 4416.0406,818.0469 L4423.6656,818.0469 L4423.6656,820.6406 Q4423.6656,821.25 4423.4313,821.5156 Q4423.2125,821.7656 4422.8219,821.7656 Q4422.4469,821.7656 4422.2125,821.5156 Q4421.9781,821.25 4421.9781,820.6406 L4421.9781,819.75 L4418.0094,819.75 L4418.0094,822.2031 L4419.4938,822.2031 Q4419.4938,821.5469 4419.6188,821.3594 Q4419.8844,820.9531 4420.3531,820.9531 Q4420.7281,820.9531 4420.9625,821.2188 Q4421.1969,821.4688 4421.1969,822.0781 L4421.1969,824.0469 Q4421.1969,824.5938 4421.0719,824.7813 Q4420.8063,825.1719 4420.3531,825.1719 Q4419.8844,825.1719 4419.6188,824.7656 Q4419.4938,824.5781 4419.4938,823.9063 L4418.0094,823.9063 Z " fill="#000000"/><text fill="#000000" font-family="sans-serif" font-size="14" lengthAdjust="spacing" textLength="71" x="4438.85" y="828.8379">DataMining</text><line style="stroke:#181818;stroke-width:0.5;" x1="4379.5" x2="4537.5" y1="839.1094" y2="839.1094"/><line style="stroke:#181818;stroke-width:0.5;" x1="4379.5" x2="4537.5" y1="847.1094" y2="847.1094"/><text fill="#000000" font-family="sans-serif" font-size="14" lengthAdjust="spacing" textLength="135" x="4384.5" y="865.6426">1() : Association Rule</text><text fill="#000000" font-family="sans-serif" font-size="14" lengthAdjust="spacing" textLength="113" x="4384.5" y="883.252">2() : Classification</text><text fill="#000000" font-family="sans-serif" font-size="14" lengthAdjust="spacing" textLength="94" x="4384.5" y="900.8613">3() : Clustering</text><text fill="#000000" font-family="sans-serif" font-size="14" lengthAdjust="spacing" textLength="102" x="4384.5" y="918.4707">4() : Regression</text><text fill="#000000" font-family="sans-serif" font-size="14" lengthAdjust="spacing" textLength="148" x="4384.5" y="936.0801">5() : Anomaly Detection</text><text fill="#000000" font-family="sans-serif" font-size="14" lengthAdjust="spacing" textLength="105" x="4384.5" y="953.6895">6() : Sequencing</text></g><!--class MachineGenerated--><g id="elem_MachineGenerated"><rect codeLine="179" fill="#F1F1F1" height="153.6563" id="MachineGenerated" rx="2.5" ry="2.5" style="stroke:#181818;stroke-width:0.5;" width="210" x="4573.5" y="807.1094"/><ellipse cx="4614.15" cy="823.1094" fill="#EB937F" rx="11" ry="11" style="stroke:#181818;stroke-width:1.0;"/><path d="M4613.0094,823.9063 L4613.0094,826.4063 L4617.3375,826.4063 L4617.3375,825.4844 Q4617.3375,824.875 4617.5719,824.6094 Q4617.8219,824.3438 4618.1969,824.3438 Q4618.5719,824.3438 4618.8063,824.6094 Q4619.0406,824.875 4619.0406,825.4844 L4619.0406,828.1094 L4611.0406,828.1094 Q4610.4156,828.1094 4610.15,827.875 Q4609.9,827.6406 4609.9,827.25 Q4609.9,826.875 4610.1656,826.6406 Q4610.4313,826.4063 4611.0406,826.4063 L4611.3063,826.4063 L4611.3063,819.75 L4611.0406,819.75 Q4610.4156,819.75 4610.15,819.5156 Q4609.9,819.2813 4609.9,818.8906 Q4609.9,818.5156 4610.15,818.2813 Q4610.4156,818.0469 4611.0406,818.0469 L4618.6656,818.0469 L4618.6656,820.6406 Q4618.6656,821.25 4618.4313,821.5156 Q4618.2125,821.7656 4617.8219,821.7656 Q4617.4469,821.7656 4617.2125,821.5156 Q4616.9781,821.25 4616.9781,820.6406 L4616.9781,819.75 L4613.0094,819.75 L4613.0094,822.2031 L4614.4938,822.2031 Q4614.4938,821.5469 4614.6188,821.3594 Q4614.8844,820.9531 4615.3531,820.9531 Q4615.7281,820.9531 4615.9625,821.2188 Q4616.1969,821.4688 4616.1969,822.0781 L4616.1969,824.0469 Q4616.1969,824.5938 4616.0719,824.7813 Q4615.8063,825.1719 4615.3531,825.1719 Q4614.8844,825.1719 4614.6188,824.7656 Q4614.4938,824.5781 4614.4938,823.9063 L4613.0094,823.9063 Z " fill="#000000"/><text fill="#000000" font-family="sans-serif" font-size="14" lengthAdjust="spacing" textLength="121" x="4633.85" y="828.8379">MachineGenerated</text><line style="stroke:#181818;stroke-width:0.5;" x1="4574.5" x2="4782.5" y1="839.1094" y2="839.1094"/><line style="stroke:#181818;stroke-width:0.5;" x1="4574.5" x2="4782.5" y1="847.1094" y2="847.1094"/><text fill="#000000" font-family="sans-serif" font-size="14" lengthAdjust="spacing" textLength="88" x="4579.5" y="865.6426">1() : Synthetic</text><text fill="#000000" font-family="sans-serif" font-size="14" lengthAdjust="spacing" textLength="100" x="4579.5" y="883.252">2() : Generative</text><text fill="#000000" font-family="sans-serif" font-size="14" lengthAdjust="spacing" textLength="59" x="4579.5" y="900.8613">3() : Twin</text><text fill="#000000" font-family="sans-serif" font-size="14" lengthAdjust="spacing" textLength="198" x="4579.5" y="918.4707">4() : Machine-2-Machine (M2M)</text><text fill="#000000" font-family="sans-serif" font-size="14" lengthAdjust="spacing" textLength="95" x="4579.5" y="936.0801">5() : AI inferred</text><text fill="#000000" font-family="sans-serif" font-size="14" lengthAdjust="spacing" textLength="129" x="4579.5" y="953.6895">6() : XR (AR,VR,MR)</text></g><!--class Sensor--><g id="elem_Sensor"><rect codeLine="187" fill="#F1F1F1" height="206.4844" id="Sensor" rx="2.5" ry="2.5" style="stroke:#181818;stroke-width:0.5;" width="206" x="4818.5" y="781.1094"/><ellipse cx="4894.75" cy="797.1094" fill="#EB937F" rx="11" ry="11" style="stroke:#181818;stroke-width:1.0;"/><path d="M4893.6094,797.9063 L4893.6094,800.4063 L4897.9375,800.4063 L4897.9375,799.4844 Q4897.9375,798.875 4898.1719,798.6094 Q4898.4219,798.3438 4898.7969,798.3438 Q4899.1719,798.3438 4899.4063,798.6094 Q4899.6406,798.875 4899.6406,799.4844 L4899.6406,802.1094 L4891.6406,802.1094 Q4891.0156,802.1094 4890.75,801.875 Q4890.5,801.6406 4890.5,801.25 Q4890.5,800.875 4890.7656,800.6406 Q4891.0313,800.4063 4891.6406,800.4063 L4891.9063,800.4063 L4891.9063,793.75 L4891.6406,793.75 Q4891.0156,793.75 4890.75,793.5156 Q4890.5,793.2813 4890.5,792.8906 Q4890.5,792.5156 4890.75,792.2813 Q4891.0156,792.0469 4891.6406,792.0469 L4899.2656,792.0469 L4899.2656,794.6406 Q4899.2656,795.25 4899.0313,795.5156 Q4898.8125,795.7656 4898.4219,795.7656 Q4898.0469,795.7656 4897.8125,795.5156 Q4897.5781,795.25 4897.5781,794.6406 L4897.5781,793.75 L4893.6094,793.75 L4893.6094,796.2031 L4895.0938,796.2031 Q4895.0938,795.5469 4895.2188,795.3594 Q4895.4844,794.9531 4895.9531,794.9531 Q4896.3281,794.9531 4896.5625,795.2188 Q4896.7969,795.4688 4896.7969,796.0781 L4896.7969,798.0469 Q4896.7969,798.5938 4896.6719,798.7813 Q4896.4063,799.1719 4895.9531,799.1719 Q4895.4844,799.1719 4895.2188,798.7656 Q4895.0938,798.5781 4895.0938,797.9063 L4893.6094,797.9063 Z " fill="#000000"/><text fill="#000000" font-family="sans-serif" font-size="14" lengthAdjust="spacing" textLength="45" x="4915.25" y="802.8379">Sensor</text><line style="stroke:#181818;stroke-width:0.5;" x1="4819.5" x2="5023.5" y1="813.1094" y2="813.1094"/><line style="stroke:#181818;stroke-width:0.5;" x1="4819.5" x2="5023.5" y1="821.1094" y2="821.1094"/><text fill="#000000" font-family="sans-serif" font-size="14" lengthAdjust="spacing" textLength="120" x="4824.5" y="839.6426">1() : Environmental</text><text fill="#000000" font-family="sans-serif" font-size="14" lengthAdjust="spacing" textLength="143" x="4824.5" y="857.252">2() : Motion &amp; Location</text><text fill="#000000" font-family="sans-serif" font-size="14" lengthAdjust="spacing" textLength="70" x="4824.5" y="874.8613">3() : Health</text><text fill="#000000" font-family="sans-serif" font-size="14" lengthAdjust="spacing" textLength="88" x="4824.5" y="892.4707">4() : Biometric</text><text fill="#000000" font-family="sans-serif" font-size="14" lengthAdjust="spacing" textLength="162" x="4824.5" y="910.0801">5() : Energy Consumption</text><text fill="#000000" font-family="sans-serif" font-size="14" lengthAdjust="spacing" textLength="133" x="4824.5" y="927.6895">6() : Industral Sensor</text><text fill="#000000" font-family="sans-serif" font-size="14" lengthAdjust="spacing" textLength="186" x="4824.5" y="945.2988">7() : Vehicle &amp; Transportation</text><text fill="#000000" font-family="sans-serif" font-size="14" lengthAdjust="spacing" textLength="175" x="4824.5" y="962.9082">8() : Security &amp; Serveillance</text><text fill="#000000" font-family="sans-serif" font-size="14" lengthAdjust="spacing" textLength="194" x="4824.5" y="980.5176">9() : Agriculture &amp; Environment</text></g><!--class SocialMedia--><g id="elem_SocialMedia"><rect codeLine="198" fill="#F1F1F1" height="171.2656" id="SocialMedia" rx="2.5" ry="2.5" style="stroke:#181818;stroke-width:0.5;" width="174" x="5059.5" y="798.6094"/><ellipse cx="5104.25" cy="814.6094" fill="#EB937F" rx="11" ry="11" style="stroke:#181818;stroke-width:1.0;"/><path d="M5103.1094,815.4063 L5103.1094,817.9063 L5107.4375,817.9063 L5107.4375,816.9844 Q5107.4375,816.375 5107.6719,816.1094 Q5107.9219,815.8438 5108.2969,815.8438 Q5108.6719,815.8438 5108.9063,816.1094 Q5109.1406,816.375 5109.1406,816.9844 L5109.1406,819.6094 L5101.1406,819.6094 Q5100.5156,819.6094 5100.25,819.375 Q5100,819.1406 5100,818.75 Q5100,818.375 5100.2656,818.1406 Q5100.5313,817.9063 5101.1406,817.9063 L5101.4063,817.9063 L5101.4063,811.25 L5101.1406,811.25 Q5100.5156,811.25 5100.25,811.0156 Q5100,810.7813 5100,810.3906 Q5100,810.0156 5100.25,809.7813 Q5100.5156,809.5469 5101.1406,809.5469 L5108.7656,809.5469 L5108.7656,812.1406 Q5108.7656,812.75 5108.5313,813.0156 Q5108.3125,813.2656 5107.9219,813.2656 Q5107.5469,813.2656 5107.3125,813.0156 Q5107.0781,812.75 5107.0781,812.1406 L5107.0781,811.25 L5103.1094,811.25 L5103.1094,813.7031 L5104.5938,813.7031 Q5104.5938,813.0469 5104.7188,812.8594 Q5104.9844,812.4531 5105.4531,812.4531 Q5105.8281,812.4531 5106.0625,812.7188 Q5106.2969,812.9688 5106.2969,813.5781 L5106.2969,815.5469 Q5106.2969,816.0938 5106.1719,816.2813 Q5105.9063,816.6719 5105.4531,816.6719 Q5104.9844,816.6719 5104.7188,816.2656 Q5104.5938,816.0781 5104.5938,815.4063 L5103.1094,815.4063 Z " fill="#000000"/><text fill="#000000" font-family="sans-serif" font-size="14" lengthAdjust="spacing" textLength="76" x="5124.75" y="820.3379">SocialMedia</text><line style="stroke:#181818;stroke-width:0.5;" x1="5060.5" x2="5232.5" y1="830.6094" y2="830.6094"/><line style="stroke:#181818;stroke-width:0.5;" x1="5060.5" x2="5232.5" y1="838.6094" y2="838.6094"/><text fill="#000000" font-family="sans-serif" font-size="14" lengthAdjust="spacing" textLength="101" x="5065.5" y="857.1426">1() : Text Based</text><text fill="#000000" font-family="sans-serif" font-size="14" lengthAdjust="spacing" textLength="97" x="5065.5" y="874.752">2() : Multimedia</text><text fill="#000000" font-family="sans-serif" font-size="14" lengthAdjust="spacing" textLength="162" x="5065.5" y="892.3613">3() : Reviews and Ratings</text><text fill="#000000" font-family="sans-serif" font-size="14" lengthAdjust="spacing" textLength="82" x="5065.5" y="909.9707">4() : Updates</text><text fill="#000000" font-family="sans-serif" font-size="14" lengthAdjust="spacing" textLength="66" x="5065.5" y="927.5801">5() : Q&amp;As</text><text fill="#000000" font-family="sans-serif" font-size="14" lengthAdjust="spacing" textLength="113" x="5065.5" y="945.1895">6() : Collaborative</text><text fill="#000000" font-family="sans-serif" font-size="14" lengthAdjust="spacing" textLength="83" x="5065.5" y="962.7988">7() : Creative</text></g><!--class UserGenerated--><g id="elem_UserGenerated"><rect codeLine="207" fill="#F1F1F1" height="153.6563" id="UserGenerated" rx="2.5" ry="2.5" style="stroke:#181818;stroke-width:0.5;" width="159" x="5269" y="807.1094"/><ellipse cx="5297.5" cy="823.1094" fill="#EB937F" rx="11" ry="11" style="stroke:#181818;stroke-width:1.0;"/><path d="M5296.3594,823.9063 L5296.3594,826.4063 L5300.6875,826.4063 L5300.6875,825.4844 Q5300.6875,824.875 5300.9219,824.6094 Q5301.1719,824.3438 5301.5469,824.3438 Q5301.9219,824.3438 5302.1563,824.6094 Q5302.3906,824.875 5302.3906,825.4844 L5302.3906,828.1094 L5294.3906,828.1094 Q5293.7656,828.1094 5293.5,827.875 Q5293.25,827.6406 5293.25,827.25 Q5293.25,826.875 5293.5156,826.6406 Q5293.7813,826.4063 5294.3906,826.4063 L5294.6563,826.4063 L5294.6563,819.75 L5294.3906,819.75 Q5293.7656,819.75 5293.5,819.5156 Q5293.25,819.2813 5293.25,818.8906 Q5293.25,818.5156 5293.5,818.2813 Q5293.7656,818.0469 5294.3906,818.0469 L5302.0156,818.0469 L5302.0156,820.6406 Q5302.0156,821.25 5301.7813,821.5156 Q5301.5625,821.7656 5301.1719,821.7656 Q5300.7969,821.7656 5300.5625,821.5156 Q5300.3281,821.25 5300.3281,820.6406 L5300.3281,819.75 L5296.3594,819.75 L5296.3594,822.2031 L5297.8438,822.2031 Q5297.8438,821.5469 5297.9688,821.3594 Q5298.2344,820.9531 5298.7031,820.9531 Q5299.0781,820.9531 5299.3125,821.2188 Q5299.5469,821.4688 5299.5469,822.0781 L5299.5469,824.0469 Q5299.5469,824.5938 5299.4219,824.7813 Q5299.1563,825.1719 5298.7031,825.1719 Q5298.2344,825.1719 5297.9688,824.7656 Q5297.8438,824.5781 5297.8438,823.9063 L5296.3594,823.9063 Z " fill="#000000"/><text fill="#000000" font-family="sans-serif" font-size="14" lengthAdjust="spacing" textLength="97" x="5314.5" y="828.8379">UserGenerated</text><line style="stroke:#181818;stroke-width:0.5;" x1="5270" x2="5427" y1="839.1094" y2="839.1094"/><line style="stroke:#181818;stroke-width:0.5;" x1="5270" x2="5427" y1="847.1094" y2="847.1094"/><text fill="#000000" font-family="sans-serif" font-size="14" lengthAdjust="spacing" textLength="103" x="5275" y="865.6426">1() : Clickstream</text><text fill="#000000" font-family="sans-serif" font-size="14" lengthAdjust="spacing" textLength="110" x="5275" y="883.252">2() : Social Media</text><text fill="#000000" font-family="sans-serif" font-size="14" lengthAdjust="spacing" textLength="86" x="5275" y="900.8613">3() : Behavior</text><text fill="#000000" font-family="sans-serif" font-size="14" lengthAdjust="spacing" textLength="147" x="5275" y="918.4707">4() : Ratings &amp; Reviews</text><text fill="#000000" font-family="sans-serif" font-size="14" lengthAdjust="spacing" textLength="97" x="5275" y="936.0801">5() : Multimedia</text><text fill="#000000" font-family="sans-serif" font-size="14" lengthAdjust="spacing" textLength="124" x="5275" y="953.6895">6() : Textual/Survey</text></g><!--class PrimaryUserSourced--><g id="elem_PrimaryUserSourced"><rect codeLine="215" fill="#F1F1F1" height="100.8281" id="PrimaryUserSourced" rx="2.5" ry="2.5" style="stroke:#181818;stroke-width:0.5;" width="162" x="5463.5" y="833.6094"/><ellipse cx="5478.5" cy="849.6094" fill="#EB937F" rx="11" ry="11" style="stroke:#181818;stroke-width:1.0;"/><path d="M5477.3594,850.4063 L5477.3594,852.9063 L5481.6875,852.9063 L5481.6875,851.9844 Q5481.6875,851.375 5481.9219,851.1094 Q5482.1719,850.8438 5482.5469,850.8438 Q5482.9219,850.8438 5483.1563,851.1094 Q5483.3906,851.375 5483.3906,851.9844 L5483.3906,854.6094 L5475.3906,854.6094 Q5474.7656,854.6094 5474.5,854.375 Q5474.25,854.1406 5474.25,853.75 Q5474.25,853.375 5474.5156,853.1406 Q5474.7813,852.9063 5475.3906,852.9063 L5475.6563,852.9063 L5475.6563,846.25 L5475.3906,846.25 Q5474.7656,846.25 5474.5,846.0156 Q5474.25,845.7813 5474.25,845.3906 Q5474.25,845.0156 5474.5,844.7813 Q5474.7656,844.5469 5475.3906,844.5469 L5483.0156,844.5469 L5483.0156,847.1406 Q5483.0156,847.75 5482.7813,848.0156 Q5482.5625,848.2656 5482.1719,848.2656 Q5481.7969,848.2656 5481.5625,848.0156 Q5481.3281,847.75 5481.3281,847.1406 L5481.3281,846.25 L5477.3594,846.25 L5477.3594,848.7031 L5478.8438,848.7031 Q5478.8438,848.0469 5478.9688,847.8594 Q5479.2344,847.4531 5479.7031,847.4531 Q5480.0781,847.4531 5480.3125,847.7188 Q5480.5469,847.9688 5480.5469,848.5781 L5480.5469,850.5469 Q5480.5469,851.0938 5480.4219,851.2813 Q5480.1563,851.6719 5479.7031,851.6719 Q5479.2344,851.6719 5478.9688,851.2656 Q5478.8438,851.0781 5478.8438,850.4063 L5477.3594,850.4063 Z " fill="#000000"/><text fill="#000000" font-family="sans-serif" font-size="14" lengthAdjust="spacing" textLength="130" x="5492.5" y="855.3379">PrimaryUserSourced</text><line style="stroke:#181818;stroke-width:0.5;" x1="5464.5" x2="5624.5" y1="865.6094" y2="865.6094"/><line style="stroke:#181818;stroke-width:0.5;" x1="5464.5" x2="5624.5" y1="873.6094" y2="873.6094"/><text fill="#000000" font-family="sans-serif" font-size="14" lengthAdjust="spacing" textLength="74" x="5469.5" y="892.1426">1() : Survey</text><text fill="#000000" font-family="sans-serif" font-size="14" lengthAdjust="spacing" textLength="85" x="5469.5" y="909.752">2() : Interview</text><text fill="#000000" font-family="sans-serif" font-size="14" lengthAdjust="spacing" textLength="66" x="5469.5" y="927.3613">3() : Event</text></g><!--class IntendedUse--><g id="elem_IntendedUse"><rect codeLine="234" fill="#F1F1F1" height="171.2656" id="IntendedUse" rx="2.5" ry="2.5" style="stroke:#181818;stroke-width:0.5;" width="269" x="5661" y="798.6094"/><ellipse cx="5751.75" cy="814.6094" fill="#EB937F" rx="11" ry="11" style="stroke:#181818;stroke-width:1.0;"/><path d="M5750.6094,815.4063 L5750.6094,817.9063 L5754.9375,817.9063 L5754.9375,816.9844 Q5754.9375,816.375 5755.1719,816.1094 Q5755.4219,815.8438 5755.7969,815.8438 Q5756.1719,815.8438 5756.4063,816.1094 Q5756.6406,816.375 5756.6406,816.9844 L5756.6406,819.6094 L5748.6406,819.6094 Q5748.0156,819.6094 5747.75,819.375 Q5747.5,819.1406 5747.5,818.75 Q5747.5,818.375 5747.7656,818.1406 Q5748.0313,817.9063 5748.6406,817.9063 L5748.9063,817.9063 L5748.9063,811.25 L5748.6406,811.25 Q5748.0156,811.25 5747.75,811.0156 Q5747.5,810.7813 5747.5,810.3906 Q5747.5,810.0156 5747.75,809.7813 Q5748.0156,809.5469 5748.6406,809.5469 L5756.2656,809.5469 L5756.2656,812.1406 Q5756.2656,812.75 5756.0313,813.0156 Q5755.8125,813.2656 5755.4219,813.2656 Q5755.0469,813.2656 5754.8125,813.0156 Q5754.5781,812.75 5754.5781,812.1406 L5754.5781,811.25 L5750.6094,811.25 L5750.6094,813.7031 L5752.0938,813.7031 Q5752.0938,813.0469 5752.2188,812.8594 Q5752.4844,812.4531 5752.9531,812.4531 Q5753.3281,812.4531 5753.5625,812.7188 Q5753.7969,812.9688 5753.7969,813.5781 L5753.7969,815.5469 Q5753.7969,816.0938 5753.6719,816.2813 Q5753.4063,816.6719 5752.9531,816.6719 Q5752.4844,816.6719 5752.2188,816.2656 Q5752.0938,816.0781 5752.0938,815.4063 L5750.6094,815.4063 Z " fill="#000000"/><text fill="#000000" font-family="sans-serif" font-size="14" lengthAdjust="spacing" textLength="79" x="5772.25" y="820.3379">IntendedUse</text><line style="stroke:#181818;stroke-width:0.5;" x1="5662" x2="5929" y1="830.6094" y2="830.6094"/><line style="stroke:#181818;stroke-width:0.5;" x1="5662" x2="5929" y1="838.6094" y2="838.6094"/><text fill="#000000" font-family="sans-serif" font-size="14" lengthAdjust="spacing" textLength="176" x="5667" y="857.1426">1() : Machine Learning (ML)</text><text fill="#000000" font-family="sans-serif" font-size="14" lengthAdjust="spacing" textLength="257" x="5667" y="874.752">2() : Natural Language Processing (NLP)</text><text fill="#000000" font-family="sans-serif" font-size="14" lengthAdjust="spacing" textLength="127" x="5667" y="892.3613">3() : Expert Systems</text><text fill="#000000" font-family="sans-serif" font-size="14" lengthAdjust="spacing" textLength="68" x="5667" y="909.9707">4() : Vision</text><text fill="#000000" font-family="sans-serif" font-size="14" lengthAdjust="spacing" textLength="78" x="5667" y="927.5801">5() : Speech</text><text fill="#000000" font-family="sans-serif" font-size="14" lengthAdjust="spacing" textLength="85" x="5667" y="945.1895">6() : Planning</text><text fill="#000000" font-family="sans-serif" font-size="14" lengthAdjust="spacing" textLength="85" x="5667" y="962.7988">7() : Robotics</text></g><!--class RestrictedAudience--><g id="elem_RestrictedAudience"><rect codeLine="243" fill="#F1F1F1" height="153.6563" id="RestrictedAudience" rx="2.5" ry="2.5" style="stroke:#181818;stroke-width:0.5;" width="190" x="5965.5" y="807.1094"/><ellipse cx="5996.25" cy="823.1094" fill="#EB937F" rx="11" ry="11" style="stroke:#181818;stroke-width:1.0;"/><path d="M5995.1094,823.9063 L5995.1094,826.4063 L5999.4375,826.4063 L5999.4375,825.4844 Q5999.4375,824.875 5999.6719,824.6094 Q5999.9219,824.3438 6000.2969,824.3438 Q6000.6719,824.3438 6000.9063,824.6094 Q6001.1406,824.875 6001.1406,825.4844 L6001.1406,828.1094 L5993.1406,828.1094 Q5992.5156,828.1094 5992.25,827.875 Q5992,827.6406 5992,827.25 Q5992,826.875 5992.2656,826.6406 Q5992.5313,826.4063 5993.1406,826.4063 L5993.4063,826.4063 L5993.4063,819.75 L5993.1406,819.75 Q5992.5156,819.75 5992.25,819.5156 Q5992,819.2813 5992,818.8906 Q5992,818.5156 5992.25,818.2813 Q5992.5156,818.0469 5993.1406,818.0469 L6000.7656,818.0469 L6000.7656,820.6406 Q6000.7656,821.25 6000.5313,821.5156 Q6000.3125,821.7656 5999.9219,821.7656 Q5999.5469,821.7656 5999.3125,821.5156 Q5999.0781,821.25 5999.0781,820.6406 L5999.0781,819.75 L5995.1094,819.75 L5995.1094,822.2031 L5996.5938,822.2031 Q5996.5938,821.5469 5996.7188,821.3594 Q5996.9844,820.9531 5997.4531,820.9531 Q5997.8281,820.9531 5998.0625,821.2188 Q5998.2969,821.4688 5998.2969,822.0781 L5998.2969,824.0469 Q5998.2969,824.5938 5998.1719,824.7813 Q5997.9063,825.1719 5997.4531,825.1719 Q5996.9844,825.1719 5996.7188,824.7656 Q5996.5938,824.5781 5996.5938,823.9063 L5995.1094,823.9063 Z " fill="#000000"/><text fill="#000000" font-family="sans-serif" font-size="14" lengthAdjust="spacing" textLength="123" x="6013.75" y="828.8379">RestrictedAudience</text><line style="stroke:#181818;stroke-width:0.5;" x1="5966.5" x2="6154.5" y1="839.1094" y2="839.1094"/><line style="stroke:#181818;stroke-width:0.5;" x1="5966.5" x2="6154.5" y1="847.1094" y2="847.1094"/><text fill="#000000" font-family="sans-serif" font-size="14" lengthAdjust="spacing" textLength="161" x="5971.5" y="865.6426">1() : Federal Government</text><text fill="#000000" font-family="sans-serif" font-size="14" lengthAdjust="spacing" textLength="145" x="5971.5" y="883.252">2() : State Government</text><text fill="#000000" font-family="sans-serif" font-size="14" lengthAdjust="spacing" textLength="146" x="5971.5" y="900.8613">3() : Local Government</text><text fill="#000000" font-family="sans-serif" font-size="14" lengthAdjust="spacing" textLength="178" x="5971.5" y="918.4707">4() : Not-for-profit / Charities</text><text fill="#000000" font-family="sans-serif" font-size="14" lengthAdjust="spacing" textLength="165" x="5971.5" y="936.0801">5() : Academia / Research</text><text fill="#000000" font-family="sans-serif" font-size="14" lengthAdjust="spacing" textLength="173" x="5971.5" y="953.6895">6() : Commercial / Business</text></g><!--reverse link Metadata to WhereFrom--><g id="link_Metadata_WhereFrom"><path codeLine="17" d="M2141.7604,251.0782 C2135.6704,251.6382 2141.55,251.0794 2135.5,251.6094 C1797.86,281.1794 943.41,243.0094 611.5,311.6094 C547.46,324.8494 479.36,349.7794 423.26,373.4994 " fill="none" id="Metadata-backto-WhereFrom" style="stroke:#181818;stroke-width:1.0;"/><polygon fill="#181818" points="2153.71,249.9794,2147.3689,246.5456,2141.7604,251.0782,2148.1015,254.512,2153.71,249.9794" style="stroke:#181818;stroke-width:1.0;"/></g><!--reverse link Metadata to Source--><g id="link_Metadata_Source"><path codeLine="18" d="M2141.7519,250.9867 C2135.6719,251.6067 2141.54,251.0094 2135.5,251.6094 C1715.85,293.4194 1599.22,215.8594 1188.5,311.6094 C1177.29,314.2194 1165.96,317.2294 1154.6,320.5494 " fill="none" id="Metadata-backto-Source" style="stroke:#181818;stroke-width:1.0;"/><polygon fill="#181818" points="2153.69,249.7694,2147.3152,246.3987,2141.7519,250.9867,2148.1267,254.3574,2153.69,249.7694" style="stroke:#181818;stroke-width:1.0;"/></g><!--reverse link Metadata to LegalRights--><g id="link_Metadata_LegalRights"><path codeLine="19" d="M2494.1829,254.7402 C2354.5429,292.3502 2211.58,330.8594 2086.31,364.5994 " fill="none" id="Metadata-backto-LegalRights" style="stroke:#181818;stroke-width:1.0;"/><polygon fill="#181818" points="2505.77,251.6194,2498.9362,249.3174,2494.1829,254.7402,2501.0167,257.0421,2505.77,251.6194" style="stroke:#181818;stroke-width:1.0;"/></g><!--reverse link Metadata to PrivacyProtection--><g id="link_Metadata_PrivacyProtection"><path codeLine="20" d="M2884.5,263.8194 C2884.5,304.7994 2884.5,338.5194 2884.5,373.5994 " fill="none" id="Metadata-backto-PrivacyProtection" style="stroke:#181818;stroke-width:1.0;"/><polygon fill="#181818" points="2884.5,251.8194,2880.5,257.8194,2884.5,263.8194,2888.5,257.8194,2884.5,251.8194" style="stroke:#181818;stroke-width:1.0;"/></g><!--reverse link Metadata to DataType--><g id="link_Metadata_DataType"><path codeLine="21" d="M3259.2329,254.8644 C3393.1329,292.4744 3529.78,330.8594 3649.91,364.5994 " fill="none" id="Metadata-backto-DataType" style="stroke:#181818;stroke-width:1.0;"/><polygon fill="#181818" points="3247.68,251.6194,3252.3748,257.0928,3259.2329,254.8644,3254.5381,249.3909,3247.68,251.6194" style="stroke:#181818;stroke-width:1.0;"/></g><!--reverse link Metadata to GenerationMethod--><g id="link_Metadata_GenerationMethod"><path codeLine="22" d="M3627.1196,181.7429 C3905.2296,204.6129 4211.27,243.1994 4494.5,311.6094 C4500.46,313.0494 4506.46,314.5794 4512.49,316.1894 " fill="none" id="Metadata-backto-GenerationMethod" style="stroke:#181818;stroke-width:1.0;"/><polygon fill="#181818" points="3615.16,180.7594,3620.812,185.2377,3627.1196,181.7429,3621.4676,177.2646,3615.16,180.7594" style="stroke:#181818;stroke-width:1.0;"/></g><!--reverse link Metadata to UseAndRestrictions--><g id="link_Metadata_UseAndRestrictions"><path codeLine="23" d="M3627.2396,185.2887 C4061.3096,210.6287 4610.02,250.6094 5105.5,311.6094 C5252.73,329.7394 5416.34,357.8394 5547.28,382.2894 " fill="none" id="Metadata-backto-UseAndRestrictions" style="stroke:#181818;stroke-width:1.0;"/><polygon fill="#181818" points="3615.26,184.5894,3621.0167,188.9322,3627.2396,185.2887,3621.4829,180.9458,3615.26,184.5894" style="stroke:#181818;stroke-width:1.0;"/></g><!--reverse link Data to Metadata--><g id="link_Data_Metadata"><path codeLine="24" d="M2124.63,148.6094 C2136.35,148.6094 2142.07,148.6094 2153.78,148.6094 " fill="none" id="Data-backto-Metadata" style="stroke:#181818;stroke-width:1.0;"/><polygon fill="#181818" points="2118.63,148.6094,2127.63,152.6094,2123.63,148.6094,2127.63,144.6094,2118.63,148.6094" style="stroke:#181818;stroke-width:1.0;"/></g><!--link LegalRights to LawsAndRegulations--><g id="link_LegalRights_LawsAndRegulations"><path codeLine="57" d="M1837.5,500.8994 C1837.5,532.2494 1837.5,571.8194 1837.5,613.5294 " fill="none" id="LegalRights-LawsAndRegulations" style="stroke:#181818;stroke-width:1.0;"/></g><!--link PrivacyProtection to ProtectedDataClassification--><g id="link_PrivacyProtection_ProtectedDataClassification"><path codeLine="98" d="M2858.04,491.9094 C2818.91,578.1394 2746.02,738.7394 2706.91,824.9094 " fill="none" id="PrivacyProtection-ProtectedDataClassification" style="stroke:#181818;stroke-width:1.0;"/></g><!--link PrivacyProtection to AppliedPrivacy--><g id="link_PrivacyProtection_AppliedPrivacy"><path codeLine="99" d="M2910.96,491.9094 C2951.44,581.1094 3028.04,749.8894 3066,833.5394 " fill="none" id="PrivacyProtection-AppliedPrivacy" style="stroke:#181818;stroke-width:1.0;"/></g><!--link GenerationMethod to Web--><g id="link_GenerationMethod_Web"><path codeLine="140" d="M4512.48,548.9694 C4506.45,550.5994 4500.46,552.1494 4494.5,553.6094 C4374.02,583.1794 4034.37,533.6794 3939.5,613.6094 C3880.89,662.9894 3865.25,753.6194 3861.89,816.0494 " fill="none" id="GenerationMethod-Web" style="stroke:#181818;stroke-width:1.0;"/></g><!--link GenerationMethod to Feeds--><g id="link_GenerationMethod_Feeds"><path codeLine="141" d="M4512.29,548.2794 C4506.33,550.1194 4500.39,551.8994 4494.5,553.6094 C4360.16,592.6394 4295.4,527.0394 4185.5,613.6094 C4121.97,663.6594 4090.08,753.8994 4074.93,816.0794 " fill="none" id="GenerationMethod-Feeds" style="stroke:#181818;stroke-width:1.0;"/></g><!--link GenerationMethod to Syndication--><g id="link_GenerationMethod_Syndication"><path codeLine="142" d="M4512.45,548.8294 C4431.4,581.7394 4363.99,609.8394 4360.5,613.6094 C4306.19,672.2094 4285.78,765.0094 4278.11,824.9694 " fill="none" id="GenerationMethod-Syndication" style="stroke:#181818;stroke-width:1.0;"/></g><!--link GenerationMethod to DataMining--><g id="link_GenerationMethod_DataMining"><path codeLine="143" d="M4611.47,553.7994 C4590.82,572.1194 4571.52,592.1494 4555.5,613.6094 C4512.51,671.1894 4487.15,749.6294 4473.21,807.0394 " fill="none" id="GenerationMethod-DataMining" style="stroke:#181818;stroke-width:1.0;"/></g><!--link GenerationMethod to MachineGenerated--><g id="link_GenerationMethod_MachineGenerated"><path codeLine="144" d="M4767.89,553.7694 C4746.04,634.2594 4717.94,737.7794 4699.14,807.0794 " fill="none" id="GenerationMethod-MachineGenerated" style="stroke:#181818;stroke-width:1.0;"/></g><!--link GenerationMethod to Sensor--><g id="link_GenerationMethod_Sensor"><path codeLine="145" d="M4832.85,553.7694 C4851.92,624.6394 4875.81,713.3594 4893.98,780.8594 " fill="none" id="GenerationMethod-Sensor" style="stroke:#181818;stroke-width:1.0;"/></g><!--link GenerationMethod to SocialMedia--><g id="link_GenerationMethod_SocialMedia"><path codeLine="146" d="M4984.99,553.7094 C5005.73,572.1294 5025.22,592.2094 5041.5,613.6094 C5083.23,668.4594 5110.4,741.9594 5126.62,798.3494 " fill="none" id="GenerationMethod-SocialMedia" style="stroke:#181818;stroke-width:1.0;"/></g><!--link GenerationMethod to UserGenerated--><g id="link_GenerationMethod_UserGenerated"><path codeLine="147" d="M5088.78,507.1894 C5148.08,533.0394 5205.93,567.5994 5250.5,613.6094 C5301.51,666.2594 5326.26,747.5094 5338.09,807.0294 " fill="none" id="GenerationMethod-UserGenerated" style="stroke:#181818;stroke-width:1.0;"/></g><!--link GenerationMethod to PrimaryUserSourced--><g id="link_GenerationMethod_PrimaryUserSourced"><path codeLine="148" d="M5088.66,455.8694 C5211.68,478.8894 5348.86,524.3994 5445.5,613.6094 C5508.31,671.5894 5531.4,772.8394 5539.79,833.3594 " fill="none" id="GenerationMethod-PrimaryUserSourced" style="stroke:#181818;stroke-width:1.0;"/></g><!--link UseAndRestrictions to IntendedUse--><g id="link_UseAndRestrictions_IntendedUse"><path codeLine="231" d="M5795.5,509.8594 C5795.5,589.8894 5795.5,715.3794 5795.5,798.4394 " fill="none" id="UseAndRestrictions-IntendedUse" style="stroke:#181818;stroke-width:1.0;"/></g><!--link UseAndRestrictions to RestrictedAudience--><g id="link_UseAndRestrictions_RestrictedAudience"><path codeLine="232" d="M5868.75,509.8094 C5895.77,540.4694 5925.19,577.1494 5947.5,613.6094 C5985.1,675.0594 6015.76,751.2594 6035.6,806.9394 " fill="none" id="UseAndRestrictions-RestrictedAudience" style="stroke:#181818;stroke-width:1.0;"/></g><!--SRC=[rLdRRYEt6RwVf-3LGWui7-Hai-kB0hBbzIhnGP7iRT6W5zGC9H4xGqv8ZhHAiK1VezUzw8FaJVea_NyUPYZDo46GRe7unXBvypz-_u6KuIPdP4GD9HCbrqnGaJBI9yDgMMb31cU3YoHXmd2pjLH9GkVQA9eQakPKQtBF3Ctm-DyJ0dyyG-85PufSafbHN2n_F3yvEVyRyYILu3zLZEHqpl90kWKIObQCb8ty8Z2L2xkLLae1CS4rpOoLb7F1w9A1c3-lc6Blb2n-F3iv-GebZMijDB8e9HV6VwvPArOgff7EoxUhcnLFLoILHQcuPWU5Qrcf56NFx0TlOYrMsuDIyIKNf5U2Q2cEuVkI2lupDHo_wQqsh3Wc6Llpb1qJPjAZ5-rbIvfF-N9bDCYzQxwrhNRYxG4G2fOkgvmQgRPaeMZ1Db9z9BGiSvxIEKJVo2wXnuJc4bopuMPbznNxgUAAPSvHr41mvnNQee5KQvboQc0tbULMeM8e6f2IiOAgZq0YCfBBbERU0tO1OfuohJ44ddq1AcXhC4HWJTCjmDAmr9wu18pkhNKPJyMMc6t9RBmXmfeRllRnZHIj3Tipt2g6FBm2X8aLeDB2XAKh2s7j_CSog-cI2QQiKJQHBf4JU-85gw6FNxIXHKdG6G5ngMBE5I-47Jy_WJ70TUG_8jUkW5i3qN28WJ0KyYCZWB-OiukhS_mQ4b03WNQOWXIHP2Kt3Ikk0sHPTamuq9JWTf08iAeWEL9GKZjsLiQAvZaJItJEdfV1VrcELYDjPSFDpPxhe92iP0PctkujTPcxe-U6QhGdgrAGrxDB1HSWv1YydQx03tql1kqOooSB2gcqJRgJ8rUue4A8Z6NFcWr5DeLeAMuHXjdMNZoKT86DTP0FgmCUMEwAIoOt0XWnMX1QPPn1mTD4hsILPqH8G-OCCY-N6s12KyoE0mcQV4wIklf-rKUs_QOMalQUgrKT6r4nwTXjvLm7JO1cUsS_ccsAjdCRcdxE5gR_f-xMqzZgUiyNh_fz-BCVN1yRPqsFE_E9_YoWr2WD6HArqzgSPzV_6aKjjpcKnOzTpAvm0z8AaZXdsH9wwdXaJqZGK7MTUCGDfFhSyfQF_fwhlaIdQjoacNg0XjFX9jWHiEEiYQHrapz65AG-f-N2RAZge9-5dORMsj11wTPhEbymseJtVgFXQ6j81qUxVefbnZciERBWUGVdTx1Qa_2oJV30Z6tPI8HDTJmXDCi0nhe1G_kKM-u0GfpjdMZuemyEDVuYKVNWjEUbOKD2h73jmt3em7NGKk-ewOwXcbPQKypQ7AOxxj3WNXnZWLbaqvB9mCinfXixzS4_MojjN48VSeOqOR74w2JLq24Eui27ojzYYDD-LNHi05REUqUWnFMAvu0-yPz__5EJHu5pUEWH96eIGm1Sx_fnCXaU9GDxSAYMjl1IcEDieG6KXPl7pgd920zTs4DNTAMW0Bvm15IrH-wEag_T4KL_vZdEo1pQZu8Z6NC7VldtB_-I-6r4Cwc19Q2FmfZJkxkTZ8wIRvnzWBI5L89J2BRGLG5f5EnpHbsZUg_tYLzs1TJBmTdP1PockNFAjvw1WDuGcJSMmAzmI8zuO3nlSlYYfE0f6ScqieZt7XjFRaR0yqs8aA1GDZwPgFs2-p77Ksvb69RdV8cp1ncnDSjbYTp89ASYUTim0V32xBQ45aHYA3ZL2bbtqPY7xmp3COZ9u1AfjidvcMC9e8Q4aNlkX5Nqnxc7bnG2RKuh4q8T4rjed3j0tLHAbemAxAjIXCcnZP16TTAx7KscmC21wnQgMj6_Or3R-rSvr64lvVRk2gKuEBrdD8TADWOeADlE9r8PEkSvteanBCCqbPMeboo7z-F945auI8sreYo_xC96poexOr14uV1HxERat67iErfIiCwYo8tpqNdmTYTqUiF9P0mAE9HzpyIMNdPbMtBkC7DFKG5UwKwgOm3l-RUWhFM-0yW3sv2_Wc_01PSxGHgS3SwIWGlv0u1CGNAy59876vA12_yFGAXifICFyeISNxZCEN-T35pGOOw1Q0mNK5ynRNxT4ov17YTZB4GN4O_l9GpXlvvv8S7mk4F4KwK-igrJSfSsri6QZ3QyVltsJJ9mI7Y6GIRhY0JYAFAXzVVRPE00yAogPKMttV4Rk0W_6xewKA-URRqQk3X_u0f6lRYsTPRW3oxHsjD3-pRGcY7-x_Vlkk6NJYkMeKtNg2zMF5e_7XpSzMtKJGsESt3XfMkjzO8ZRIQlXYxky-Yvjglg6zL1HGuVsjN2j-aNEDNzkgPfAbbK9YRlnw4_1-JcspgQTfxOfH-FGsl-FONnwns9C0FZJOdl9I7-eIEjgRlsrzPPz3Ql2AIdjmB20lqZc3LorsyfjeMV8Bt-TWEmBNHatmhQMY5L2JT205wgjYMk7mLLzh8Xt7kx1-a_ueDCdKjWPvMQ2WRLUvRny0PLV_OPipAcl3mztMms9nmccHFGxnHHk1HsEZajaBvlgy7f7jl7xdjBG-2B2Bw9P6nXlJVVEWtwg8BsT_7Pbz4qPdn0rqhy5cq1FYq0xJ-Fj87qlt_ggaEyONDyFcVpgAOj6Clmgl4E_qVha5PPKqfdpRU81lMvj-hux79V8Wglv6tGqGuUkqknpFgARJ_4EuZct3hNjlFwMqI3hm-neEVuUqG7RGPkS5lSTcyacNjetblSh_k77byA5qV4GIepw52V4vAqmXoUwzZyu9wDmC7TA087QPeG72JPz_vXUJO4XxUR41oasGd0GQgsvnFV0S1PTTb_OfygcliAt-Ifh-pXmSstcLYvRyBiYlbesLe_ruodircuhax6djqK6Xs-uAC_vr1ZiKTvrdYJKcktdUtiEq7uk8C2x98N68Mk5eiA8PsNNVT3ktRHikBhqDcX4fXh49lBPM3VHBtcFlJbtqxULSwybBtHuy8lmfsD8R2z51ZLyQq9APnDGo4B2aF2YFaHnT-5PmmcCpke1LNsqLKhD0jDsciImB1cNekd3HTUlcVI7_J36rplVd0VRkjmpUHYmHG6twdnbobSVgR77wR7zzEZskUkb0JvDsBDuIADbRz6qRsq_db5xkIEGzoO4zuMk8G4Xxk75ty3UY-tVfWk8sVukozqPfyvRap_m62mW9dg5Nd2mQF4YScUUkDTwEw1i3y3N36UvpXP-IlvS0c2gnoH3WIH3RMLKLcCCiMGAq1bmDOzSE2sszNmNdFcduoc5E_qsblxNE8lMThR-iEheGxF7X8KcqiVCl-ION_DWgzUcPrqRrwFSfv-T3z_XEorIhjE6Hvzs8gkEJZD8z0f1JPxLRr2aIMlQrkXB9pEAl3TDYZIhYWD3XtX8CfbuE-rk5axr-xtx8wVY3h7lz_sMv2xU_ok7uHscdlqWvQtpN_RRsJZ7SBk7nI29KZJT3PaeRmRM3Rqkbj4xI_65omhTTfrhbDuGqbgqhYx9XtnyBqaCkq5ghOglk74dWc82JNeZb5bQspl_YxSD1uef2P0-OuAkAylxJjDUD7jFTnDmiNfvbF9bF6_FOHS-y2Z4Zih6LnrFQhnKSusSPTdKpc7IfNM_Ql3aq7PToop3sAtSisKhHIaRfcGbJlhJZMiVJ6zL-v1cZvSalemUowu8QVaUaNnkQYk3SCK7yAXx9oYFk2RMljhMHHCsHG_9LTury0VBZud_mK0]--></g></svg>