<?xml version="1.0" encoding="us-ascii" standalone="no"?><svg xmlns="http://www.w3.org/2000/svg" xmlns:xlink="http://www.w3.org/1999/xlink" contentStyleType="text/css" height="504px" preserveAspectRatio="none" style="width:925px;height:504px;background:#FFFFFF;" version="1.1" viewBox="0 0 925 504" width="925px" zoomAndPan="magnify"><defs/><g><text fill="#000000" font-family="sans-serif" font-size="14" font-weight="bold" lengthAdjust="spacing" textLength="120" x="395.75" y="24.5332">Data Provenance</text><!--class Data--><g id="elem_Data"><rect codeLine="3" fill="#F1F1F1" height="48" id="Data" rx="2.5" ry="2.5" style="stroke:#181818;stroke-width:0.5;" width="62" x="266.5" y="72.1094"/><ellipse cx="281.5" cy="88.1094" fill="#ADD1B2" rx="11" ry="11" style="stroke:#181818;stroke-width:1.0;"/><path d="M280.3594,88.9063 L280.3594,91.4063 L284.6875,91.4063 L284.6875,90.4844 Q284.6875,89.875 284.9219,89.6094 Q285.1719,89.3438 285.5469,89.3438 Q285.9219,89.3438 286.1563,89.6094 Q286.3906,89.875 286.3906,90.4844 L286.3906,93.1094 L278.3906,93.1094 Q277.7656,93.1094 277.5,92.875 Q277.25,92.6406 277.25,92.25 Q277.25,91.875 277.5156,91.6406 Q277.7813,91.4063 278.3906,91.4063 L278.6563,91.4063 L278.6563,84.75 L278.3906,84.75 Q277.7656,84.75 277.5,84.5156 Q277.25,84.2813 277.25,83.8906 Q277.25,83.5156 277.5,83.2813 Q277.7656,83.0469 278.3906,83.0469 L286.0156,83.0469 L286.0156,85.6406 Q286.0156,86.25 285.7813,86.5156 Q285.5625,86.7656 285.1719,86.7656 Q284.7969,86.7656 284.5625,86.5156 Q284.3281,86.25 284.3281,85.6406 L284.3281,84.75 L280.3594,84.75 L280.3594,87.2031 L281.8438,87.2031 Q281.8438,86.5469 281.9688,86.3594 Q282.2344,85.9531 282.7031,85.9531 Q283.0781,85.9531 283.3125,86.2188 Q283.5469,86.4688 283.5469,87.0781 L283.5469,89.0469 Q283.5469,89.5938 283.4219,89.7813 Q283.1563,90.1719 282.7031,90.1719 Q282.2344,90.1719 281.9688,89.7656 Q281.8438,89.5781 281.8438,88.9063 L280.3594,88.9063 Z " fill="#000000"/><text fill="#000000" font-family="sans-serif" font-size="14" lengthAdjust="spacing" textLength="30" x="295.5" y="93.8379">Data</text><line style="stroke:#181818;stroke-width:0.5;" x1="267.5" x2="327.5" y1="104.1094" y2="104.1094"/><line style="stroke:#181818;stroke-width:0.5;" x1="267.5" x2="327.5" y1="112.1094" y2="112.1094"/></g><!--class Metadata--><g id="elem_Metadata"><rect codeLine="5" fill="#F1F1F1" height="100.8281" id="Metadata" rx="2.5" ry="2.5" style="stroke:#181818;stroke-width:0.5;" width="207" x="364" y="45.6094"/><ellipse cx="433.25" cy="61.6094" fill="#A9DCDF" rx="11" ry="11" style="stroke:#181818;stroke-width:1.0;"/><path d="M435.4375,63.375 L431.2969,63.375 L430.875,64.4063 L431.2969,64.4063 Q431.9063,64.4063 432.1719,64.6406 Q432.4375,64.875 432.4375,65.2656 Q432.4375,65.6406 432.1719,65.875 Q431.9063,66.1094 431.2969,66.1094 L429,66.1094 Q428.3906,66.1094 428.1406,65.875 Q427.875,65.6406 427.875,65.25 Q427.875,64.875 428.1563,64.6406 Q428.4219,64.3906 429.0469,64.4063 L431.7188,57.75 L430.6094,57.75 Q430,57.75 429.7344,57.5156 Q429.4688,57.2813 429.4688,56.8906 Q429.4688,56.5156 429.7344,56.2813 Q430,56.0469 430.6094,56.0469 L434.2813,56.0469 L437.6719,64.4063 Q438.2656,64.4063 438.4531,64.5469 Q438.8438,64.8125 438.8438,65.2656 Q438.8438,65.6406 438.5781,65.875 Q438.3281,66.1094 437.7188,66.1094 L435.4219,66.1094 Q434.8125,66.1094 434.5469,65.875 Q434.2813,65.6406 434.2813,65.25 Q434.2813,64.875 434.5469,64.6406 Q434.8125,64.4063 435.4219,64.4063 L435.8438,64.4063 L435.4375,63.375 Z M434.7188,61.6719 L433.3594,58.2969 L431.9844,61.6719 L434.7188,61.6719 Z " fill="#000000"/><text fill="#000000" font-family="sans-serif" font-size="14" font-style="italic" lengthAdjust="spacing" textLength="60" x="453.75" y="67.3379">Metadata</text><line style="stroke:#181818;stroke-width:0.5;" x1="365" x2="570" y1="77.6094" y2="77.6094"/><text fill="#000000" font-family="sans-serif" font-size="14" lengthAdjust="spacing" textLength="132" x="370" y="96.1426">source : Source[1..1]</text><text fill="#000000" font-family="sans-serif" font-size="14" lengthAdjust="spacing" textLength="195" x="370" y="113.752">provenance : Provenance[1..1]</text><text fill="#000000" font-family="sans-serif" font-size="14" lengthAdjust="spacing" textLength="91" x="370" y="131.3613">use : Use[1..1]</text><line style="stroke:#181818;stroke-width:0.5;" x1="365" x2="570" y1="138.4375" y2="138.4375"/></g><!--class Source--><g id="elem_Source"><rect codeLine="16" fill="#F1F1F1" height="171.2656" id="Source" rx="2.5" ry="2.5" style="stroke:#181818;stroke-width:0.5;" width="309" x="7" y="266.6094"/><ellipse cx="134.75" cy="282.6094" fill="#A9DCDF" rx="11" ry="11" style="stroke:#181818;stroke-width:1.0;"/><path d="M136.9375,284.375 L132.7969,284.375 L132.375,285.4063 L132.7969,285.4063 Q133.4063,285.4063 133.6719,285.6406 Q133.9375,285.875 133.9375,286.2656 Q133.9375,286.6406 133.6719,286.875 Q133.4063,287.1094 132.7969,287.1094 L130.5,287.1094 Q129.8906,287.1094 129.6406,286.875 Q129.375,286.6406 129.375,286.25 Q129.375,285.875 129.6563,285.6406 Q129.9219,285.3906 130.5469,285.4063 L133.2188,278.75 L132.1094,278.75 Q131.5,278.75 131.2344,278.5156 Q130.9688,278.2813 130.9688,277.8906 Q130.9688,277.5156 131.2344,277.2813 Q131.5,277.0469 132.1094,277.0469 L135.7813,277.0469 L139.1719,285.4063 Q139.7656,285.4063 139.9531,285.5469 Q140.3438,285.8125 140.3438,286.2656 Q140.3438,286.6406 140.0781,286.875 Q139.8281,287.1094 139.2188,287.1094 L136.9219,287.1094 Q136.3125,287.1094 136.0469,286.875 Q135.7813,286.6406 135.7813,286.25 Q135.7813,285.875 136.0469,285.6406 Q136.3125,285.4063 136.9219,285.4063 L137.3438,285.4063 L136.9375,284.375 Z M136.2188,282.6719 L134.8594,279.2969 L133.4844,282.6719 L136.2188,282.6719 Z " fill="#000000"/><text fill="#000000" font-family="sans-serif" font-size="14" font-style="italic" lengthAdjust="spacing" textLength="45" x="155.25" y="288.3379">Source</text><line style="stroke:#181818;stroke-width:0.5;" x1="8" x2="315" y1="298.6094" y2="298.6094"/><text fill="#000000" font-family="sans-serif" font-size="14" lengthAdjust="spacing" textLength="297" x="13" y="317.1426">Identifies the dataset and source of the dataset</text><line style="stroke:#181818;stroke-width:1.0;" x1="8" x2="315" y1="324.2188" y2="324.2188"/><text fill="#000000" font-family="sans-serif" font-size="14" lengthAdjust="spacing" textLength="127" x="13" y="342.752">version : String[1..1]</text><text fill="#000000" font-family="sans-serif" font-size="14" lengthAdjust="spacing" textLength="99" x="13" y="360.3613">title: String[1..1]</text><text fill="#000000" font-family="sans-serif" font-size="14" lengthAdjust="spacing" textLength="77" x="13" y="377.9707">id : URI[1..1]</text><text fill="#000000" font-family="sans-serif" font-size="14" lengthAdjust="spacing" textLength="120" x="13" y="395.5801">location : URL[0..1]</text><text fill="#000000" font-family="sans-serif" font-size="14" lengthAdjust="spacing" textLength="159" x="13" y="413.1895">issuer : Organization[1..*]</text><text fill="#000000" font-family="sans-serif" font-size="14" lengthAdjust="spacing" textLength="150" x="13" y="430.7988">description : String[1..1]</text></g><!--class Provenance--><g id="elem_Provenance"><rect codeLine="27" fill="#F1F1F1" height="220.0938" id="Provenance" rx="2.5" ry="2.5" style="stroke:#181818;stroke-width:0.5;" width="232" x="351.5" y="242.1094"/><ellipse cx="425.75" cy="258.1094" fill="#A9DCDF" rx="11" ry="11" style="stroke:#181818;stroke-width:1.0;"/><path d="M427.9375,259.875 L423.7969,259.875 L423.375,260.9063 L423.7969,260.9063 Q424.4063,260.9063 424.6719,261.1406 Q424.9375,261.375 424.9375,261.7656 Q424.9375,262.1406 424.6719,262.375 Q424.4063,262.6094 423.7969,262.6094 L421.5,262.6094 Q420.8906,262.6094 420.6406,262.375 Q420.375,262.1406 420.375,261.75 Q420.375,261.375 420.6563,261.1406 Q420.9219,260.8906 421.5469,260.9063 L424.2188,254.25 L423.1094,254.25 Q422.5,254.25 422.2344,254.0156 Q421.9688,253.7813 421.9688,253.3906 Q421.9688,253.0156 422.2344,252.7813 Q422.5,252.5469 423.1094,252.5469 L426.7813,252.5469 L430.1719,260.9063 Q430.7656,260.9063 430.9531,261.0469 Q431.3438,261.3125 431.3438,261.7656 Q431.3438,262.1406 431.0781,262.375 Q430.8281,262.6094 430.2188,262.6094 L427.9219,262.6094 Q427.3125,262.6094 427.0469,262.375 Q426.7813,262.1406 426.7813,261.75 Q426.7813,261.375 427.0469,261.1406 Q427.3125,260.9063 427.9219,260.9063 L428.3438,260.9063 L427.9375,259.875 Z M427.2188,258.1719 L425.8594,254.7969 L424.4844,258.1719 L427.2188,258.1719 Z " fill="#000000"/><text fill="#000000" font-family="sans-serif" font-size="14" font-style="italic" lengthAdjust="spacing" textLength="75" x="446.25" y="263.8379">Provenance</text><line style="stroke:#181818;stroke-width:0.5;" x1="352.5" x2="582.5" y1="274.1094" y2="274.1094"/><text fill="#000000" font-family="sans-serif" font-size="14" lengthAdjust="spacing" textLength="195" x="357.5" y="292.6426">The provenance of the dataset</text><text fill="#000000" font-family="sans-serif" font-size="14" lengthAdjust="spacing" textLength="114" x="357.5" y="331.8613">source : URL[0..1]</text><text fill="#000000" font-family="sans-serif" font-size="14" lengthAdjust="spacing" textLength="159" x="357.5" y="349.4707">origin : Organization[0..1]</text><text fill="#000000" font-family="sans-serif" font-size="14" lengthAdjust="spacing" textLength="125" x="357.5" y="367.0801">date : DateTime[1..]</text><text fill="#000000" font-family="sans-serif" font-size="14" lengthAdjust="spacing" textLength="192" x="357.5" y="384.6895">previous-date : DateTime[0..1]</text><text fill="#000000" font-family="sans-serif" font-size="14" lengthAdjust="spacing" textLength="198" x="357.5" y="402.2988">generation-period : Period[0..1]</text><text fill="#000000" font-family="sans-serif" font-size="14" lengthAdjust="spacing" textLength="214" x="357.5" y="419.9082">generation-method : Concept[1..*]</text><text fill="#000000" font-family="sans-serif" font-size="14" lengthAdjust="spacing" textLength="118" x="357.5" y="437.5176">format : String[1..*]</text><text fill="#000000" font-family="sans-serif" font-size="14" lengthAdjust="spacing" textLength="220" x="357.5" y="455.127">sub-provenance : Provenance[0..*]</text><line style="stroke:#181818;stroke-width:1.0;" x1="352.5" x2="465" y1="308.5234" y2="308.5234"/><text fill="#000000" font-family="sans-serif" font-size="14" lengthAdjust="spacing" textLength="5" x="465" y="313.752">-</text><line style="stroke:#181818;stroke-width:1.0;" x1="470" x2="582.5" y1="308.5234" y2="308.5234"/></g><!--class Use--><g id="elem_Use"><rect codeLine="42" fill="#F1F1F1" height="290.5313" id="Use" rx="2.5" ry="2.5" style="stroke:#181818;stroke-width:0.5;" width="282" x="636.5" y="206.6094"/><ellipse cx="760.75" cy="222.6094" fill="#A9DCDF" rx="11" ry="11" style="stroke:#181818;stroke-width:1.0;"/><path d="M762.9375,224.375 L758.7969,224.375 L758.375,225.4063 L758.7969,225.4063 Q759.4063,225.4063 759.6719,225.6406 Q759.9375,225.875 759.9375,226.2656 Q759.9375,226.6406 759.6719,226.875 Q759.4063,227.1094 758.7969,227.1094 L756.5,227.1094 Q755.8906,227.1094 755.6406,226.875 Q755.375,226.6406 755.375,226.25 Q755.375,225.875 755.6563,225.6406 Q755.9219,225.3906 756.5469,225.4063 L759.2188,218.75 L758.1094,218.75 Q757.5,218.75 757.2344,218.5156 Q756.9688,218.2813 756.9688,217.8906 Q756.9688,217.5156 757.2344,217.2813 Q757.5,217.0469 758.1094,217.0469 L761.7813,217.0469 L765.1719,225.4063 Q765.7656,225.4063 765.9531,225.5469 Q766.3438,225.8125 766.3438,226.2656 Q766.3438,226.6406 766.0781,226.875 Q765.8281,227.1094 765.2188,227.1094 L762.9219,227.1094 Q762.3125,227.1094 762.0469,226.875 Q761.7813,226.6406 761.7813,226.25 Q761.7813,225.875 762.0469,225.6406 Q762.3125,225.4063 762.9219,225.4063 L763.3438,225.4063 L762.9375,224.375 Z M762.2188,222.6719 L760.8594,219.2969 L759.4844,222.6719 L762.2188,222.6719 Z " fill="#000000"/><text fill="#000000" font-family="sans-serif" font-size="14" font-style="italic" lengthAdjust="spacing" textLength="25" x="781.25" y="228.3379">Use</text><line style="stroke:#181818;stroke-width:0.5;" x1="637.5" x2="917.5" y1="238.6094" y2="238.6094"/><text fill="#000000" font-family="sans-serif" font-size="14" lengthAdjust="spacing" textLength="177" x="642.5" y="257.1426">Legal, Use, and Restrictions</text><text fill="#000000" font-family="sans-serif" font-size="14" lengthAdjust="spacing" textLength="207" x="642.5" y="296.3613">classification : Classification[1..1]</text><text fill="#000000" font-family="sans-serif" font-size="14" lengthAdjust="spacing" textLength="125" x="642.5" y="313.9707">consents : URL[0..*]</text><text fill="#000000" font-family="sans-serif" font-size="14" lengthAdjust="spacing" textLength="270" x="642.5" y="331.5801">privacy-enhancing : PrivacyEnhancing[0..*]</text><text fill="#000000" font-family="sans-serif" font-size="14" lengthAdjust="spacing" textLength="222" x="642.5" y="349.1895">processing-included : Location[0..*]</text><text fill="#000000" font-family="sans-serif" font-size="14" lengthAdjust="spacing" textLength="225" x="642.5" y="366.7988">processing-excluded : Location[0..*]</text><text fill="#000000" font-family="sans-serif" font-size="14" lengthAdjust="spacing" textLength="195" x="642.5" y="384.4082">storage-allowed : Location[0..*]</text><text fill="#000000" font-family="sans-serif" font-size="14" lengthAdjust="spacing" textLength="208" x="642.5" y="402.0176">storage-forbidden : Location[0..*]</text><text fill="#000000" font-family="sans-serif" font-size="14" lengthAdjust="spacing" textLength="125" x="642.5" y="419.627">license : String[0..1]</text><text fill="#000000" font-family="sans-serif" font-size="14" lengthAdjust="spacing" textLength="206" x="642.5" y="437.2363">intended-purpose : Concept[1..*]</text><text fill="#000000" font-family="sans-serif" font-size="14" lengthAdjust="spacing" textLength="136" x="642.5" y="454.8457">copyright : String[0..*]</text><text fill="#000000" font-family="sans-serif" font-size="14" lengthAdjust="spacing" textLength="118" x="642.5" y="472.4551">patent : String[0..*]</text><text fill="#000000" font-family="sans-serif" font-size="14" lengthAdjust="spacing" textLength="142" x="642.5" y="490.0645">trademark : String[0..*]</text><line style="stroke:#181818;stroke-width:1.0;" x1="637.5" x2="772.5" y1="273.0234" y2="273.0234"/><text fill="#000000" font-family="sans-serif" font-size="14" lengthAdjust="spacing" textLength="10" x="772.5" y="278.252">--</text><line style="stroke:#181818;stroke-width:1.0;" x1="782.5" x2="917.5" y1="273.0234" y2="273.0234"/></g><!--reverse link Metadata to Source--><g id="link_Metadata_Source"><path codeLine="11" d="M397.0213,154.3945 C374.1213,173.0745 357.21,186.9594 333.5,206.6094 C310.23,225.8894 285.28,246.7494 261.81,266.4494 " fill="none" id="Metadata-backto-Source" style="stroke:#181818;stroke-width:1.0;"/><polygon fill="#181818" points="406.32,146.8094,399.1423,147.5024,397.0213,154.3945,404.199,153.7015,406.32,146.8094" style="stroke:#181818;stroke-width:1.0;"/></g><!--reverse link Metadata to Provenance--><g id="link_Metadata_Provenance"><path codeLine="12" d="M467.5,158.6894 C467.5,185.8994 467.5,208.7894 467.5,241.9994 " fill="none" id="Metadata-backto-Provenance" style="stroke:#181818;stroke-width:1.0;"/><polygon fill="#181818" points="467.5,146.6894,463.5,152.6894,467.5,158.6894,471.5,152.6894,467.5,146.6894" style="stroke:#181818;stroke-width:1.0;"/></g><!--reverse link Metadata to Use--><g id="link_Metadata_Use"><path codeLine="13" d="M549.7092,153.634 C575.3292,171.854 594.26,186.0994 619.5,206.6094 C624.98,211.0594 630.52,215.6494 636.07,220.3294 " fill="none" id="Metadata-backto-Use" style="stroke:#181818;stroke-width:1.0;"/><polygon fill="#181818" points="539.93,146.6794,542.5014,153.4164,549.7092,153.634,547.1378,146.8969,539.93,146.6794" style="stroke:#181818;stroke-width:1.0;"/></g><!--reverse link Data to Metadata--><g id="link_Data_Metadata"><path codeLine="14" d="M334.71,96.1094 C346.46,96.1094 352.2,96.1094 363.95,96.1094 " fill="none" id="Data-backto-Metadata" style="stroke:#181818;stroke-width:1.0;"/><polygon fill="#181818" points="328.71,96.1094,337.71,100.1094,333.71,96.1094,337.71,92.1094,328.71,96.1094" style="stroke:#181818;stroke-width:1.0;"/></g><!--reverse link Provenance to Provenance--><g id="link_Provenance_Provenance"><path codeLine="40" d="M595.2083,310.3509 C615.7283,316.2809 618.5,327.9894 618.5,352.1094 C618.5,376.2294 604.2,391.2694 583.68,397.1994 " fill="none" id="Provenance-backto-Provenance" style="stroke:#181818;stroke-width:1.0;"/><polygon fill="#181818" points="583.68,307.0194,588.3336,312.5279,595.2083,310.3509,590.5546,304.8424,583.68,307.0194" style="stroke:#181818;stroke-width:1.0;"/></g><!--SRC=[XLInRjim4Dtr5PoDC4ZM3bdI3W5SD72IAUX0asVvK9eKo9DJjyY_zqX95cKfZIRYthiJtxid4P85yLMH4e_17y4ffw6gm17IATUhIcqZ1QL9QAjY5D-1b4aDVol1J_Hjq22-YATyUBszlhxzcP7cF93HSNh1Q6E2Nk9GUw-gy_ILDFxDoNwic0FZn0MGPnPLQM57ycvPJ_-2Jis3IT9t257G7aJgZa12EJC8zRiIoKsIdtmuGeZeNJA30hgwa4h9w8KwckJ0vg4eMQyLTMDUDklNcv4ROmk1opz2hHp-oQpKkEfm0r47R6ZX2kypsOLzdVHdLbMix0ETShhqwGLzm1hTvGL7d8Ub9bu3FECXRts82XpHjr5UCiRU6Xo4F50s4D0dtnxpOPbq0DfdqhrdEGqLFkryE2YQMDGZiTtAZs9xarbiPE7SF8ipdrCIEuFNK2jxbGfNEL0RO2BgTDiu-jiPd7ivX-Sat4yAHLeqTtDcuxYCrU0f7fK-IN1xlXZhp79oxTjGcj2z1dw5goKwRLi3oRnrdyLb8lp-7p6I3we6gQprRv-HU2TRDFprBTCiQd3vRz7lhFWg787ZIyYc3OtFdFdAjMzE7CuzJIOCYZXjRX7XHHeugF3h4kGO_0C0]--></g></svg>
