<?xml version="1.0" encoding="us-ascii" standalone="no"?><svg xmlns="http://www.w3.org/2000/svg" xmlns:xlink="http://www.w3.org/1999/xlink" contentStyleType="text/css" height="713px" preserveAspectRatio="none" style="width:1063px;height:713px;background:#FFFFFF;" version="1.1" viewBox="0 0 1063 713" width="1063px" zoomAndPan="magnify"><defs/><g><text fill="#000000" font-family="sans-serif" font-size="14" font-weight="bold" lengthAdjust="spacing" textLength="197" x="426.25" y="24.5332">Data Provenance - May 2024</text><!--class Data--><g id="elem_Data"><rect codeLine="3" fill="#F1F1F1" height="48" id="Data" rx="2.5" ry="2.5" style="stroke:#181818;stroke-width:0.5;" width="62" x="263.5" y="72.1094"/><ellipse cx="278.5" cy="88.1094" fill="#ADD1B2" rx="11" ry="11" style="stroke:#181818;stroke-width:1.0;"/><path d="M277.3594,88.9063 L277.3594,91.4063 L281.6875,91.4063 L281.6875,90.4844 Q281.6875,89.875 281.9219,89.6094 Q282.1719,89.3438 282.5469,89.3438 Q282.9219,89.3438 283.1563,89.6094 Q283.3906,89.875 283.3906,90.4844 L283.3906,93.1094 L275.3906,93.1094 Q274.7656,93.1094 274.5,92.875 Q274.25,92.6406 274.25,92.25 Q274.25,91.875 274.5156,91.6406 Q274.7813,91.4063 275.3906,91.4063 L275.6563,91.4063 L275.6563,84.75 L275.3906,84.75 Q274.7656,84.75 274.5,84.5156 Q274.25,84.2813 274.25,83.8906 Q274.25,83.5156 274.5,83.2813 Q274.7656,83.0469 275.3906,83.0469 L283.0156,83.0469 L283.0156,85.6406 Q283.0156,86.25 282.7813,86.5156 Q282.5625,86.7656 282.1719,86.7656 Q281.7969,86.7656 281.5625,86.5156 Q281.3281,86.25 281.3281,85.6406 L281.3281,84.75 L277.3594,84.75 L277.3594,87.2031 L278.8438,87.2031 Q278.8438,86.5469 278.9688,86.3594 Q279.2344,85.9531 279.7031,85.9531 Q280.0781,85.9531 280.3125,86.2188 Q280.5469,86.4688 280.5469,87.0781 L280.5469,89.0469 Q280.5469,89.5938 280.4219,89.7813 Q280.1563,90.1719 279.7031,90.1719 Q279.2344,90.1719 278.9688,89.7656 Q278.8438,89.5781 278.8438,88.9063 L277.3594,88.9063 Z " fill="#000000"/><text fill="#000000" font-family="sans-serif" font-size="14" lengthAdjust="spacing" textLength="30" x="292.5" y="93.8379">Data</text><line style="stroke:#181818;stroke-width:0.5;" x1="264.5" x2="324.5" y1="104.1094" y2="104.1094"/><line style="stroke:#181818;stroke-width:0.5;" x1="264.5" x2="324.5" y1="112.1094" y2="112.1094"/></g><!--class Metadata--><g id="elem_Metadata"><rect codeLine="5" fill="#F1F1F1" height="100.8281" id="Metadata" rx="2.5" ry="2.5" style="stroke:#181818;stroke-width:0.5;" width="207" x="361" y="45.6094"/><ellipse cx="430.25" cy="61.6094" fill="#A9DCDF" rx="11" ry="11" style="stroke:#181818;stroke-width:1.0;"/><path d="M432.4375,63.375 L428.2969,63.375 L427.875,64.4063 L428.2969,64.4063 Q428.9063,64.4063 429.1719,64.6406 Q429.4375,64.875 429.4375,65.2656 Q429.4375,65.6406 429.1719,65.875 Q428.9063,66.1094 428.2969,66.1094 L426,66.1094 Q425.3906,66.1094 425.1406,65.875 Q424.875,65.6406 424.875,65.25 Q424.875,64.875 425.1563,64.6406 Q425.4219,64.3906 426.0469,64.4063 L428.7188,57.75 L427.6094,57.75 Q427,57.75 426.7344,57.5156 Q426.4688,57.2813 426.4688,56.8906 Q426.4688,56.5156 426.7344,56.2813 Q427,56.0469 427.6094,56.0469 L431.2813,56.0469 L434.6719,64.4063 Q435.2656,64.4063 435.4531,64.5469 Q435.8438,64.8125 435.8438,65.2656 Q435.8438,65.6406 435.5781,65.875 Q435.3281,66.1094 434.7188,66.1094 L432.4219,66.1094 Q431.8125,66.1094 431.5469,65.875 Q431.2813,65.6406 431.2813,65.25 Q431.2813,64.875 431.5469,64.6406 Q431.8125,64.4063 432.4219,64.4063 L432.8438,64.4063 L432.4375,63.375 Z M431.7188,61.6719 L430.3594,58.2969 L428.9844,61.6719 L431.7188,61.6719 Z " fill="#000000"/><text fill="#000000" font-family="sans-serif" font-size="14" font-style="italic" lengthAdjust="spacing" textLength="60" x="450.75" y="67.3379">Metadata</text><line style="stroke:#181818;stroke-width:0.5;" x1="362" x2="567" y1="77.6094" y2="77.6094"/><text fill="#000000" font-family="sans-serif" font-size="14" lengthAdjust="spacing" textLength="132" x="367" y="96.1426">source : Source[1..1]</text><text fill="#000000" font-family="sans-serif" font-size="14" lengthAdjust="spacing" textLength="195" x="367" y="113.752">provenance : Provenance[1..1]</text><text fill="#000000" font-family="sans-serif" font-size="14" lengthAdjust="spacing" textLength="91" x="367" y="131.3613">use : Use[1..1]</text><line style="stroke:#181818;stroke-width:0.5;" x1="362" x2="567" y1="138.4375" y2="138.4375"/></g><!--class Source--><g id="elem_Source"><rect codeLine="16" fill="#F1F1F1" height="171.2656" id="Source" rx="2.5" ry="2.5" style="stroke:#181818;stroke-width:0.5;" width="309" x="7" y="275.1094"/><ellipse cx="134.75" cy="291.1094" fill="#A9DCDF" rx="11" ry="11" style="stroke:#181818;stroke-width:1.0;"/><path d="M136.9375,292.875 L132.7969,292.875 L132.375,293.9063 L132.7969,293.9063 Q133.4063,293.9063 133.6719,294.1406 Q133.9375,294.375 133.9375,294.7656 Q133.9375,295.1406 133.6719,295.375 Q133.4063,295.6094 132.7969,295.6094 L130.5,295.6094 Q129.8906,295.6094 129.6406,295.375 Q129.375,295.1406 129.375,294.75 Q129.375,294.375 129.6563,294.1406 Q129.9219,293.8906 130.5469,293.9063 L133.2188,287.25 L132.1094,287.25 Q131.5,287.25 131.2344,287.0156 Q130.9688,286.7813 130.9688,286.3906 Q130.9688,286.0156 131.2344,285.7813 Q131.5,285.5469 132.1094,285.5469 L135.7813,285.5469 L139.1719,293.9063 Q139.7656,293.9063 139.9531,294.0469 Q140.3438,294.3125 140.3438,294.7656 Q140.3438,295.1406 140.0781,295.375 Q139.8281,295.6094 139.2188,295.6094 L136.9219,295.6094 Q136.3125,295.6094 136.0469,295.375 Q135.7813,295.1406 135.7813,294.75 Q135.7813,294.375 136.0469,294.1406 Q136.3125,293.9063 136.9219,293.9063 L137.3438,293.9063 L136.9375,292.875 Z M136.2188,291.1719 L134.8594,287.7969 L133.4844,291.1719 L136.2188,291.1719 Z " fill="#000000"/><text fill="#000000" font-family="sans-serif" font-size="14" font-style="italic" lengthAdjust="spacing" textLength="45" x="155.25" y="296.8379">Source</text><line style="stroke:#181818;stroke-width:0.5;" x1="8" x2="315" y1="307.1094" y2="307.1094"/><text fill="#000000" font-family="sans-serif" font-size="14" lengthAdjust="spacing" textLength="297" x="13" y="325.6426">Identifies the dataset and source of the dataset</text><line style="stroke:#181818;stroke-width:1.0;" x1="8" x2="315" y1="332.7188" y2="332.7188"/><text fill="#000000" font-family="sans-serif" font-size="14" lengthAdjust="spacing" textLength="127" x="13" y="351.252">version : String[1..1]</text><text fill="#000000" font-family="sans-serif" font-size="14" lengthAdjust="spacing" textLength="99" x="13" y="368.8613">title: String[1..1]</text><text fill="#000000" font-family="sans-serif" font-size="14" lengthAdjust="spacing" textLength="77" x="13" y="386.4707">id : URI[1..1]</text><text fill="#000000" font-family="sans-serif" font-size="14" lengthAdjust="spacing" textLength="120" x="13" y="404.0801">location : URL[0..1]</text><text fill="#000000" font-family="sans-serif" font-size="14" lengthAdjust="spacing" textLength="159" x="13" y="421.6895">issuer : Organization[1..*]</text><text fill="#000000" font-family="sans-serif" font-size="14" lengthAdjust="spacing" textLength="150" x="13" y="439.2988">description : String[1..1]</text></g><!--class Provenance--><g id="elem_Provenance"><rect codeLine="27" fill="#F1F1F1" height="202.4844" id="Provenance" rx="2.5" ry="2.5" style="stroke:#181818;stroke-width:0.5;" width="226" x="351.5" y="259.6094"/><ellipse cx="422.75" cy="275.6094" fill="#A9DCDF" rx="11" ry="11" style="stroke:#181818;stroke-width:1.0;"/><path d="M424.9375,277.375 L420.7969,277.375 L420.375,278.4063 L420.7969,278.4063 Q421.4063,278.4063 421.6719,278.6406 Q421.9375,278.875 421.9375,279.2656 Q421.9375,279.6406 421.6719,279.875 Q421.4063,280.1094 420.7969,280.1094 L418.5,280.1094 Q417.8906,280.1094 417.6406,279.875 Q417.375,279.6406 417.375,279.25 Q417.375,278.875 417.6563,278.6406 Q417.9219,278.3906 418.5469,278.4063 L421.2188,271.75 L420.1094,271.75 Q419.5,271.75 419.2344,271.5156 Q418.9688,271.2813 418.9688,270.8906 Q418.9688,270.5156 419.2344,270.2813 Q419.5,270.0469 420.1094,270.0469 L423.7813,270.0469 L427.1719,278.4063 Q427.7656,278.4063 427.9531,278.5469 Q428.3438,278.8125 428.3438,279.2656 Q428.3438,279.6406 428.0781,279.875 Q427.8281,280.1094 427.2188,280.1094 L424.9219,280.1094 Q424.3125,280.1094 424.0469,279.875 Q423.7813,279.6406 423.7813,279.25 Q423.7813,278.875 424.0469,278.6406 Q424.3125,278.4063 424.9219,278.4063 L425.3438,278.4063 L424.9375,277.375 Z M424.2188,275.6719 L422.8594,272.2969 L421.4844,275.6719 L424.2188,275.6719 Z " fill="#000000"/><text fill="#000000" font-family="sans-serif" font-size="14" font-style="italic" lengthAdjust="spacing" textLength="75" x="443.25" y="281.3379">Provenance</text><line style="stroke:#181818;stroke-width:0.5;" x1="352.5" x2="576.5" y1="291.6094" y2="291.6094"/><text fill="#000000" font-family="sans-serif" font-size="14" lengthAdjust="spacing" textLength="195" x="357.5" y="310.1426">The provenance of the dataset</text><text fill="#000000" font-family="sans-serif" font-size="14" lengthAdjust="spacing" textLength="114" x="357.5" y="349.3613">source : URL[0..1]</text><text fill="#000000" font-family="sans-serif" font-size="14" lengthAdjust="spacing" textLength="159" x="357.5" y="366.9707">origin : Organization[0..1]</text><text fill="#000000" font-family="sans-serif" font-size="14" lengthAdjust="spacing" textLength="125" x="357.5" y="384.5801">date : DateTime[1..]</text><text fill="#000000" font-family="sans-serif" font-size="14" lengthAdjust="spacing" textLength="192" x="357.5" y="402.1895">previous-date : DateTime[0..1]</text><text fill="#000000" font-family="sans-serif" font-size="14" lengthAdjust="spacing" textLength="198" x="357.5" y="419.7988">generation-period : Period[0..1]</text><text fill="#000000" font-family="sans-serif" font-size="14" lengthAdjust="spacing" textLength="214" x="357.5" y="437.4082">generation-method : Concept[1..*]</text><text fill="#000000" font-family="sans-serif" font-size="14" lengthAdjust="spacing" textLength="118" x="357.5" y="455.0176">format : String[0..*]</text><line style="stroke:#181818;stroke-width:1.0;" x1="352.5" x2="462" y1="326.0234" y2="326.0234"/><text fill="#000000" font-family="sans-serif" font-size="14" lengthAdjust="spacing" textLength="5" x="462" y="331.252">-</text><line style="stroke:#181818;stroke-width:1.0;" x1="467" x2="576.5" y1="326.0234" y2="326.0234"/></g><!--class Use--><g id="elem_Use"><rect codeLine="39" fill="#F1F1F1" height="308.1406" id="Use" rx="2.5" ry="2.5" style="stroke:#181818;stroke-width:0.5;" width="264" x="612.5" y="206.6094"/><ellipse cx="727.75" cy="222.6094" fill="#A9DCDF" rx="11" ry="11" style="stroke:#181818;stroke-width:1.0;"/><path d="M729.9375,224.375 L725.7969,224.375 L725.375,225.4063 L725.7969,225.4063 Q726.4063,225.4063 726.6719,225.6406 Q726.9375,225.875 726.9375,226.2656 Q726.9375,226.6406 726.6719,226.875 Q726.4063,227.1094 725.7969,227.1094 L723.5,227.1094 Q722.8906,227.1094 722.6406,226.875 Q722.375,226.6406 722.375,226.25 Q722.375,225.875 722.6563,225.6406 Q722.9219,225.3906 723.5469,225.4063 L726.2188,218.75 L725.1094,218.75 Q724.5,218.75 724.2344,218.5156 Q723.9688,218.2813 723.9688,217.8906 Q723.9688,217.5156 724.2344,217.2813 Q724.5,217.0469 725.1094,217.0469 L728.7813,217.0469 L732.1719,225.4063 Q732.7656,225.4063 732.9531,225.5469 Q733.3438,225.8125 733.3438,226.2656 Q733.3438,226.6406 733.0781,226.875 Q732.8281,227.1094 732.2188,227.1094 L729.9219,227.1094 Q729.3125,227.1094 729.0469,226.875 Q728.7813,226.6406 728.7813,226.25 Q728.7813,225.875 729.0469,225.6406 Q729.3125,225.4063 729.9219,225.4063 L730.3438,225.4063 L729.9375,224.375 Z M729.2188,222.6719 L727.8594,219.2969 L726.4844,222.6719 L729.2188,222.6719 Z " fill="#000000"/><text fill="#000000" font-family="sans-serif" font-size="14" font-style="italic" lengthAdjust="spacing" textLength="25" x="748.25" y="228.3379">Use</text><line style="stroke:#181818;stroke-width:0.5;" x1="613.5" x2="875.5" y1="238.6094" y2="238.6094"/><text fill="#000000" font-family="sans-serif" font-size="14" lengthAdjust="spacing" textLength="177" x="618.5" y="257.1426">Legal, Use, and Restrictions</text><text fill="#000000" font-family="sans-serif" font-size="14" lengthAdjust="spacing" textLength="207" x="618.5" y="296.3613">classification : Classification[1..1]</text><text fill="#000000" font-family="sans-serif" font-size="14" lengthAdjust="spacing" textLength="125" x="618.5" y="313.9707">consents : URL[0..*]</text><text fill="#000000" font-family="sans-serif" font-size="14" lengthAdjust="spacing" textLength="252" x="618.5" y="331.5801">privacy-indicators : PrivacyIndicator[0..*]</text><text fill="#000000" font-family="sans-serif" font-size="14" lengthAdjust="spacing" textLength="222" x="618.5" y="349.1895">processing-included : Location[0..*]</text><text fill="#000000" font-family="sans-serif" font-size="14" lengthAdjust="spacing" textLength="225" x="618.5" y="366.7988">processing-excluded : Location[0..*]</text><text fill="#000000" font-family="sans-serif" font-size="14" lengthAdjust="spacing" textLength="195" x="618.5" y="384.4082">storage-allowed : Location[0..*]</text><text fill="#000000" font-family="sans-serif" font-size="14" lengthAdjust="spacing" textLength="208" x="618.5" y="402.0176">storage-forbidden : Location[0..*]</text><text fill="#000000" font-family="sans-serif" font-size="14" lengthAdjust="spacing" textLength="125" x="618.5" y="419.627">license : String[0..1]</text><text fill="#000000" font-family="sans-serif" font-size="14" lengthAdjust="spacing" textLength="206" x="618.5" y="437.2363">intended-purpose : Concept[0..*]</text><text fill="#000000" font-family="sans-serif" font-size="14" lengthAdjust="spacing" textLength="211" x="618.5" y="454.8457">forbidden-purpose : Concept[0..*]</text><text fill="#000000" font-family="sans-serif" font-size="14" lengthAdjust="spacing" textLength="136" x="618.5" y="472.4551">copyright : String[0..*]</text><text fill="#000000" font-family="sans-serif" font-size="14" lengthAdjust="spacing" textLength="118" x="618.5" y="490.0645">patent : String[0..*]</text><text fill="#000000" font-family="sans-serif" font-size="14" lengthAdjust="spacing" textLength="142" x="618.5" y="507.6738">trademark : String[0..*]</text><line style="stroke:#181818;stroke-width:1.0;" x1="613.5" x2="739.5" y1="273.0234" y2="273.0234"/><text fill="#000000" font-family="sans-serif" font-size="14" lengthAdjust="spacing" textLength="10" x="739.5" y="278.252">--</text><line style="stroke:#181818;stroke-width:1.0;" x1="749.5" x2="875.5" y1="273.0234" y2="273.0234"/></g><!--class Classification--><g id="elem_Classification"><rect codeLine="61" fill="#F1F1F1" height="114.4375" id="Classification" rx="2.5" ry="2.5" style="stroke:#181818;stroke-width:0.5;" width="172" x="513.5" y="583.6094"/><ellipse cx="554.15" cy="599.6094" fill="#A9DCDF" rx="11" ry="11" style="stroke:#181818;stroke-width:1.0;"/><path d="M556.3375,601.375 L552.1969,601.375 L551.775,602.4063 L552.1969,602.4063 Q552.8063,602.4063 553.0719,602.6406 Q553.3375,602.875 553.3375,603.2656 Q553.3375,603.6406 553.0719,603.875 Q552.8063,604.1094 552.1969,604.1094 L549.9,604.1094 Q549.2906,604.1094 549.0406,603.875 Q548.775,603.6406 548.775,603.25 Q548.775,602.875 549.0563,602.6406 Q549.3219,602.3906 549.9469,602.4063 L552.6188,595.75 L551.5094,595.75 Q550.9,595.75 550.6344,595.5156 Q550.3688,595.2813 550.3688,594.8906 Q550.3688,594.5156 550.6344,594.2813 Q550.9,594.0469 551.5094,594.0469 L555.1813,594.0469 L558.5719,602.4063 Q559.1656,602.4063 559.3531,602.5469 Q559.7438,602.8125 559.7438,603.2656 Q559.7438,603.6406 559.4781,603.875 Q559.2281,604.1094 558.6188,604.1094 L556.3219,604.1094 Q555.7125,604.1094 555.4469,603.875 Q555.1813,603.6406 555.1813,603.25 Q555.1813,602.875 555.4469,602.6406 Q555.7125,602.4063 556.3219,602.4063 L556.7438,602.4063 L556.3375,601.375 Z M555.6188,599.6719 L554.2594,596.2969 L552.8844,599.6719 L555.6188,599.6719 Z " fill="#000000"/><text fill="#000000" font-family="sans-serif" font-size="14" font-style="italic" lengthAdjust="spacing" textLength="83" x="573.85" y="605.3379">Classification</text><line style="stroke:#181818;stroke-width:0.5;" x1="514.5" x2="684.5" y1="615.6094" y2="615.6094"/><text fill="#000000" font-family="sans-serif" font-size="14" lengthAdjust="spacing" textLength="157" x="519.5" y="634.1426">Sensitivity Classifications</text><text fill="#000000" font-family="sans-serif" font-size="14" lengthAdjust="spacing" textLength="160" x="519.5" y="673.3613">regulation : Concept[1..1]</text><text fill="#000000" font-family="sans-serif" font-size="14" lengthAdjust="spacing" textLength="157" x="519.5" y="690.9707">evaluated : boolean[1..1]</text><line style="stroke:#181818;stroke-width:1.0;" x1="514.5" x2="597" y1="650.0234" y2="650.0234"/><text fill="#000000" font-family="sans-serif" font-size="14" lengthAdjust="spacing" textLength="5" x="597" y="655.252">-</text><line style="stroke:#181818;stroke-width:1.0;" x1="602" x2="684.5" y1="650.0234" y2="650.0234"/></g><!--class PrivacyIndicators--><g id="elem_PrivacyIndicators"><rect codeLine="68" fill="#F1F1F1" height="132.0469" id="PrivacyIndicators" rx="2.5" ry="2.5" style="stroke:#181818;stroke-width:0.5;" width="336" x="720.5" y="574.6094"/><ellipse cx="830.75" cy="590.6094" fill="#A9DCDF" rx="11" ry="11" style="stroke:#181818;stroke-width:1.0;"/><path d="M832.9375,592.375 L828.7969,592.375 L828.375,593.4063 L828.7969,593.4063 Q829.4063,593.4063 829.6719,593.6406 Q829.9375,593.875 829.9375,594.2656 Q829.9375,594.6406 829.6719,594.875 Q829.4063,595.1094 828.7969,595.1094 L826.5,595.1094 Q825.8906,595.1094 825.6406,594.875 Q825.375,594.6406 825.375,594.25 Q825.375,593.875 825.6563,593.6406 Q825.9219,593.3906 826.5469,593.4063 L829.2188,586.75 L828.1094,586.75 Q827.5,586.75 827.2344,586.5156 Q826.9688,586.2813 826.9688,585.8906 Q826.9688,585.5156 827.2344,585.2813 Q827.5,585.0469 828.1094,585.0469 L831.7813,585.0469 L835.1719,593.4063 Q835.7656,593.4063 835.9531,593.5469 Q836.3438,593.8125 836.3438,594.2656 Q836.3438,594.6406 836.0781,594.875 Q835.8281,595.1094 835.2188,595.1094 L832.9219,595.1094 Q832.3125,595.1094 832.0469,594.875 Q831.7813,594.6406 831.7813,594.25 Q831.7813,593.875 832.0469,593.6406 Q832.3125,593.4063 832.9219,593.4063 L833.3438,593.4063 L832.9375,592.375 Z M832.2188,590.6719 L830.8594,587.2969 L829.4844,590.6719 L832.2188,590.6719 Z " fill="#000000"/><text fill="#000000" font-family="sans-serif" font-size="14" font-style="italic" lengthAdjust="spacing" textLength="107" x="851.25" y="596.3379">PrivacyIndicators</text><line style="stroke:#181818;stroke-width:0.5;" x1="721.5" x2="1055.5" y1="606.6094" y2="606.6094"/><text fill="#000000" font-family="sans-serif" font-size="14" lengthAdjust="spacing" textLength="324" x="726.5" y="625.1426">Indicate the privacy tools used and results obtained</text><text fill="#000000" font-family="sans-serif" font-size="14" lengthAdjust="spacing" textLength="321" x="726.5" y="664.3613">tool : Concept[1..1] - from Privacy Enhancing Tools</text><text fill="#000000" font-family="sans-serif" font-size="14" lengthAdjust="spacing" textLength="153" x="726.5" y="681.9707">parameters : String[0..1]</text><text fill="#000000" font-family="sans-serif" font-size="14" lengthAdjust="spacing" textLength="116" x="726.5" y="699.5801">result : String[0..1]</text><line style="stroke:#181818;stroke-width:1.0;" x1="721.5" x2="886" y1="641.0234" y2="641.0234"/><text fill="#000000" font-family="sans-serif" font-size="14" lengthAdjust="spacing" textLength="5" x="886" y="646.252">-</text><line style="stroke:#181818;stroke-width:1.0;" x1="891" x2="1055.5" y1="641.0234" y2="641.0234"/></g><!--reverse link Metadata to Source--><g id="link_Metadata_Source"><path codeLine="11" d="M394.9559,154.5551 C372.6159,173.1451 356.4,186.8594 333.5,206.6094 C308.08,228.5294 280.82,252.5394 255.67,274.9094 " fill="none" id="Metadata-backto-Source" style="stroke:#181818;stroke-width:1.0;"/><polygon fill="#181818" points="404.18,146.8794,397.0094,147.6425,394.9559,154.5551,402.1265,153.7919,404.18,146.8794" style="stroke:#181818;stroke-width:1.0;"/></g><!--reverse link Metadata to Provenance--><g id="link_Metadata_Provenance"><path codeLine="12" d="M464.5,158.7894 C464.5,190.5994 464.5,220.9994 464.5,259.5794 " fill="none" id="Metadata-backto-Provenance" style="stroke:#181818;stroke-width:1.0;"/><polygon fill="#181818" points="464.5,146.7894,460.5,152.7894,464.5,158.7894,468.5,152.7894,464.5,146.7894" style="stroke:#181818;stroke-width:1.0;"/></g><!--reverse link Metadata to Use--><g id="link_Metadata_Use"><path codeLine="13" d="M535.8524,154.4609 C558.0224,172.7709 573.65,186.3594 595.5,206.6094 C601.07,211.7794 606.71,217.0994 612.37,222.5094 " fill="none" id="Metadata-backto-Use" style="stroke:#181818;stroke-width:1.0;"/><polygon fill="#181818" points="526.6,146.8194,528.679,153.7243,535.8524,154.4609,533.7734,147.556,526.6,146.8194" style="stroke:#181818;stroke-width:1.0;"/></g><!--reverse link Data to Metadata--><g id="link_Data_Metadata"><path codeLine="14" d="M331.71,96.1094 C343.46,96.1094 349.2,96.1094 360.95,96.1094 " fill="none" id="Data-backto-Metadata" style="stroke:#181818;stroke-width:1.0;"/><polygon fill="#181818" points="325.71,96.1094,334.71,100.1094,330.71,96.1094,334.71,92.1094,325.71,96.1094" style="stroke:#181818;stroke-width:1.0;"/></g><!--reverse link Use to Classification--><g id="link_Use_Classification"><path codeLine="57" d="M659.0322,525.4799 C646.2322,550.0299 639.28,563.3294 628.73,583.5794 " fill="none" id="Use-backto-Classification" style="stroke:#181818;stroke-width:1.0;"/><polygon fill="#181818" points="664.58,514.8394,658.2592,518.3104,659.0322,525.4799,665.3529,522.0089,664.58,514.8394" style="stroke:#181818;stroke-width:1.0;"/></g><!--reverse link Use to PrivacyIndicators--><g id="link_Use_PrivacyIndicators"><path codeLine="58" d="M829.387,525.496 C840.207,546.396 845.29,556.1994 854.68,574.3094 " fill="none" id="Use-backto-PrivacyIndicators" style="stroke:#181818;stroke-width:1.0;"/><polygon fill="#181818" points="823.87,514.8394,823.0763,522.0067,829.387,525.496,830.1807,518.3287,823.87,514.8394" style="stroke:#181818;stroke-width:1.0;"/></g><!--SRC=[XLKzRzim4DtrApW7OU04dJ9qIJiOSD30SQQW0qsUPQ8qAP2KKhVmV-_nP5dKHrnFmjsxuzrxZtJKqG3x9g9WBzurO8MLm3Xx5aVsi7ZuKXHWeuv7WXI5s8ReXOnC6X42UuOeLAhzMp3y1LTxh7vah_JnVdztT_-JCbNV-p4xA4FK8QNUGXSx5SMb-mrNxiFoSrisJMIZJvFOCujo0xl8lyxlSpwWtMQfqkex3O75FR1K7I0oOLMtgDlb6IhY-AEF1dpGpYOoejUsp5QDYVEPk5Q9WVKo2nadHMpRlArNxuiU6q8D7iC_V2ci_aEeL7ZJvXK4wNKLPqOuJTREw6jNt-1McMIVxCc7eWy7T5wNseu7xFFOB1MX3B3H1rAzimeqsjM1Zn5zRGaMF3Na5NZj4cylz34FEa3S4-Z9uJfLp7ZQENyGiQTeGPafHSb4BJShA8MvJO5Ryi8Q4AXbEYZqrBJSK2rQw2BYqo2G2Isn6kqMUXvlEZfq8-IHQwjIbVE1RX05brriW7SIy0nROeaqjOAq-EhietaW_Bu637Y0A84BOzp7_q38vrOhl3dpCACbMBhfFT-Tesq4YqFmglQL8qmdroANgsr_5ILTTKJxxIUwqjxe9pkRGRqL78J_DME7fF_bHHcgo2ZPFqL3QK8nyTAelBNLA_AYesxIMpi4XD65yr3MvcAetj5d7g4HfiOTar1Rvmm8U-NYZuRjdhus07Jjpmva4Pk5z4uhyhs7K1iqhDj6eIseqPG9FPuF_rTstXswOzbtkyVt1NbcczJxB8yNU5-1V3unINleE7Fw1m00]--></g></svg>